G04 #@! TF.GenerationSoftware,KiCad,Pcbnew,(5.1.9-0-10_14)*
G04 #@! TF.CreationDate,2021-03-28T22:25:10+02:00*
G04 #@! TF.ProjectId,HB-ES-PMSw1-USB,48422d45-532d-4504-9d53-77312d555342,rev?*
G04 #@! TF.SameCoordinates,Original*
G04 #@! TF.FileFunction,Copper,L1,Top*
G04 #@! TF.FilePolarity,Positive*
%FSLAX46Y46*%
G04 Gerber Fmt 4.6, Leading zero omitted, Abs format (unit mm)*
G04 Created by KiCad (PCBNEW (5.1.9-0-10_14)) date 2021-03-28 22:25:10*
%MOMM*%
%LPD*%
G01*
G04 APERTURE LIST*
G04 #@! TA.AperFunction,SMDPad,CuDef*
%ADD10R,1.900000X1.200000*%
G04 #@! TD*
G04 #@! TA.AperFunction,ComponentPad*
%ADD11O,1.900000X1.200000*%
G04 #@! TD*
G04 #@! TA.AperFunction,SMDPad,CuDef*
%ADD12R,1.900000X1.500000*%
G04 #@! TD*
G04 #@! TA.AperFunction,ComponentPad*
%ADD13C,1.450000*%
G04 #@! TD*
G04 #@! TA.AperFunction,SMDPad,CuDef*
%ADD14R,1.350000X0.400000*%
G04 #@! TD*
G04 #@! TA.AperFunction,SMDPad,CuDef*
%ADD15R,0.800000X0.900000*%
G04 #@! TD*
G04 #@! TA.AperFunction,ComponentPad*
%ADD16O,1.700000X1.700000*%
G04 #@! TD*
G04 #@! TA.AperFunction,ComponentPad*
%ADD17R,1.700000X1.700000*%
G04 #@! TD*
G04 #@! TA.AperFunction,SMDPad,CuDef*
%ADD18R,0.400000X1.060000*%
G04 #@! TD*
G04 #@! TA.AperFunction,ComponentPad*
%ADD19C,2.000000*%
G04 #@! TD*
G04 #@! TA.AperFunction,ComponentPad*
%ADD20C,1.500000*%
G04 #@! TD*
G04 #@! TA.AperFunction,ComponentPad*
%ADD21C,3.000000*%
G04 #@! TD*
G04 #@! TA.AperFunction,SMDPad,CuDef*
%ADD22R,2.500000X4.000000*%
G04 #@! TD*
G04 #@! TA.AperFunction,SMDPad,CuDef*
%ADD23R,4.400000X2.500000*%
G04 #@! TD*
G04 #@! TA.AperFunction,ViaPad*
%ADD24C,0.800000*%
G04 #@! TD*
G04 #@! TA.AperFunction,ViaPad*
%ADD25C,1.400000*%
G04 #@! TD*
G04 #@! TA.AperFunction,Conductor*
%ADD26C,0.250000*%
G04 #@! TD*
G04 #@! TA.AperFunction,Conductor*
%ADD27C,1.000000*%
G04 #@! TD*
G04 #@! TA.AperFunction,Conductor*
%ADD28C,0.254000*%
G04 #@! TD*
G04 #@! TA.AperFunction,Conductor*
%ADD29C,0.100000*%
G04 #@! TD*
G04 APERTURE END LIST*
D10*
X28862500Y-45200000D03*
X28862500Y-51000000D03*
D11*
X28862500Y-51600000D03*
X28862500Y-44600000D03*
D12*
X28862500Y-47100000D03*
D13*
X31562500Y-50600000D03*
D14*
X31562500Y-48100000D03*
X31562500Y-48750000D03*
X31562500Y-49400000D03*
X31562500Y-46800000D03*
X31562500Y-47450000D03*
D13*
X31562500Y-45600000D03*
D12*
X28862500Y-49100000D03*
G04 #@! TA.AperFunction,SMDPad,CuDef*
G36*
G01*
X39050001Y-45950000D02*
X38149999Y-45950000D01*
G75*
G02*
X37900000Y-45700001I0J249999D01*
G01*
X37900000Y-45049999D01*
G75*
G02*
X38149999Y-44800000I249999J0D01*
G01*
X39050001Y-44800000D01*
G75*
G02*
X39300000Y-45049999I0J-249999D01*
G01*
X39300000Y-45700001D01*
G75*
G02*
X39050001Y-45950000I-249999J0D01*
G01*
G37*
G04 #@! TD.AperFunction*
G04 #@! TA.AperFunction,SMDPad,CuDef*
G36*
G01*
X39050001Y-48000000D02*
X38149999Y-48000000D01*
G75*
G02*
X37900000Y-47750001I0J249999D01*
G01*
X37900000Y-47099999D01*
G75*
G02*
X38149999Y-46850000I249999J0D01*
G01*
X39050001Y-46850000D01*
G75*
G02*
X39300000Y-47099999I0J-249999D01*
G01*
X39300000Y-47750001D01*
G75*
G02*
X39050001Y-48000000I-249999J0D01*
G01*
G37*
G04 #@! TD.AperFunction*
G04 #@! TA.AperFunction,SMDPad,CuDef*
G36*
G01*
X78000001Y-36000000D02*
X77099999Y-36000000D01*
G75*
G02*
X76850000Y-35750001I0J249999D01*
G01*
X76850000Y-35099999D01*
G75*
G02*
X77099999Y-34850000I249999J0D01*
G01*
X78000001Y-34850000D01*
G75*
G02*
X78250000Y-35099999I0J-249999D01*
G01*
X78250000Y-35750001D01*
G75*
G02*
X78000001Y-36000000I-249999J0D01*
G01*
G37*
G04 #@! TD.AperFunction*
G04 #@! TA.AperFunction,SMDPad,CuDef*
G36*
G01*
X78000001Y-38050000D02*
X77099999Y-38050000D01*
G75*
G02*
X76850000Y-37800001I0J249999D01*
G01*
X76850000Y-37149999D01*
G75*
G02*
X77099999Y-36900000I249999J0D01*
G01*
X78000001Y-36900000D01*
G75*
G02*
X78250000Y-37149999I0J-249999D01*
G01*
X78250000Y-37800001D01*
G75*
G02*
X78000001Y-38050000I-249999J0D01*
G01*
G37*
G04 #@! TD.AperFunction*
G04 #@! TA.AperFunction,SMDPad,CuDef*
G36*
G01*
X50150000Y-54550001D02*
X50150000Y-53649999D01*
G75*
G02*
X50399999Y-53400000I249999J0D01*
G01*
X51050001Y-53400000D01*
G75*
G02*
X51300000Y-53649999I0J-249999D01*
G01*
X51300000Y-54550001D01*
G75*
G02*
X51050001Y-54800000I-249999J0D01*
G01*
X50399999Y-54800000D01*
G75*
G02*
X50150000Y-54550001I0J249999D01*
G01*
G37*
G04 #@! TD.AperFunction*
G04 #@! TA.AperFunction,SMDPad,CuDef*
G36*
G01*
X48100000Y-54550001D02*
X48100000Y-53649999D01*
G75*
G02*
X48349999Y-53400000I249999J0D01*
G01*
X49000001Y-53400000D01*
G75*
G02*
X49250000Y-53649999I0J-249999D01*
G01*
X49250000Y-54550001D01*
G75*
G02*
X49000001Y-54800000I-249999J0D01*
G01*
X48349999Y-54800000D01*
G75*
G02*
X48100000Y-54550001I0J249999D01*
G01*
G37*
G04 #@! TD.AperFunction*
G04 #@! TA.AperFunction,SMDPad,CuDef*
G36*
G01*
X54350000Y-53649999D02*
X54350000Y-54550001D01*
G75*
G02*
X54100001Y-54800000I-249999J0D01*
G01*
X53449999Y-54800000D01*
G75*
G02*
X53200000Y-54550001I0J249999D01*
G01*
X53200000Y-53649999D01*
G75*
G02*
X53449999Y-53400000I249999J0D01*
G01*
X54100001Y-53400000D01*
G75*
G02*
X54350000Y-53649999I0J-249999D01*
G01*
G37*
G04 #@! TD.AperFunction*
G04 #@! TA.AperFunction,SMDPad,CuDef*
G36*
G01*
X56400000Y-53649999D02*
X56400000Y-54550001D01*
G75*
G02*
X56150001Y-54800000I-249999J0D01*
G01*
X55499999Y-54800000D01*
G75*
G02*
X55250000Y-54550001I0J249999D01*
G01*
X55250000Y-53649999D01*
G75*
G02*
X55499999Y-53400000I249999J0D01*
G01*
X56150001Y-53400000D01*
G75*
G02*
X56400000Y-53649999I0J-249999D01*
G01*
G37*
G04 #@! TD.AperFunction*
G04 #@! TA.AperFunction,SMDPad,CuDef*
G36*
G01*
X60550001Y-57150000D02*
X59649999Y-57150000D01*
G75*
G02*
X59400000Y-56900001I0J249999D01*
G01*
X59400000Y-56249999D01*
G75*
G02*
X59649999Y-56000000I249999J0D01*
G01*
X60550001Y-56000000D01*
G75*
G02*
X60800000Y-56249999I0J-249999D01*
G01*
X60800000Y-56900001D01*
G75*
G02*
X60550001Y-57150000I-249999J0D01*
G01*
G37*
G04 #@! TD.AperFunction*
G04 #@! TA.AperFunction,SMDPad,CuDef*
G36*
G01*
X60550001Y-59200000D02*
X59649999Y-59200000D01*
G75*
G02*
X59400000Y-58950001I0J249999D01*
G01*
X59400000Y-58299999D01*
G75*
G02*
X59649999Y-58050000I249999J0D01*
G01*
X60550001Y-58050000D01*
G75*
G02*
X60800000Y-58299999I0J-249999D01*
G01*
X60800000Y-58950001D01*
G75*
G02*
X60550001Y-59200000I-249999J0D01*
G01*
G37*
G04 #@! TD.AperFunction*
D15*
X58800000Y-54100000D03*
X57850000Y-52100000D03*
X59750000Y-52100000D03*
G04 #@! TA.AperFunction,SMDPad,CuDef*
G36*
G01*
X68349999Y-52000000D02*
X69250001Y-52000000D01*
G75*
G02*
X69500000Y-52249999I0J-249999D01*
G01*
X69500000Y-52900001D01*
G75*
G02*
X69250001Y-53150000I-249999J0D01*
G01*
X68349999Y-53150000D01*
G75*
G02*
X68100000Y-52900001I0J249999D01*
G01*
X68100000Y-52249999D01*
G75*
G02*
X68349999Y-52000000I249999J0D01*
G01*
G37*
G04 #@! TD.AperFunction*
G04 #@! TA.AperFunction,SMDPad,CuDef*
G36*
G01*
X68349999Y-54050000D02*
X69250001Y-54050000D01*
G75*
G02*
X69500000Y-54299999I0J-249999D01*
G01*
X69500000Y-54950001D01*
G75*
G02*
X69250001Y-55200000I-249999J0D01*
G01*
X68349999Y-55200000D01*
G75*
G02*
X68100000Y-54950001I0J249999D01*
G01*
X68100000Y-54299999D01*
G75*
G02*
X68349999Y-54050000I249999J0D01*
G01*
G37*
G04 #@! TD.AperFunction*
G04 #@! TA.AperFunction,SMDPad,CuDef*
G36*
G01*
X69250001Y-56950000D02*
X68349999Y-56950000D01*
G75*
G02*
X68100000Y-56700001I0J249999D01*
G01*
X68100000Y-56049999D01*
G75*
G02*
X68349999Y-55800000I249999J0D01*
G01*
X69250001Y-55800000D01*
G75*
G02*
X69500000Y-56049999I0J-249999D01*
G01*
X69500000Y-56700001D01*
G75*
G02*
X69250001Y-56950000I-249999J0D01*
G01*
G37*
G04 #@! TD.AperFunction*
G04 #@! TA.AperFunction,SMDPad,CuDef*
G36*
G01*
X69250001Y-59000000D02*
X68349999Y-59000000D01*
G75*
G02*
X68100000Y-58750001I0J249999D01*
G01*
X68100000Y-58099999D01*
G75*
G02*
X68349999Y-57850000I249999J0D01*
G01*
X69250001Y-57850000D01*
G75*
G02*
X69500000Y-58099999I0J-249999D01*
G01*
X69500000Y-58750001D01*
G75*
G02*
X69250001Y-59000000I-249999J0D01*
G01*
G37*
G04 #@! TD.AperFunction*
D16*
X82700000Y-36500000D03*
X85240000Y-36500000D03*
X87780000Y-36500000D03*
X90320000Y-36500000D03*
X92860000Y-36500000D03*
D17*
X95400000Y-36500000D03*
G04 #@! TA.AperFunction,SMDPad,CuDef*
G36*
G01*
X81250001Y-57050000D02*
X80349999Y-57050000D01*
G75*
G02*
X80100000Y-56800001I0J249999D01*
G01*
X80100000Y-56149999D01*
G75*
G02*
X80349999Y-55900000I249999J0D01*
G01*
X81250001Y-55900000D01*
G75*
G02*
X81500000Y-56149999I0J-249999D01*
G01*
X81500000Y-56800001D01*
G75*
G02*
X81250001Y-57050000I-249999J0D01*
G01*
G37*
G04 #@! TD.AperFunction*
G04 #@! TA.AperFunction,SMDPad,CuDef*
G36*
G01*
X81250001Y-59100000D02*
X80349999Y-59100000D01*
G75*
G02*
X80100000Y-58850001I0J249999D01*
G01*
X80100000Y-58199999D01*
G75*
G02*
X80349999Y-57950000I249999J0D01*
G01*
X81250001Y-57950000D01*
G75*
G02*
X81500000Y-58199999I0J-249999D01*
G01*
X81500000Y-58850001D01*
G75*
G02*
X81250001Y-59100000I-249999J0D01*
G01*
G37*
G04 #@! TD.AperFunction*
D15*
X40600000Y-39700000D03*
X41550000Y-41700000D03*
X39650000Y-41700000D03*
D18*
X40180000Y-57750000D03*
X39530000Y-57750000D03*
X38870000Y-57750000D03*
X38220000Y-57750000D03*
X38220000Y-55550000D03*
X38870000Y-55550000D03*
X39530000Y-55550000D03*
X40180000Y-55550000D03*
D19*
X78050000Y-54850000D03*
X78050000Y-59350000D03*
X71550000Y-54850000D03*
X71550000Y-59350000D03*
G04 #@! TA.AperFunction,SMDPad,CuDef*
G36*
G01*
X37625000Y-51324999D02*
X37625000Y-54175001D01*
G75*
G02*
X37375001Y-54425000I-249999J0D01*
G01*
X36349999Y-54425000D01*
G75*
G02*
X36100000Y-54175001I0J249999D01*
G01*
X36100000Y-51324999D01*
G75*
G02*
X36349999Y-51075000I249999J0D01*
G01*
X37375001Y-51075000D01*
G75*
G02*
X37625000Y-51324999I0J-249999D01*
G01*
G37*
G04 #@! TD.AperFunction*
G04 #@! TA.AperFunction,SMDPad,CuDef*
G36*
G01*
X43600000Y-51324999D02*
X43600000Y-54175001D01*
G75*
G02*
X43350001Y-54425000I-249999J0D01*
G01*
X42324999Y-54425000D01*
G75*
G02*
X42075000Y-54175001I0J249999D01*
G01*
X42075000Y-51324999D01*
G75*
G02*
X42324999Y-51075000I249999J0D01*
G01*
X43350001Y-51075000D01*
G75*
G02*
X43600000Y-51324999I0J-249999D01*
G01*
G37*
G04 #@! TD.AperFunction*
G04 #@! TA.AperFunction,SMDPad,CuDef*
G36*
G01*
X66650001Y-57150000D02*
X65749999Y-57150000D01*
G75*
G02*
X65500000Y-56900001I0J249999D01*
G01*
X65500000Y-56249999D01*
G75*
G02*
X65749999Y-56000000I249999J0D01*
G01*
X66650001Y-56000000D01*
G75*
G02*
X66900000Y-56249999I0J-249999D01*
G01*
X66900000Y-56900001D01*
G75*
G02*
X66650001Y-57150000I-249999J0D01*
G01*
G37*
G04 #@! TD.AperFunction*
G04 #@! TA.AperFunction,SMDPad,CuDef*
G36*
G01*
X66650001Y-59200000D02*
X65749999Y-59200000D01*
G75*
G02*
X65500000Y-58950001I0J249999D01*
G01*
X65500000Y-58299999D01*
G75*
G02*
X65749999Y-58050000I249999J0D01*
G01*
X66650001Y-58050000D01*
G75*
G02*
X66900000Y-58299999I0J-249999D01*
G01*
X66900000Y-58950001D01*
G75*
G02*
X66650001Y-59200000I-249999J0D01*
G01*
G37*
G04 #@! TD.AperFunction*
G04 #@! TA.AperFunction,SMDPad,CuDef*
G36*
G01*
X44300000Y-56300001D02*
X44300000Y-55399999D01*
G75*
G02*
X44549999Y-55150000I249999J0D01*
G01*
X45200001Y-55150000D01*
G75*
G02*
X45450000Y-55399999I0J-249999D01*
G01*
X45450000Y-56300001D01*
G75*
G02*
X45200001Y-56550000I-249999J0D01*
G01*
X44549999Y-56550000D01*
G75*
G02*
X44300000Y-56300001I0J249999D01*
G01*
G37*
G04 #@! TD.AperFunction*
G04 #@! TA.AperFunction,SMDPad,CuDef*
G36*
G01*
X42250000Y-56300001D02*
X42250000Y-55399999D01*
G75*
G02*
X42499999Y-55150000I249999J0D01*
G01*
X43150001Y-55150000D01*
G75*
G02*
X43400000Y-55399999I0J-249999D01*
G01*
X43400000Y-56300001D01*
G75*
G02*
X43150001Y-56550000I-249999J0D01*
G01*
X42499999Y-56550000D01*
G75*
G02*
X42250000Y-56300001I0J249999D01*
G01*
G37*
G04 #@! TD.AperFunction*
G04 #@! TA.AperFunction,SMDPad,CuDef*
G36*
G01*
X44300000Y-58800001D02*
X44300000Y-57899999D01*
G75*
G02*
X44549999Y-57650000I249999J0D01*
G01*
X45200001Y-57650000D01*
G75*
G02*
X45450000Y-57899999I0J-249999D01*
G01*
X45450000Y-58800001D01*
G75*
G02*
X45200001Y-59050000I-249999J0D01*
G01*
X44549999Y-59050000D01*
G75*
G02*
X44300000Y-58800001I0J249999D01*
G01*
G37*
G04 #@! TD.AperFunction*
G04 #@! TA.AperFunction,SMDPad,CuDef*
G36*
G01*
X42250000Y-58800001D02*
X42250000Y-57899999D01*
G75*
G02*
X42499999Y-57650000I249999J0D01*
G01*
X43150001Y-57650000D01*
G75*
G02*
X43400000Y-57899999I0J-249999D01*
G01*
X43400000Y-58800001D01*
G75*
G02*
X43150001Y-59050000I-249999J0D01*
G01*
X42499999Y-59050000D01*
G75*
G02*
X42250000Y-58800001I0J249999D01*
G01*
G37*
G04 #@! TD.AperFunction*
G04 #@! TA.AperFunction,SMDPad,CuDef*
G36*
G01*
X63950001Y-57150000D02*
X63049999Y-57150000D01*
G75*
G02*
X62800000Y-56900001I0J249999D01*
G01*
X62800000Y-56249999D01*
G75*
G02*
X63049999Y-56000000I249999J0D01*
G01*
X63950001Y-56000000D01*
G75*
G02*
X64200000Y-56249999I0J-249999D01*
G01*
X64200000Y-56900001D01*
G75*
G02*
X63950001Y-57150000I-249999J0D01*
G01*
G37*
G04 #@! TD.AperFunction*
G04 #@! TA.AperFunction,SMDPad,CuDef*
G36*
G01*
X63950001Y-59200000D02*
X63049999Y-59200000D01*
G75*
G02*
X62800000Y-58950001I0J249999D01*
G01*
X62800000Y-58299999D01*
G75*
G02*
X63049999Y-58050000I249999J0D01*
G01*
X63950001Y-58050000D01*
G75*
G02*
X64200000Y-58299999I0J-249999D01*
G01*
X64200000Y-58950001D01*
G75*
G02*
X63950001Y-59200000I-249999J0D01*
G01*
G37*
G04 #@! TD.AperFunction*
G04 #@! TA.AperFunction,SMDPad,CuDef*
G36*
G01*
X65150000Y-52550001D02*
X65150000Y-51649999D01*
G75*
G02*
X65399999Y-51400000I249999J0D01*
G01*
X66050001Y-51400000D01*
G75*
G02*
X66300000Y-51649999I0J-249999D01*
G01*
X66300000Y-52550001D01*
G75*
G02*
X66050001Y-52800000I-249999J0D01*
G01*
X65399999Y-52800000D01*
G75*
G02*
X65150000Y-52550001I0J249999D01*
G01*
G37*
G04 #@! TD.AperFunction*
G04 #@! TA.AperFunction,SMDPad,CuDef*
G36*
G01*
X63100000Y-52550001D02*
X63100000Y-51649999D01*
G75*
G02*
X63349999Y-51400000I249999J0D01*
G01*
X64000001Y-51400000D01*
G75*
G02*
X64250000Y-51649999I0J-249999D01*
G01*
X64250000Y-52550001D01*
G75*
G02*
X64000001Y-52800000I-249999J0D01*
G01*
X63349999Y-52800000D01*
G75*
G02*
X63100000Y-52550001I0J249999D01*
G01*
G37*
G04 #@! TD.AperFunction*
G04 #@! TA.AperFunction,SMDPad,CuDef*
G36*
G01*
X81250001Y-53250000D02*
X80349999Y-53250000D01*
G75*
G02*
X80100000Y-53000001I0J249999D01*
G01*
X80100000Y-52349999D01*
G75*
G02*
X80349999Y-52100000I249999J0D01*
G01*
X81250001Y-52100000D01*
G75*
G02*
X81500000Y-52349999I0J-249999D01*
G01*
X81500000Y-53000001D01*
G75*
G02*
X81250001Y-53250000I-249999J0D01*
G01*
G37*
G04 #@! TD.AperFunction*
G04 #@! TA.AperFunction,SMDPad,CuDef*
G36*
G01*
X81250001Y-55300000D02*
X80349999Y-55300000D01*
G75*
G02*
X80100000Y-55050001I0J249999D01*
G01*
X80100000Y-54399999D01*
G75*
G02*
X80349999Y-54150000I249999J0D01*
G01*
X81250001Y-54150000D01*
G75*
G02*
X81500000Y-54399999I0J-249999D01*
G01*
X81500000Y-55050001D01*
G75*
G02*
X81250001Y-55300000I-249999J0D01*
G01*
G37*
G04 #@! TD.AperFunction*
D20*
X85100000Y-44490000D03*
X85100000Y-47030000D03*
X85100000Y-49060000D03*
X85100000Y-51600000D03*
D21*
X87770000Y-41440000D03*
X87770000Y-55160000D03*
G04 #@! TA.AperFunction,SMDPad,CuDef*
G36*
G01*
X44250001Y-40400000D02*
X43349999Y-40400000D01*
G75*
G02*
X43100000Y-40150001I0J249999D01*
G01*
X43100000Y-39499999D01*
G75*
G02*
X43349999Y-39250000I249999J0D01*
G01*
X44250001Y-39250000D01*
G75*
G02*
X44500000Y-39499999I0J-249999D01*
G01*
X44500000Y-40150001D01*
G75*
G02*
X44250001Y-40400000I-249999J0D01*
G01*
G37*
G04 #@! TD.AperFunction*
G04 #@! TA.AperFunction,SMDPad,CuDef*
G36*
G01*
X44250001Y-42450000D02*
X43349999Y-42450000D01*
G75*
G02*
X43100000Y-42200001I0J249999D01*
G01*
X43100000Y-41549999D01*
G75*
G02*
X43349999Y-41300000I249999J0D01*
G01*
X44250001Y-41300000D01*
G75*
G02*
X44500000Y-41549999I0J-249999D01*
G01*
X44500000Y-42200001D01*
G75*
G02*
X44250001Y-42450000I-249999J0D01*
G01*
G37*
G04 #@! TD.AperFunction*
D22*
X51500000Y-42250000D03*
X51500000Y-48350000D03*
D23*
X66500000Y-42600000D03*
X73900000Y-42600000D03*
G04 #@! TA.AperFunction,SMDPad,CuDef*
G36*
G01*
X36900001Y-40600000D02*
X35999999Y-40600000D01*
G75*
G02*
X35750000Y-40350001I0J249999D01*
G01*
X35750000Y-39699999D01*
G75*
G02*
X35999999Y-39450000I249999J0D01*
G01*
X36900001Y-39450000D01*
G75*
G02*
X37150000Y-39699999I0J-249999D01*
G01*
X37150000Y-40350001D01*
G75*
G02*
X36900001Y-40600000I-249999J0D01*
G01*
G37*
G04 #@! TD.AperFunction*
G04 #@! TA.AperFunction,SMDPad,CuDef*
G36*
G01*
X36900001Y-42650000D02*
X35999999Y-42650000D01*
G75*
G02*
X35750000Y-42400001I0J249999D01*
G01*
X35750000Y-41749999D01*
G75*
G02*
X35999999Y-41500000I249999J0D01*
G01*
X36900001Y-41500000D01*
G75*
G02*
X37150000Y-41749999I0J-249999D01*
G01*
X37150000Y-42400001D01*
G75*
G02*
X36900001Y-42650000I-249999J0D01*
G01*
G37*
G04 #@! TD.AperFunction*
G04 #@! TA.AperFunction,SMDPad,CuDef*
G36*
G01*
X35299999Y-57400000D02*
X36200001Y-57400000D01*
G75*
G02*
X36450000Y-57649999I0J-249999D01*
G01*
X36450000Y-58300001D01*
G75*
G02*
X36200001Y-58550000I-249999J0D01*
G01*
X35299999Y-58550000D01*
G75*
G02*
X35050000Y-58300001I0J249999D01*
G01*
X35050000Y-57649999D01*
G75*
G02*
X35299999Y-57400000I249999J0D01*
G01*
G37*
G04 #@! TD.AperFunction*
G04 #@! TA.AperFunction,SMDPad,CuDef*
G36*
G01*
X35299999Y-55350000D02*
X36200001Y-55350000D01*
G75*
G02*
X36450000Y-55599999I0J-249999D01*
G01*
X36450000Y-56250001D01*
G75*
G02*
X36200001Y-56500000I-249999J0D01*
G01*
X35299999Y-56500000D01*
G75*
G02*
X35050000Y-56250001I0J249999D01*
G01*
X35050000Y-55599999D01*
G75*
G02*
X35299999Y-55350000I249999J0D01*
G01*
G37*
G04 #@! TD.AperFunction*
D24*
X48202600Y-39369900D03*
X46600000Y-56600000D03*
X70105500Y-46719100D03*
X73450000Y-36400000D03*
X33400000Y-39350000D03*
X33400000Y-41100000D03*
X77600000Y-47900000D03*
X81650000Y-49900000D03*
X54750000Y-48050000D03*
X86798300Y-38770700D03*
X61567300Y-58736900D03*
X65099000Y-39937300D03*
X69329200Y-41474100D03*
X34483400Y-54183400D03*
X64687650Y-35412350D03*
X92150000Y-54400000D03*
X73258300Y-49791300D03*
X70830800Y-45303700D03*
X72387500Y-46941300D03*
X67626500Y-46941800D03*
X77350000Y-43400000D03*
X53509600Y-38604200D03*
X75198600Y-38986200D03*
X78350000Y-38950000D03*
X34800000Y-50100000D03*
X33600000Y-48000000D03*
X65716500Y-50790100D03*
X92605600Y-50661500D03*
X71068400Y-43776800D03*
X43963000Y-49628300D03*
D25*
X36860000Y-49840000D03*
D24*
X45450000Y-50950000D03*
X75500000Y-37611798D03*
X53800000Y-44800000D03*
X59550000Y-47850000D03*
X78400000Y-45150000D03*
D26*
X38870000Y-56405300D02*
X40535800Y-56405300D01*
X40535800Y-56405300D02*
X42153600Y-54787500D01*
X42153600Y-54787500D02*
X43812500Y-54787500D01*
X43812500Y-54787500D02*
X44875000Y-55850000D01*
X44875000Y-58350000D02*
X44875000Y-55850000D01*
X35750000Y-57975000D02*
X35750000Y-57541800D01*
X38870000Y-55550000D02*
X38870000Y-56405300D01*
X80800000Y-58525000D02*
X78875000Y-58525000D01*
X78875000Y-58525000D02*
X78050000Y-59350000D01*
X66903100Y-44578400D02*
X66500000Y-44175300D01*
X84916900Y-44673100D02*
X85100000Y-44490000D01*
X84165000Y-55160000D02*
X84015900Y-55010900D01*
X66500000Y-42600000D02*
X66500000Y-44175300D01*
X65237400Y-42600000D02*
X66500000Y-42600000D01*
X57850000Y-43385300D02*
X54210600Y-43385300D01*
X54210600Y-43385300D02*
X53075300Y-42250000D01*
X63974700Y-42600000D02*
X63189400Y-43385300D01*
X63189400Y-43385300D02*
X57850000Y-43385300D01*
X57850000Y-43385300D02*
X57850000Y-51324700D01*
X57850000Y-52100000D02*
X57850000Y-51324700D01*
X43800000Y-39825000D02*
X42069000Y-39825000D01*
X52287700Y-42250000D02*
X51759300Y-42778400D01*
X52287700Y-42250000D02*
X53075300Y-42250000D01*
X51500000Y-42250000D02*
X52287700Y-42250000D01*
X92710000Y-36500000D02*
X92860000Y-36500000D01*
X65237400Y-42600000D02*
X63974700Y-42600000D01*
X29250000Y-44225000D02*
X29331500Y-44225000D01*
X40035002Y-41700000D02*
X41135002Y-40600000D01*
X39650000Y-41700000D02*
X40035002Y-41700000D01*
X41294000Y-40600000D02*
X42069000Y-39825000D01*
X41135002Y-40600000D02*
X41294000Y-40600000D01*
X33000000Y-49400000D02*
X32124700Y-49400000D01*
X33050000Y-51825000D02*
X33000000Y-49400000D01*
X33050000Y-51975000D02*
X33050000Y-51825000D01*
X38600000Y-45375000D02*
X38600000Y-42750000D01*
X38600000Y-42750000D02*
X39650000Y-41700000D01*
X39650000Y-41700000D02*
X39650000Y-41650000D01*
X86798300Y-38770700D02*
X87172600Y-38770700D01*
X87172600Y-38770700D02*
X89144700Y-36798600D01*
X89144700Y-36798600D02*
X89144700Y-36500000D01*
X76425300Y-42600000D02*
X80254600Y-38770700D01*
X80254600Y-38770700D02*
X86798300Y-38770700D01*
X61567300Y-58736900D02*
X63388100Y-58736900D01*
X63388100Y-58736900D02*
X63500000Y-58625000D01*
X36287600Y-55387400D02*
X35750000Y-55925000D01*
X38220000Y-55550000D02*
X38057400Y-55387400D01*
X90320000Y-36500000D02*
X89144700Y-36500000D01*
X73900000Y-42600000D02*
X76425300Y-42600000D01*
X41550000Y-41700000D02*
X42275300Y-41700000D01*
X43800000Y-41875000D02*
X42450300Y-41875000D01*
X42450300Y-41875000D02*
X42275300Y-41700000D01*
X65099000Y-39937300D02*
X65086300Y-39924600D01*
X65086300Y-39924600D02*
X49924600Y-39924600D01*
X49924600Y-39924600D02*
X47974200Y-41875000D01*
X47974200Y-41875000D02*
X43800000Y-41875000D01*
X63500000Y-58625000D02*
X66200000Y-58625000D01*
X69329200Y-41474100D02*
X67792400Y-39937300D01*
X67792400Y-39937300D02*
X65099000Y-39937300D01*
X34483400Y-54749085D02*
X35434315Y-55700000D01*
X34483400Y-54183400D02*
X34483400Y-54749085D01*
X38057400Y-55387400D02*
X36312600Y-55387400D01*
X36312600Y-55387400D02*
X36300000Y-55400000D01*
X70300000Y-42600000D02*
X69329200Y-41474100D01*
X73900000Y-42600000D02*
X70300000Y-42600000D01*
X77550000Y-35425000D02*
X64725000Y-35425000D01*
X68250001Y-60675001D02*
X85874999Y-60675001D01*
X66200000Y-58625000D02*
X68250001Y-60675001D01*
X85874999Y-60675001D02*
X92150000Y-54400000D01*
X92150000Y-54400000D02*
X92150000Y-54400000D01*
X40600000Y-39700000D02*
X38825000Y-39700000D01*
X38825000Y-39700000D02*
X36450000Y-42075000D01*
X49924700Y-48350000D02*
X44152300Y-48350000D01*
X44152300Y-48350000D02*
X42837500Y-49664800D01*
X51500000Y-48350000D02*
X49924700Y-48350000D01*
D27*
X42837500Y-52750000D02*
X42837500Y-49664800D01*
D26*
X42837500Y-52750000D02*
X42837500Y-54062500D01*
X42837500Y-54062500D02*
X42700000Y-54200000D01*
X40180000Y-55550000D02*
X40180000Y-54770000D01*
X40180000Y-54770000D02*
X40750000Y-54200000D01*
X40750000Y-54200000D02*
X42700000Y-54200000D01*
X33224990Y-46800000D02*
X33400000Y-46624990D01*
X31560000Y-46800000D02*
X32900000Y-46800000D01*
X32900000Y-46800000D02*
X33224990Y-46800000D01*
X36475010Y-46624990D02*
X36500000Y-42200000D01*
D27*
X37100000Y-46624990D02*
X33400000Y-46624990D01*
X38721280Y-49664800D02*
X42837500Y-49664800D01*
X37100000Y-48043520D02*
X38721280Y-49664800D01*
X37100000Y-46624990D02*
X37100000Y-48043520D01*
D26*
X80800000Y-56475000D02*
X80800000Y-54725000D01*
X73258300Y-49791300D02*
X77916300Y-49791300D01*
X77916300Y-49791300D02*
X80800000Y-52675000D01*
X64625000Y-51065100D02*
X64625000Y-55450000D01*
X64625000Y-55450000D02*
X63500000Y-56575000D01*
X70830800Y-45303700D02*
X68227600Y-45303700D01*
X68227600Y-45303700D02*
X64625000Y-48906300D01*
X64625000Y-48906300D02*
X64625000Y-51065100D01*
X38870000Y-58605300D02*
X39467800Y-58605300D01*
X39467800Y-58605300D02*
X40239700Y-59377200D01*
X40239700Y-59377200D02*
X45438500Y-59377200D01*
X45438500Y-59377200D02*
X49132800Y-55682900D01*
X49132800Y-55682900D02*
X53812400Y-55682900D01*
X53812400Y-55682900D02*
X54800000Y-54695300D01*
X54800000Y-54695300D02*
X54800000Y-53520200D01*
X54800000Y-53520200D02*
X55444800Y-52875400D01*
X55444800Y-52875400D02*
X58409700Y-52875400D01*
X58409700Y-52875400D02*
X58575400Y-52709700D01*
X58575400Y-52709700D02*
X58575400Y-51930500D01*
X58575400Y-51930500D02*
X59440800Y-51065100D01*
X59440800Y-51065100D02*
X64625000Y-51065100D01*
X38870000Y-57750000D02*
X38870000Y-58605300D01*
X40180000Y-57750000D02*
X40180000Y-58605300D01*
X40180000Y-58605300D02*
X42569700Y-58605300D01*
X42569700Y-58605300D02*
X42825000Y-58350000D01*
X39530000Y-57750000D02*
X39530000Y-56894700D01*
X39530000Y-56894700D02*
X41780300Y-56894700D01*
X41780300Y-56894700D02*
X42825000Y-55850000D01*
X38220000Y-58605300D02*
X38991900Y-59377200D01*
X39828100Y-59827500D02*
X45737900Y-59827500D01*
X45737900Y-59827500D02*
X46188200Y-59377200D01*
X46188200Y-59377200D02*
X48230000Y-59377200D01*
X48230000Y-59377200D02*
X50007200Y-57600000D01*
X50007200Y-57600000D02*
X65175000Y-57600000D01*
X65175000Y-57600000D02*
X66200000Y-56575000D01*
X38220000Y-57750000D02*
X38220000Y-58605300D01*
X66200000Y-56575000D02*
X66913300Y-57288300D01*
X66913300Y-57288300D02*
X77521300Y-57288300D01*
X77521300Y-57288300D02*
X79385600Y-55424000D01*
X79385600Y-55424000D02*
X79385600Y-54259000D01*
X79385600Y-54259000D02*
X76077400Y-50950800D01*
X76077400Y-50950800D02*
X73383400Y-50950800D01*
X73383400Y-50950800D02*
X72387500Y-49954900D01*
X72387500Y-49954900D02*
X72387500Y-46941300D01*
X39377800Y-59377200D02*
X39828100Y-59827500D01*
X38991900Y-59377200D02*
X39377800Y-59377200D01*
X71550000Y-54850000D02*
X71550000Y-50865300D01*
X71550000Y-50865300D02*
X67626500Y-46941800D01*
X78050000Y-54850000D02*
X71550000Y-54850000D01*
X88986600Y-35293400D02*
X87780000Y-36500000D01*
X90817100Y-35293400D02*
X88986600Y-35293400D01*
X91495400Y-35971700D02*
X90817100Y-35293400D01*
X91495400Y-36987200D02*
X91495400Y-35971700D01*
X88943500Y-39539100D02*
X91495400Y-36987200D01*
X81121400Y-39539100D02*
X88943500Y-39539100D01*
X77350000Y-43400000D02*
X77350000Y-43400000D01*
X77350000Y-43400000D02*
X81121400Y-39539100D01*
X53509600Y-38604200D02*
X53891600Y-38986200D01*
X53891600Y-38986200D02*
X75198600Y-38986200D01*
X78313800Y-38986200D02*
X78350000Y-38950000D01*
X75198600Y-38986200D02*
X78313800Y-38986200D01*
X68800000Y-56375000D02*
X69876800Y-55298200D01*
X69876800Y-55298200D02*
X69876800Y-53651800D01*
X69876800Y-53651800D02*
X68800000Y-52575000D01*
X60100000Y-52100000D02*
X63675000Y-52100000D01*
X59750000Y-52100000D02*
X60100000Y-52100000D01*
X60100000Y-52100000D02*
X60100000Y-56575000D01*
X34626998Y-50100000D02*
X34800000Y-50100000D01*
X32626998Y-48100000D02*
X34626998Y-50100000D01*
X31560000Y-48100000D02*
X32626998Y-48100000D01*
X32950000Y-47450000D02*
X33600000Y-48000000D01*
X31560000Y-47450000D02*
X32950000Y-47450000D01*
X33600000Y-48000000D02*
X33600000Y-48000000D01*
X58800000Y-54100000D02*
X55825000Y-54100000D01*
X68800000Y-54625000D02*
X68250000Y-54625000D01*
X65725000Y-52100000D02*
X65716500Y-52091500D01*
X65716500Y-52091500D02*
X65716500Y-50790100D01*
X68250000Y-54625000D02*
X65725000Y-52100000D01*
X71068400Y-43776800D02*
X71466900Y-44175300D01*
X71466900Y-44175300D02*
X83281400Y-44175300D01*
X83281400Y-44175300D02*
X84077600Y-43379100D01*
X84077600Y-43379100D02*
X85541300Y-43379100D01*
X85541300Y-43379100D02*
X92605600Y-50443400D01*
X92605600Y-50443400D02*
X92605600Y-50661500D01*
X50725000Y-54100000D02*
X46253300Y-49628300D01*
X46253300Y-49628300D02*
X43963000Y-49628300D01*
X50725000Y-54100000D02*
X53775000Y-54100000D01*
X38960000Y-54200000D02*
X38030000Y-54200000D01*
X39530000Y-55550000D02*
X39530000Y-54770000D01*
X39530000Y-54770000D02*
X38960000Y-54200000D01*
D27*
X36862500Y-53032500D02*
X36862500Y-52750000D01*
D26*
X38030000Y-54200000D02*
X37100000Y-54200000D01*
D27*
X36860000Y-49840000D02*
X36860000Y-51960000D01*
D26*
X45450000Y-50950000D02*
X45450000Y-50950000D01*
X45475390Y-50974610D02*
X48700000Y-54100000D01*
X45450000Y-50950000D02*
X45475390Y-50974610D01*
X75500000Y-37611798D02*
X77388202Y-37611798D01*
X77388202Y-37611798D02*
X77550000Y-37450000D01*
X38600000Y-47425000D02*
X41225000Y-44800000D01*
X41225000Y-44800000D02*
X53800000Y-44800000D01*
X53800000Y-44800000D02*
X53800000Y-44800000D01*
X71156991Y-44501801D02*
X71805190Y-45150000D01*
X68393089Y-44501801D02*
X71156991Y-44501801D01*
X65044890Y-47850000D02*
X68393089Y-44501801D01*
X59550000Y-47850000D02*
X65044890Y-47850000D01*
X71805190Y-45150000D02*
X78400000Y-45150000D01*
X78400000Y-45150000D02*
X78400000Y-45150000D01*
D28*
X95613050Y-34718979D02*
X95914178Y-34809895D01*
X96191907Y-34957566D01*
X96259738Y-35012887D01*
X96250000Y-35011928D01*
X95685750Y-35015000D01*
X95527000Y-35173750D01*
X95527000Y-36373000D01*
X96726250Y-36373000D01*
X96885000Y-36214250D01*
X96885928Y-36043771D01*
X96915001Y-36320380D01*
X96915000Y-59366496D01*
X96881020Y-59713052D01*
X96790104Y-60014178D01*
X96642432Y-60291910D01*
X96443626Y-60535669D01*
X96201257Y-60736174D01*
X95924566Y-60885781D01*
X95624075Y-60978798D01*
X95279628Y-61015001D01*
X86609800Y-61015001D01*
X89120306Y-58504495D01*
X92615000Y-58504495D01*
X92615000Y-58895505D01*
X92691282Y-59279003D01*
X92840915Y-59640250D01*
X93058149Y-59965364D01*
X93334636Y-60241851D01*
X93659750Y-60459085D01*
X94020997Y-60608718D01*
X94404495Y-60685000D01*
X94795505Y-60685000D01*
X95179003Y-60608718D01*
X95540250Y-60459085D01*
X95865364Y-60241851D01*
X96141851Y-59965364D01*
X96359085Y-59640250D01*
X96508718Y-59279003D01*
X96585000Y-58895505D01*
X96585000Y-58504495D01*
X96508718Y-58120997D01*
X96359085Y-57759750D01*
X96141851Y-57434636D01*
X95865364Y-57158149D01*
X95540250Y-56940915D01*
X95179003Y-56791282D01*
X94795505Y-56715000D01*
X94404495Y-56715000D01*
X94020997Y-56791282D01*
X93659750Y-56940915D01*
X93334636Y-57158149D01*
X93058149Y-57434636D01*
X92840915Y-57759750D01*
X92691282Y-58120997D01*
X92615000Y-58504495D01*
X89120306Y-58504495D01*
X92189802Y-55435000D01*
X92251939Y-55435000D01*
X92451898Y-55395226D01*
X92640256Y-55317205D01*
X92809774Y-55203937D01*
X92953937Y-55059774D01*
X93067205Y-54890256D01*
X93145226Y-54701898D01*
X93185000Y-54501939D01*
X93185000Y-54298061D01*
X93145226Y-54098102D01*
X93067205Y-53909744D01*
X92953937Y-53740226D01*
X92809774Y-53596063D01*
X92640256Y-53482795D01*
X92451898Y-53404774D01*
X92251939Y-53365000D01*
X92048061Y-53365000D01*
X91848102Y-53404774D01*
X91659744Y-53482795D01*
X91490226Y-53596063D01*
X91346063Y-53740226D01*
X91232795Y-53909744D01*
X91154774Y-54098102D01*
X91115000Y-54298061D01*
X91115000Y-54360198D01*
X89859808Y-55615390D01*
X89882044Y-55536449D01*
X89914902Y-55117176D01*
X89865334Y-54699549D01*
X89735243Y-54299617D01*
X89577214Y-54003962D01*
X89261653Y-53847952D01*
X87949605Y-55160000D01*
X87963748Y-55174143D01*
X87784143Y-55353748D01*
X87770000Y-55339605D01*
X86457952Y-56651653D01*
X86613962Y-56967214D01*
X86988745Y-57158020D01*
X87393551Y-57272044D01*
X87812824Y-57304902D01*
X88218439Y-57256760D01*
X85560198Y-59915001D01*
X79592127Y-59915001D01*
X79672384Y-59608892D01*
X79674583Y-59572332D01*
X79745506Y-59630537D01*
X79855820Y-59689502D01*
X79975518Y-59725812D01*
X80100000Y-59738072D01*
X80514250Y-59735000D01*
X80673000Y-59576250D01*
X80673000Y-58652000D01*
X80927000Y-58652000D01*
X80927000Y-59576250D01*
X81085750Y-59735000D01*
X81500000Y-59738072D01*
X81624482Y-59725812D01*
X81744180Y-59689502D01*
X81854494Y-59630537D01*
X81951185Y-59551185D01*
X82030537Y-59454494D01*
X82089502Y-59344180D01*
X82125812Y-59224482D01*
X82138072Y-59100000D01*
X82135000Y-58810750D01*
X81976250Y-58652000D01*
X80927000Y-58652000D01*
X80673000Y-58652000D01*
X80653000Y-58652000D01*
X80653000Y-58398000D01*
X80673000Y-58398000D01*
X80673000Y-58378000D01*
X80927000Y-58378000D01*
X80927000Y-58398000D01*
X81976250Y-58398000D01*
X82135000Y-58239250D01*
X82138072Y-57950000D01*
X82125812Y-57825518D01*
X82089502Y-57705820D01*
X82030537Y-57595506D01*
X81951185Y-57498815D01*
X81871406Y-57433342D01*
X81877962Y-57427962D01*
X81988405Y-57293387D01*
X82070472Y-57139851D01*
X82121008Y-56973255D01*
X82138072Y-56800001D01*
X82138072Y-56149999D01*
X82121008Y-55976745D01*
X82070472Y-55810149D01*
X81988405Y-55656613D01*
X81941944Y-55600000D01*
X81988405Y-55543387D01*
X82070472Y-55389851D01*
X82121008Y-55223255D01*
X82123020Y-55202824D01*
X85625098Y-55202824D01*
X85674666Y-55620451D01*
X85804757Y-56020383D01*
X85962786Y-56316038D01*
X86278347Y-56472048D01*
X87590395Y-55160000D01*
X86278347Y-53847952D01*
X85962786Y-54003962D01*
X85771980Y-54378745D01*
X85657956Y-54783551D01*
X85625098Y-55202824D01*
X82123020Y-55202824D01*
X82138072Y-55050001D01*
X82138072Y-54399999D01*
X82121008Y-54226745D01*
X82070472Y-54060149D01*
X81988405Y-53906613D01*
X81877962Y-53772038D01*
X81790184Y-53700000D01*
X81828753Y-53668347D01*
X86457952Y-53668347D01*
X87770000Y-54980395D01*
X89082048Y-53668347D01*
X88926038Y-53352786D01*
X88551255Y-53161980D01*
X88146449Y-53047956D01*
X87727176Y-53015098D01*
X87309549Y-53064666D01*
X86909617Y-53194757D01*
X86613962Y-53352786D01*
X86457952Y-53668347D01*
X81828753Y-53668347D01*
X81877962Y-53627962D01*
X81988405Y-53493387D01*
X82070472Y-53339851D01*
X82121008Y-53173255D01*
X82138072Y-53000001D01*
X82138072Y-52349999D01*
X82121008Y-52176745D01*
X82070472Y-52010149D01*
X81988405Y-51856613D01*
X81877962Y-51722038D01*
X81743387Y-51611595D01*
X81589851Y-51529528D01*
X81423255Y-51478992D01*
X81250001Y-51461928D01*
X80661730Y-51461928D01*
X78480104Y-49280303D01*
X78456301Y-49251299D01*
X78340576Y-49156326D01*
X78208547Y-49085754D01*
X78065286Y-49042297D01*
X77953633Y-49031300D01*
X77953622Y-49031300D01*
X77916300Y-49027624D01*
X77878978Y-49031300D01*
X73962011Y-49031300D01*
X73918074Y-48987363D01*
X73748556Y-48874095D01*
X73560198Y-48796074D01*
X73360239Y-48756300D01*
X73156361Y-48756300D01*
X73147500Y-48758063D01*
X73147500Y-47645011D01*
X73191437Y-47601074D01*
X73304705Y-47431556D01*
X73382726Y-47243198D01*
X73422500Y-47043239D01*
X73422500Y-46893589D01*
X83715000Y-46893589D01*
X83715000Y-47166411D01*
X83768225Y-47433989D01*
X83872629Y-47686043D01*
X84024201Y-47912886D01*
X84156315Y-48045000D01*
X84024201Y-48177114D01*
X83872629Y-48403957D01*
X83768225Y-48656011D01*
X83715000Y-48923589D01*
X83715000Y-49196411D01*
X83768225Y-49463989D01*
X83872629Y-49716043D01*
X84024201Y-49942886D01*
X84217114Y-50135799D01*
X84443957Y-50287371D01*
X84546873Y-50330000D01*
X84443957Y-50372629D01*
X84217114Y-50524201D01*
X84024201Y-50717114D01*
X83872629Y-50943957D01*
X83768225Y-51196011D01*
X83715000Y-51463589D01*
X83715000Y-51736411D01*
X83768225Y-52003989D01*
X83872629Y-52256043D01*
X84024201Y-52482886D01*
X84217114Y-52675799D01*
X84443957Y-52827371D01*
X84696011Y-52931775D01*
X84963589Y-52985000D01*
X85236411Y-52985000D01*
X85503989Y-52931775D01*
X85756043Y-52827371D01*
X85982886Y-52675799D01*
X86175799Y-52482886D01*
X86327371Y-52256043D01*
X86431775Y-52003989D01*
X86485000Y-51736411D01*
X86485000Y-51463589D01*
X86431775Y-51196011D01*
X86327371Y-50943957D01*
X86175799Y-50717114D01*
X85982886Y-50524201D01*
X85756043Y-50372629D01*
X85653127Y-50330000D01*
X85756043Y-50287371D01*
X85982886Y-50135799D01*
X86175799Y-49942886D01*
X86327371Y-49716043D01*
X86431775Y-49463989D01*
X86485000Y-49196411D01*
X86485000Y-48923589D01*
X86431775Y-48656011D01*
X86327371Y-48403957D01*
X86175799Y-48177114D01*
X86043685Y-48045000D01*
X86175799Y-47912886D01*
X86327371Y-47686043D01*
X86431775Y-47433989D01*
X86485000Y-47166411D01*
X86485000Y-46893589D01*
X86431775Y-46626011D01*
X86327371Y-46373957D01*
X86175799Y-46147114D01*
X85982886Y-45954201D01*
X85756043Y-45802629D01*
X85656721Y-45761489D01*
X85698832Y-45746277D01*
X85811863Y-45685860D01*
X85877388Y-45446993D01*
X85100000Y-44669605D01*
X84322612Y-45446993D01*
X84388137Y-45685860D01*
X84546477Y-45760164D01*
X84443957Y-45802629D01*
X84217114Y-45954201D01*
X84024201Y-46147114D01*
X83872629Y-46373957D01*
X83768225Y-46626011D01*
X83715000Y-46893589D01*
X73422500Y-46893589D01*
X73422500Y-46839361D01*
X73382726Y-46639402D01*
X73304705Y-46451044D01*
X73191437Y-46281526D01*
X73047274Y-46137363D01*
X72877756Y-46024095D01*
X72689398Y-45946074D01*
X72508040Y-45910000D01*
X77696289Y-45910000D01*
X77740226Y-45953937D01*
X77909744Y-46067205D01*
X78098102Y-46145226D01*
X78298061Y-46185000D01*
X78501939Y-46185000D01*
X78701898Y-46145226D01*
X78890256Y-46067205D01*
X79059774Y-45953937D01*
X79203937Y-45809774D01*
X79317205Y-45640256D01*
X79395226Y-45451898D01*
X79435000Y-45251939D01*
X79435000Y-45048061D01*
X79412571Y-44935300D01*
X83244078Y-44935300D01*
X83281400Y-44938976D01*
X83318722Y-44935300D01*
X83318733Y-44935300D01*
X83430386Y-44924303D01*
X83573647Y-44880846D01*
X83705676Y-44810274D01*
X83743063Y-44779591D01*
X83751035Y-44832238D01*
X83843723Y-45088832D01*
X83904140Y-45201863D01*
X84143007Y-45267388D01*
X84920395Y-44490000D01*
X84906253Y-44475858D01*
X85085858Y-44296253D01*
X85100000Y-44310395D01*
X85114143Y-44296253D01*
X85293748Y-44475858D01*
X85279605Y-44490000D01*
X86056993Y-45267388D01*
X86290682Y-45203283D01*
X91583269Y-50495871D01*
X91570600Y-50559561D01*
X91570600Y-50763439D01*
X91610374Y-50963398D01*
X91688395Y-51151756D01*
X91801663Y-51321274D01*
X91945826Y-51465437D01*
X92115344Y-51578705D01*
X92303702Y-51656726D01*
X92503661Y-51696500D01*
X92707539Y-51696500D01*
X92907498Y-51656726D01*
X93095856Y-51578705D01*
X93265374Y-51465437D01*
X93409537Y-51321274D01*
X93522805Y-51151756D01*
X93600826Y-50963398D01*
X93640600Y-50763439D01*
X93640600Y-50559561D01*
X93600826Y-50359602D01*
X93522805Y-50171244D01*
X93409537Y-50001726D01*
X93265374Y-49857563D01*
X93095856Y-49744295D01*
X92907498Y-49666274D01*
X92902228Y-49665226D01*
X86168655Y-42931653D01*
X86457952Y-42931653D01*
X86613962Y-43247214D01*
X86988745Y-43438020D01*
X87393551Y-43552044D01*
X87812824Y-43584902D01*
X88230451Y-43535334D01*
X88630383Y-43405243D01*
X88926038Y-43247214D01*
X89082048Y-42931653D01*
X87770000Y-41619605D01*
X86457952Y-42931653D01*
X86168655Y-42931653D01*
X86105104Y-42868103D01*
X86081301Y-42839099D01*
X85965576Y-42744126D01*
X85833547Y-42673554D01*
X85690286Y-42630097D01*
X85578633Y-42619100D01*
X85578622Y-42619100D01*
X85541300Y-42615424D01*
X85503978Y-42619100D01*
X84114923Y-42619100D01*
X84077600Y-42615424D01*
X84040277Y-42619100D01*
X84040267Y-42619100D01*
X83928614Y-42630097D01*
X83785353Y-42673554D01*
X83653324Y-42744126D01*
X83537599Y-42839099D01*
X83513801Y-42868098D01*
X82966599Y-43415300D01*
X78397471Y-43415300D01*
X81441435Y-40299100D01*
X85955079Y-40299100D01*
X85771980Y-40658745D01*
X85657956Y-41063551D01*
X85625098Y-41482824D01*
X85674666Y-41900451D01*
X85804757Y-42300383D01*
X85962786Y-42596038D01*
X86278347Y-42752048D01*
X87590395Y-41440000D01*
X87576253Y-41425858D01*
X87755858Y-41246253D01*
X87770000Y-41260395D01*
X87784143Y-41246253D01*
X87963748Y-41425858D01*
X87949605Y-41440000D01*
X89261653Y-42752048D01*
X89577214Y-42596038D01*
X89768020Y-42221255D01*
X89882044Y-41816449D01*
X89914902Y-41397176D01*
X89865334Y-40979549D01*
X89735243Y-40579617D01*
X89577214Y-40283962D01*
X89361610Y-40177370D01*
X89367776Y-40174074D01*
X89483501Y-40079101D01*
X89507304Y-40050097D01*
X91917056Y-37640346D01*
X92093080Y-37771641D01*
X92355901Y-37896825D01*
X92503110Y-37941476D01*
X92733000Y-37820155D01*
X92733000Y-36627000D01*
X92987000Y-36627000D01*
X92987000Y-37820155D01*
X93216890Y-37941476D01*
X93364099Y-37896825D01*
X93626920Y-37771641D01*
X93860269Y-37597588D01*
X93936034Y-37513534D01*
X93960498Y-37594180D01*
X94019463Y-37704494D01*
X94098815Y-37801185D01*
X94195506Y-37880537D01*
X94305820Y-37939502D01*
X94425518Y-37975812D01*
X94550000Y-37988072D01*
X95114250Y-37985000D01*
X95273000Y-37826250D01*
X95273000Y-36627000D01*
X95527000Y-36627000D01*
X95527000Y-37826250D01*
X95685750Y-37985000D01*
X96250000Y-37988072D01*
X96374482Y-37975812D01*
X96494180Y-37939502D01*
X96604494Y-37880537D01*
X96701185Y-37801185D01*
X96780537Y-37704494D01*
X96839502Y-37594180D01*
X96875812Y-37474482D01*
X96888072Y-37350000D01*
X96885000Y-36785750D01*
X96726250Y-36627000D01*
X95527000Y-36627000D01*
X95273000Y-36627000D01*
X92987000Y-36627000D01*
X92733000Y-36627000D01*
X92713000Y-36627000D01*
X92713000Y-36373000D01*
X92733000Y-36373000D01*
X92733000Y-35179845D01*
X92987000Y-35179845D01*
X92987000Y-36373000D01*
X95273000Y-36373000D01*
X95273000Y-35173750D01*
X95114250Y-35015000D01*
X94550000Y-35011928D01*
X94425518Y-35024188D01*
X94305820Y-35060498D01*
X94195506Y-35119463D01*
X94098815Y-35198815D01*
X94019463Y-35295506D01*
X93960498Y-35405820D01*
X93936034Y-35486466D01*
X93860269Y-35402412D01*
X93626920Y-35228359D01*
X93364099Y-35103175D01*
X93216890Y-35058524D01*
X92987000Y-35179845D01*
X92733000Y-35179845D01*
X92503110Y-35058524D01*
X92355901Y-35103175D01*
X92093080Y-35228359D01*
X91940597Y-35342095D01*
X91380903Y-34782402D01*
X91357101Y-34753399D01*
X91273755Y-34684999D01*
X95266495Y-34684999D01*
X95613050Y-34718979D01*
G04 #@! TA.AperFunction,Conductor*
D29*
G36*
X95613050Y-34718979D02*
G01*
X95914178Y-34809895D01*
X96191907Y-34957566D01*
X96259738Y-35012887D01*
X96250000Y-35011928D01*
X95685750Y-35015000D01*
X95527000Y-35173750D01*
X95527000Y-36373000D01*
X96726250Y-36373000D01*
X96885000Y-36214250D01*
X96885928Y-36043771D01*
X96915001Y-36320380D01*
X96915000Y-59366496D01*
X96881020Y-59713052D01*
X96790104Y-60014178D01*
X96642432Y-60291910D01*
X96443626Y-60535669D01*
X96201257Y-60736174D01*
X95924566Y-60885781D01*
X95624075Y-60978798D01*
X95279628Y-61015001D01*
X86609800Y-61015001D01*
X89120306Y-58504495D01*
X92615000Y-58504495D01*
X92615000Y-58895505D01*
X92691282Y-59279003D01*
X92840915Y-59640250D01*
X93058149Y-59965364D01*
X93334636Y-60241851D01*
X93659750Y-60459085D01*
X94020997Y-60608718D01*
X94404495Y-60685000D01*
X94795505Y-60685000D01*
X95179003Y-60608718D01*
X95540250Y-60459085D01*
X95865364Y-60241851D01*
X96141851Y-59965364D01*
X96359085Y-59640250D01*
X96508718Y-59279003D01*
X96585000Y-58895505D01*
X96585000Y-58504495D01*
X96508718Y-58120997D01*
X96359085Y-57759750D01*
X96141851Y-57434636D01*
X95865364Y-57158149D01*
X95540250Y-56940915D01*
X95179003Y-56791282D01*
X94795505Y-56715000D01*
X94404495Y-56715000D01*
X94020997Y-56791282D01*
X93659750Y-56940915D01*
X93334636Y-57158149D01*
X93058149Y-57434636D01*
X92840915Y-57759750D01*
X92691282Y-58120997D01*
X92615000Y-58504495D01*
X89120306Y-58504495D01*
X92189802Y-55435000D01*
X92251939Y-55435000D01*
X92451898Y-55395226D01*
X92640256Y-55317205D01*
X92809774Y-55203937D01*
X92953937Y-55059774D01*
X93067205Y-54890256D01*
X93145226Y-54701898D01*
X93185000Y-54501939D01*
X93185000Y-54298061D01*
X93145226Y-54098102D01*
X93067205Y-53909744D01*
X92953937Y-53740226D01*
X92809774Y-53596063D01*
X92640256Y-53482795D01*
X92451898Y-53404774D01*
X92251939Y-53365000D01*
X92048061Y-53365000D01*
X91848102Y-53404774D01*
X91659744Y-53482795D01*
X91490226Y-53596063D01*
X91346063Y-53740226D01*
X91232795Y-53909744D01*
X91154774Y-54098102D01*
X91115000Y-54298061D01*
X91115000Y-54360198D01*
X89859808Y-55615390D01*
X89882044Y-55536449D01*
X89914902Y-55117176D01*
X89865334Y-54699549D01*
X89735243Y-54299617D01*
X89577214Y-54003962D01*
X89261653Y-53847952D01*
X87949605Y-55160000D01*
X87963748Y-55174143D01*
X87784143Y-55353748D01*
X87770000Y-55339605D01*
X86457952Y-56651653D01*
X86613962Y-56967214D01*
X86988745Y-57158020D01*
X87393551Y-57272044D01*
X87812824Y-57304902D01*
X88218439Y-57256760D01*
X85560198Y-59915001D01*
X79592127Y-59915001D01*
X79672384Y-59608892D01*
X79674583Y-59572332D01*
X79745506Y-59630537D01*
X79855820Y-59689502D01*
X79975518Y-59725812D01*
X80100000Y-59738072D01*
X80514250Y-59735000D01*
X80673000Y-59576250D01*
X80673000Y-58652000D01*
X80927000Y-58652000D01*
X80927000Y-59576250D01*
X81085750Y-59735000D01*
X81500000Y-59738072D01*
X81624482Y-59725812D01*
X81744180Y-59689502D01*
X81854494Y-59630537D01*
X81951185Y-59551185D01*
X82030537Y-59454494D01*
X82089502Y-59344180D01*
X82125812Y-59224482D01*
X82138072Y-59100000D01*
X82135000Y-58810750D01*
X81976250Y-58652000D01*
X80927000Y-58652000D01*
X80673000Y-58652000D01*
X80653000Y-58652000D01*
X80653000Y-58398000D01*
X80673000Y-58398000D01*
X80673000Y-58378000D01*
X80927000Y-58378000D01*
X80927000Y-58398000D01*
X81976250Y-58398000D01*
X82135000Y-58239250D01*
X82138072Y-57950000D01*
X82125812Y-57825518D01*
X82089502Y-57705820D01*
X82030537Y-57595506D01*
X81951185Y-57498815D01*
X81871406Y-57433342D01*
X81877962Y-57427962D01*
X81988405Y-57293387D01*
X82070472Y-57139851D01*
X82121008Y-56973255D01*
X82138072Y-56800001D01*
X82138072Y-56149999D01*
X82121008Y-55976745D01*
X82070472Y-55810149D01*
X81988405Y-55656613D01*
X81941944Y-55600000D01*
X81988405Y-55543387D01*
X82070472Y-55389851D01*
X82121008Y-55223255D01*
X82123020Y-55202824D01*
X85625098Y-55202824D01*
X85674666Y-55620451D01*
X85804757Y-56020383D01*
X85962786Y-56316038D01*
X86278347Y-56472048D01*
X87590395Y-55160000D01*
X86278347Y-53847952D01*
X85962786Y-54003962D01*
X85771980Y-54378745D01*
X85657956Y-54783551D01*
X85625098Y-55202824D01*
X82123020Y-55202824D01*
X82138072Y-55050001D01*
X82138072Y-54399999D01*
X82121008Y-54226745D01*
X82070472Y-54060149D01*
X81988405Y-53906613D01*
X81877962Y-53772038D01*
X81790184Y-53700000D01*
X81828753Y-53668347D01*
X86457952Y-53668347D01*
X87770000Y-54980395D01*
X89082048Y-53668347D01*
X88926038Y-53352786D01*
X88551255Y-53161980D01*
X88146449Y-53047956D01*
X87727176Y-53015098D01*
X87309549Y-53064666D01*
X86909617Y-53194757D01*
X86613962Y-53352786D01*
X86457952Y-53668347D01*
X81828753Y-53668347D01*
X81877962Y-53627962D01*
X81988405Y-53493387D01*
X82070472Y-53339851D01*
X82121008Y-53173255D01*
X82138072Y-53000001D01*
X82138072Y-52349999D01*
X82121008Y-52176745D01*
X82070472Y-52010149D01*
X81988405Y-51856613D01*
X81877962Y-51722038D01*
X81743387Y-51611595D01*
X81589851Y-51529528D01*
X81423255Y-51478992D01*
X81250001Y-51461928D01*
X80661730Y-51461928D01*
X78480104Y-49280303D01*
X78456301Y-49251299D01*
X78340576Y-49156326D01*
X78208547Y-49085754D01*
X78065286Y-49042297D01*
X77953633Y-49031300D01*
X77953622Y-49031300D01*
X77916300Y-49027624D01*
X77878978Y-49031300D01*
X73962011Y-49031300D01*
X73918074Y-48987363D01*
X73748556Y-48874095D01*
X73560198Y-48796074D01*
X73360239Y-48756300D01*
X73156361Y-48756300D01*
X73147500Y-48758063D01*
X73147500Y-47645011D01*
X73191437Y-47601074D01*
X73304705Y-47431556D01*
X73382726Y-47243198D01*
X73422500Y-47043239D01*
X73422500Y-46893589D01*
X83715000Y-46893589D01*
X83715000Y-47166411D01*
X83768225Y-47433989D01*
X83872629Y-47686043D01*
X84024201Y-47912886D01*
X84156315Y-48045000D01*
X84024201Y-48177114D01*
X83872629Y-48403957D01*
X83768225Y-48656011D01*
X83715000Y-48923589D01*
X83715000Y-49196411D01*
X83768225Y-49463989D01*
X83872629Y-49716043D01*
X84024201Y-49942886D01*
X84217114Y-50135799D01*
X84443957Y-50287371D01*
X84546873Y-50330000D01*
X84443957Y-50372629D01*
X84217114Y-50524201D01*
X84024201Y-50717114D01*
X83872629Y-50943957D01*
X83768225Y-51196011D01*
X83715000Y-51463589D01*
X83715000Y-51736411D01*
X83768225Y-52003989D01*
X83872629Y-52256043D01*
X84024201Y-52482886D01*
X84217114Y-52675799D01*
X84443957Y-52827371D01*
X84696011Y-52931775D01*
X84963589Y-52985000D01*
X85236411Y-52985000D01*
X85503989Y-52931775D01*
X85756043Y-52827371D01*
X85982886Y-52675799D01*
X86175799Y-52482886D01*
X86327371Y-52256043D01*
X86431775Y-52003989D01*
X86485000Y-51736411D01*
X86485000Y-51463589D01*
X86431775Y-51196011D01*
X86327371Y-50943957D01*
X86175799Y-50717114D01*
X85982886Y-50524201D01*
X85756043Y-50372629D01*
X85653127Y-50330000D01*
X85756043Y-50287371D01*
X85982886Y-50135799D01*
X86175799Y-49942886D01*
X86327371Y-49716043D01*
X86431775Y-49463989D01*
X86485000Y-49196411D01*
X86485000Y-48923589D01*
X86431775Y-48656011D01*
X86327371Y-48403957D01*
X86175799Y-48177114D01*
X86043685Y-48045000D01*
X86175799Y-47912886D01*
X86327371Y-47686043D01*
X86431775Y-47433989D01*
X86485000Y-47166411D01*
X86485000Y-46893589D01*
X86431775Y-46626011D01*
X86327371Y-46373957D01*
X86175799Y-46147114D01*
X85982886Y-45954201D01*
X85756043Y-45802629D01*
X85656721Y-45761489D01*
X85698832Y-45746277D01*
X85811863Y-45685860D01*
X85877388Y-45446993D01*
X85100000Y-44669605D01*
X84322612Y-45446993D01*
X84388137Y-45685860D01*
X84546477Y-45760164D01*
X84443957Y-45802629D01*
X84217114Y-45954201D01*
X84024201Y-46147114D01*
X83872629Y-46373957D01*
X83768225Y-46626011D01*
X83715000Y-46893589D01*
X73422500Y-46893589D01*
X73422500Y-46839361D01*
X73382726Y-46639402D01*
X73304705Y-46451044D01*
X73191437Y-46281526D01*
X73047274Y-46137363D01*
X72877756Y-46024095D01*
X72689398Y-45946074D01*
X72508040Y-45910000D01*
X77696289Y-45910000D01*
X77740226Y-45953937D01*
X77909744Y-46067205D01*
X78098102Y-46145226D01*
X78298061Y-46185000D01*
X78501939Y-46185000D01*
X78701898Y-46145226D01*
X78890256Y-46067205D01*
X79059774Y-45953937D01*
X79203937Y-45809774D01*
X79317205Y-45640256D01*
X79395226Y-45451898D01*
X79435000Y-45251939D01*
X79435000Y-45048061D01*
X79412571Y-44935300D01*
X83244078Y-44935300D01*
X83281400Y-44938976D01*
X83318722Y-44935300D01*
X83318733Y-44935300D01*
X83430386Y-44924303D01*
X83573647Y-44880846D01*
X83705676Y-44810274D01*
X83743063Y-44779591D01*
X83751035Y-44832238D01*
X83843723Y-45088832D01*
X83904140Y-45201863D01*
X84143007Y-45267388D01*
X84920395Y-44490000D01*
X84906253Y-44475858D01*
X85085858Y-44296253D01*
X85100000Y-44310395D01*
X85114143Y-44296253D01*
X85293748Y-44475858D01*
X85279605Y-44490000D01*
X86056993Y-45267388D01*
X86290682Y-45203283D01*
X91583269Y-50495871D01*
X91570600Y-50559561D01*
X91570600Y-50763439D01*
X91610374Y-50963398D01*
X91688395Y-51151756D01*
X91801663Y-51321274D01*
X91945826Y-51465437D01*
X92115344Y-51578705D01*
X92303702Y-51656726D01*
X92503661Y-51696500D01*
X92707539Y-51696500D01*
X92907498Y-51656726D01*
X93095856Y-51578705D01*
X93265374Y-51465437D01*
X93409537Y-51321274D01*
X93522805Y-51151756D01*
X93600826Y-50963398D01*
X93640600Y-50763439D01*
X93640600Y-50559561D01*
X93600826Y-50359602D01*
X93522805Y-50171244D01*
X93409537Y-50001726D01*
X93265374Y-49857563D01*
X93095856Y-49744295D01*
X92907498Y-49666274D01*
X92902228Y-49665226D01*
X86168655Y-42931653D01*
X86457952Y-42931653D01*
X86613962Y-43247214D01*
X86988745Y-43438020D01*
X87393551Y-43552044D01*
X87812824Y-43584902D01*
X88230451Y-43535334D01*
X88630383Y-43405243D01*
X88926038Y-43247214D01*
X89082048Y-42931653D01*
X87770000Y-41619605D01*
X86457952Y-42931653D01*
X86168655Y-42931653D01*
X86105104Y-42868103D01*
X86081301Y-42839099D01*
X85965576Y-42744126D01*
X85833547Y-42673554D01*
X85690286Y-42630097D01*
X85578633Y-42619100D01*
X85578622Y-42619100D01*
X85541300Y-42615424D01*
X85503978Y-42619100D01*
X84114923Y-42619100D01*
X84077600Y-42615424D01*
X84040277Y-42619100D01*
X84040267Y-42619100D01*
X83928614Y-42630097D01*
X83785353Y-42673554D01*
X83653324Y-42744126D01*
X83537599Y-42839099D01*
X83513801Y-42868098D01*
X82966599Y-43415300D01*
X78397471Y-43415300D01*
X81441435Y-40299100D01*
X85955079Y-40299100D01*
X85771980Y-40658745D01*
X85657956Y-41063551D01*
X85625098Y-41482824D01*
X85674666Y-41900451D01*
X85804757Y-42300383D01*
X85962786Y-42596038D01*
X86278347Y-42752048D01*
X87590395Y-41440000D01*
X87576253Y-41425858D01*
X87755858Y-41246253D01*
X87770000Y-41260395D01*
X87784143Y-41246253D01*
X87963748Y-41425858D01*
X87949605Y-41440000D01*
X89261653Y-42752048D01*
X89577214Y-42596038D01*
X89768020Y-42221255D01*
X89882044Y-41816449D01*
X89914902Y-41397176D01*
X89865334Y-40979549D01*
X89735243Y-40579617D01*
X89577214Y-40283962D01*
X89361610Y-40177370D01*
X89367776Y-40174074D01*
X89483501Y-40079101D01*
X89507304Y-40050097D01*
X91917056Y-37640346D01*
X92093080Y-37771641D01*
X92355901Y-37896825D01*
X92503110Y-37941476D01*
X92733000Y-37820155D01*
X92733000Y-36627000D01*
X92987000Y-36627000D01*
X92987000Y-37820155D01*
X93216890Y-37941476D01*
X93364099Y-37896825D01*
X93626920Y-37771641D01*
X93860269Y-37597588D01*
X93936034Y-37513534D01*
X93960498Y-37594180D01*
X94019463Y-37704494D01*
X94098815Y-37801185D01*
X94195506Y-37880537D01*
X94305820Y-37939502D01*
X94425518Y-37975812D01*
X94550000Y-37988072D01*
X95114250Y-37985000D01*
X95273000Y-37826250D01*
X95273000Y-36627000D01*
X95527000Y-36627000D01*
X95527000Y-37826250D01*
X95685750Y-37985000D01*
X96250000Y-37988072D01*
X96374482Y-37975812D01*
X96494180Y-37939502D01*
X96604494Y-37880537D01*
X96701185Y-37801185D01*
X96780537Y-37704494D01*
X96839502Y-37594180D01*
X96875812Y-37474482D01*
X96888072Y-37350000D01*
X96885000Y-36785750D01*
X96726250Y-36627000D01*
X95527000Y-36627000D01*
X95273000Y-36627000D01*
X92987000Y-36627000D01*
X92733000Y-36627000D01*
X92713000Y-36627000D01*
X92713000Y-36373000D01*
X92733000Y-36373000D01*
X92733000Y-35179845D01*
X92987000Y-35179845D01*
X92987000Y-36373000D01*
X95273000Y-36373000D01*
X95273000Y-35173750D01*
X95114250Y-35015000D01*
X94550000Y-35011928D01*
X94425518Y-35024188D01*
X94305820Y-35060498D01*
X94195506Y-35119463D01*
X94098815Y-35198815D01*
X94019463Y-35295506D01*
X93960498Y-35405820D01*
X93936034Y-35486466D01*
X93860269Y-35402412D01*
X93626920Y-35228359D01*
X93364099Y-35103175D01*
X93216890Y-35058524D01*
X92987000Y-35179845D01*
X92733000Y-35179845D01*
X92503110Y-35058524D01*
X92355901Y-35103175D01*
X92093080Y-35228359D01*
X91940597Y-35342095D01*
X91380903Y-34782402D01*
X91357101Y-34753399D01*
X91273755Y-34684999D01*
X95266495Y-34684999D01*
X95613050Y-34718979D01*
G37*
G04 #@! TD.AperFunction*
D28*
X63883713Y-34752576D02*
X63770445Y-34922094D01*
X63692424Y-35110452D01*
X63652650Y-35310411D01*
X63652650Y-35514289D01*
X63692424Y-35714248D01*
X63770445Y-35902606D01*
X63883713Y-36072124D01*
X64027876Y-36216287D01*
X64197394Y-36329555D01*
X64385752Y-36407576D01*
X64585711Y-36447350D01*
X64789589Y-36447350D01*
X64989548Y-36407576D01*
X65177906Y-36329555D01*
X65347424Y-36216287D01*
X65378711Y-36185000D01*
X76330386Y-36185000D01*
X76361595Y-36243387D01*
X76472038Y-36377962D01*
X76559816Y-36450000D01*
X76472038Y-36522038D01*
X76361595Y-36656613D01*
X76279528Y-36810149D01*
X76266894Y-36851798D01*
X76203711Y-36851798D01*
X76159774Y-36807861D01*
X75990256Y-36694593D01*
X75801898Y-36616572D01*
X75601939Y-36576798D01*
X75398061Y-36576798D01*
X75198102Y-36616572D01*
X75009744Y-36694593D01*
X74840226Y-36807861D01*
X74696063Y-36952024D01*
X74582795Y-37121542D01*
X74504774Y-37309900D01*
X74465000Y-37509859D01*
X74465000Y-37713737D01*
X74504774Y-37913696D01*
X74582795Y-38102054D01*
X74606275Y-38137195D01*
X74538826Y-38182263D01*
X74494889Y-38226200D01*
X54473303Y-38226200D01*
X54426805Y-38113944D01*
X54313537Y-37944426D01*
X54169374Y-37800263D01*
X53999856Y-37686995D01*
X53811498Y-37608974D01*
X53611539Y-37569200D01*
X53407661Y-37569200D01*
X53207702Y-37608974D01*
X53019344Y-37686995D01*
X52849826Y-37800263D01*
X52705663Y-37944426D01*
X52592395Y-38113944D01*
X52514374Y-38302302D01*
X52474600Y-38502261D01*
X52474600Y-38706139D01*
X52514374Y-38906098D01*
X52592395Y-39094456D01*
X52639264Y-39164600D01*
X49961922Y-39164600D01*
X49924599Y-39160924D01*
X49887276Y-39164600D01*
X49887267Y-39164600D01*
X49775614Y-39175597D01*
X49632353Y-39219054D01*
X49500323Y-39289626D01*
X49416683Y-39358268D01*
X49384599Y-39384599D01*
X49360801Y-39413597D01*
X47659399Y-41115000D01*
X45019614Y-41115000D01*
X44988405Y-41056613D01*
X44877962Y-40922038D01*
X44871406Y-40916658D01*
X44951185Y-40851185D01*
X45030537Y-40754494D01*
X45089502Y-40644180D01*
X45125812Y-40524482D01*
X45138072Y-40400000D01*
X45135000Y-40110750D01*
X44976250Y-39952000D01*
X43927000Y-39952000D01*
X43927000Y-39972000D01*
X43673000Y-39972000D01*
X43673000Y-39952000D01*
X42623750Y-39952000D01*
X42465000Y-40110750D01*
X42461928Y-40400000D01*
X42474188Y-40524482D01*
X42510498Y-40644180D01*
X42569463Y-40754494D01*
X42648815Y-40851185D01*
X42728594Y-40916658D01*
X42722038Y-40922038D01*
X42633622Y-41029773D01*
X42567547Y-40994454D01*
X42526824Y-40982101D01*
X42480537Y-40895506D01*
X42401185Y-40798815D01*
X42304494Y-40719463D01*
X42194180Y-40660498D01*
X42074482Y-40624188D01*
X41950000Y-40611928D01*
X41438095Y-40611928D01*
X41451185Y-40601185D01*
X41530537Y-40504494D01*
X41589502Y-40394180D01*
X41625812Y-40274482D01*
X41638072Y-40150000D01*
X41638072Y-39250000D01*
X42461928Y-39250000D01*
X42465000Y-39539250D01*
X42623750Y-39698000D01*
X43673000Y-39698000D01*
X43673000Y-38773750D01*
X43927000Y-38773750D01*
X43927000Y-39698000D01*
X44976250Y-39698000D01*
X45135000Y-39539250D01*
X45138072Y-39250000D01*
X45125812Y-39125518D01*
X45089502Y-39005820D01*
X45030537Y-38895506D01*
X44951185Y-38798815D01*
X44854494Y-38719463D01*
X44744180Y-38660498D01*
X44624482Y-38624188D01*
X44500000Y-38611928D01*
X44085750Y-38615000D01*
X43927000Y-38773750D01*
X43673000Y-38773750D01*
X43514250Y-38615000D01*
X43100000Y-38611928D01*
X42975518Y-38624188D01*
X42855820Y-38660498D01*
X42745506Y-38719463D01*
X42648815Y-38798815D01*
X42569463Y-38895506D01*
X42510498Y-39005820D01*
X42474188Y-39125518D01*
X42461928Y-39250000D01*
X41638072Y-39250000D01*
X41625812Y-39125518D01*
X41589502Y-39005820D01*
X41530537Y-38895506D01*
X41451185Y-38798815D01*
X41354494Y-38719463D01*
X41244180Y-38660498D01*
X41124482Y-38624188D01*
X41000000Y-38611928D01*
X40200000Y-38611928D01*
X40075518Y-38624188D01*
X39955820Y-38660498D01*
X39845506Y-38719463D01*
X39748815Y-38798815D01*
X39669463Y-38895506D01*
X39645680Y-38940000D01*
X38862322Y-38940000D01*
X38824999Y-38936324D01*
X38787676Y-38940000D01*
X38787667Y-38940000D01*
X38676014Y-38950997D01*
X38532753Y-38994454D01*
X38400724Y-39065026D01*
X38284999Y-39159999D01*
X38261201Y-39188997D01*
X37785795Y-39664403D01*
X37788072Y-39450000D01*
X37775812Y-39325518D01*
X37739502Y-39205820D01*
X37680537Y-39095506D01*
X37601185Y-38998815D01*
X37504494Y-38919463D01*
X37394180Y-38860498D01*
X37274482Y-38824188D01*
X37150000Y-38811928D01*
X36735750Y-38815000D01*
X36577000Y-38973750D01*
X36577000Y-39898000D01*
X36597000Y-39898000D01*
X36597000Y-40152000D01*
X36577000Y-40152000D01*
X36577000Y-40172000D01*
X36323000Y-40172000D01*
X36323000Y-40152000D01*
X35273750Y-40152000D01*
X35115000Y-40310750D01*
X35111928Y-40600000D01*
X35124188Y-40724482D01*
X35160498Y-40844180D01*
X35219463Y-40954494D01*
X35298815Y-41051185D01*
X35378594Y-41116658D01*
X35372038Y-41122038D01*
X35261595Y-41256613D01*
X35179528Y-41410149D01*
X35128992Y-41576745D01*
X35111928Y-41749999D01*
X35111928Y-42400001D01*
X35128992Y-42573255D01*
X35179528Y-42739851D01*
X35261595Y-42893387D01*
X35372038Y-43027962D01*
X35506613Y-43138405D01*
X35660149Y-43220472D01*
X35734098Y-43242904D01*
X35732234Y-43573000D01*
X35650000Y-43573000D01*
X35625224Y-43575440D01*
X35601399Y-43582667D01*
X35579443Y-43594403D01*
X35560197Y-43610197D01*
X35544403Y-43629443D01*
X35532667Y-43651399D01*
X35525440Y-43675224D01*
X35523000Y-43700000D01*
X35523000Y-45489990D01*
X33344248Y-45489990D01*
X33177501Y-45506413D01*
X32963553Y-45571314D01*
X32924180Y-45592359D01*
X32927104Y-45526518D01*
X32886548Y-45261709D01*
X32795109Y-45009900D01*
X32737950Y-44902965D01*
X32501633Y-44840472D01*
X31742105Y-45600000D01*
X31756248Y-45614143D01*
X31576643Y-45793748D01*
X31562500Y-45779605D01*
X31548358Y-45793748D01*
X31368753Y-45614143D01*
X31382895Y-45600000D01*
X30623367Y-44840472D01*
X30447767Y-44886909D01*
X30449976Y-44660867D01*
X30802972Y-44660867D01*
X31562500Y-45420395D01*
X32322028Y-44660867D01*
X32259535Y-44424550D01*
X32016822Y-44311150D01*
X31756651Y-44247281D01*
X31489018Y-44235396D01*
X31224209Y-44275952D01*
X30972400Y-44367391D01*
X30865465Y-44424550D01*
X30802972Y-44660867D01*
X30449976Y-44660867D01*
X30450572Y-44600000D01*
X30447500Y-44568808D01*
X30447500Y-44472998D01*
X30437548Y-44472998D01*
X30402002Y-44355820D01*
X30382179Y-44318735D01*
X30405962Y-44282391D01*
X30402091Y-44244718D01*
X30309921Y-44019467D01*
X30175578Y-43816526D01*
X30004225Y-43643693D01*
X29802446Y-43507610D01*
X29577996Y-43413507D01*
X29339500Y-43365000D01*
X28989500Y-43365000D01*
X28989500Y-46973000D01*
X29009500Y-46973000D01*
X29009500Y-47227000D01*
X28989500Y-47227000D01*
X28989500Y-48973000D01*
X29009500Y-48973000D01*
X29009500Y-49227000D01*
X28989500Y-49227000D01*
X28989500Y-52835000D01*
X29339500Y-52835000D01*
X29577996Y-52786493D01*
X29802446Y-52692390D01*
X30004225Y-52556307D01*
X30175578Y-52383474D01*
X30309921Y-52180533D01*
X30402091Y-51955282D01*
X30405962Y-51917609D01*
X30382179Y-51881265D01*
X30402002Y-51844180D01*
X30437548Y-51727002D01*
X30447500Y-51727002D01*
X30447500Y-51631192D01*
X30450572Y-51600000D01*
X30449977Y-51539133D01*
X30802972Y-51539133D01*
X30865465Y-51775450D01*
X31108178Y-51888850D01*
X31368349Y-51952719D01*
X31635982Y-51964604D01*
X31900791Y-51924048D01*
X32152600Y-51832609D01*
X32259535Y-51775450D01*
X32322028Y-51539133D01*
X31562500Y-50779605D01*
X30802972Y-51539133D01*
X30449977Y-51539133D01*
X30447767Y-51313091D01*
X30623367Y-51359528D01*
X31382895Y-50600000D01*
X31368753Y-50585858D01*
X31548358Y-50406253D01*
X31562500Y-50420395D01*
X31576643Y-50406253D01*
X31756248Y-50585858D01*
X31742105Y-50600000D01*
X32501633Y-51359528D01*
X32737950Y-51297035D01*
X32851350Y-51054322D01*
X32915219Y-50794151D01*
X32927104Y-50526518D01*
X32886548Y-50261709D01*
X32795109Y-50009900D01*
X32766225Y-49955864D01*
X32823021Y-49853576D01*
X32861241Y-49734474D01*
X32872500Y-49631750D01*
X32767752Y-49527002D01*
X32872500Y-49527002D01*
X32872500Y-49420303D01*
X33792528Y-50340332D01*
X33804774Y-50401898D01*
X33882795Y-50590256D01*
X33996063Y-50759774D01*
X34140226Y-50903937D01*
X34309744Y-51017205D01*
X34498102Y-51095226D01*
X34698061Y-51135000D01*
X34901939Y-51135000D01*
X35101898Y-51095226D01*
X35290256Y-51017205D01*
X35459774Y-50903937D01*
X35603937Y-50759774D01*
X35717205Y-50590256D01*
X35725000Y-50571436D01*
X35725000Y-50694607D01*
X35722038Y-50697038D01*
X35611595Y-50831613D01*
X35529528Y-50985149D01*
X35478992Y-51151745D01*
X35461928Y-51324999D01*
X35461928Y-53841190D01*
X35400605Y-53693144D01*
X35287337Y-53523626D01*
X35143174Y-53379463D01*
X34973656Y-53266195D01*
X34785298Y-53188174D01*
X34585339Y-53148400D01*
X34381461Y-53148400D01*
X34181502Y-53188174D01*
X33993144Y-53266195D01*
X33823626Y-53379463D01*
X33679463Y-53523626D01*
X33566195Y-53693144D01*
X33488174Y-53881502D01*
X33448400Y-54081461D01*
X33448400Y-54285339D01*
X33488174Y-54485298D01*
X33566195Y-54673656D01*
X33679463Y-54843174D01*
X33734413Y-54898124D01*
X33777854Y-55041332D01*
X33789033Y-55062246D01*
X33848426Y-55173361D01*
X33919508Y-55259974D01*
X33943400Y-55289086D01*
X33972398Y-55312884D01*
X34411928Y-55752414D01*
X34411928Y-56250001D01*
X34428992Y-56423255D01*
X34479528Y-56589851D01*
X34561595Y-56743387D01*
X34672038Y-56877962D01*
X34678594Y-56883342D01*
X34598815Y-56948815D01*
X34519463Y-57045506D01*
X34460498Y-57155820D01*
X34424188Y-57275518D01*
X34411928Y-57400000D01*
X34415000Y-57689250D01*
X34573750Y-57848000D01*
X35623000Y-57848000D01*
X35623000Y-57828000D01*
X35877000Y-57828000D01*
X35877000Y-57848000D01*
X36926250Y-57848000D01*
X37085000Y-57689250D01*
X37088072Y-57400000D01*
X37075812Y-57275518D01*
X37039502Y-57155820D01*
X36980537Y-57045506D01*
X36901185Y-56948815D01*
X36821406Y-56883342D01*
X36827962Y-56877962D01*
X36938405Y-56743387D01*
X37020472Y-56589851D01*
X37071008Y-56423255D01*
X37088072Y-56250001D01*
X37088072Y-56147400D01*
X37388566Y-56147400D01*
X37394188Y-56204482D01*
X37430498Y-56324180D01*
X37489463Y-56434494D01*
X37568815Y-56531185D01*
X37665506Y-56610537D01*
X37739335Y-56650000D01*
X37665506Y-56689463D01*
X37568815Y-56768815D01*
X37489463Y-56865506D01*
X37430498Y-56975820D01*
X37394188Y-57095518D01*
X37381928Y-57220000D01*
X37381928Y-58280000D01*
X37394188Y-58404482D01*
X37430498Y-58524180D01*
X37459052Y-58577600D01*
X37456324Y-58605300D01*
X37460000Y-58642622D01*
X37460000Y-58642633D01*
X37470998Y-58754286D01*
X37478668Y-58779571D01*
X37514454Y-58897546D01*
X37585026Y-59029576D01*
X37634824Y-59090254D01*
X37680000Y-59145301D01*
X37708997Y-59169099D01*
X38428105Y-59888208D01*
X38451899Y-59917201D01*
X38480892Y-59940995D01*
X38480896Y-59940999D01*
X38538081Y-59987929D01*
X38567624Y-60012174D01*
X38699653Y-60082746D01*
X38842914Y-60126203D01*
X38954567Y-60137200D01*
X38954576Y-60137200D01*
X38991899Y-60140876D01*
X39029222Y-60137200D01*
X39062999Y-60137200D01*
X39264296Y-60338497D01*
X39288099Y-60367501D01*
X39403824Y-60462474D01*
X39535853Y-60533046D01*
X39679114Y-60576503D01*
X39790767Y-60587500D01*
X39790776Y-60587500D01*
X39828099Y-60591176D01*
X39865422Y-60587500D01*
X45700578Y-60587500D01*
X45737900Y-60591176D01*
X45775222Y-60587500D01*
X45775233Y-60587500D01*
X45886886Y-60576503D01*
X46030147Y-60533046D01*
X46162176Y-60462474D01*
X46277901Y-60367501D01*
X46301704Y-60338497D01*
X46503001Y-60137200D01*
X48192678Y-60137200D01*
X48230000Y-60140876D01*
X48267322Y-60137200D01*
X48267333Y-60137200D01*
X48378986Y-60126203D01*
X48522247Y-60082746D01*
X48654276Y-60012174D01*
X48770001Y-59917201D01*
X48793804Y-59888197D01*
X50322002Y-58360000D01*
X58785750Y-58360000D01*
X58923750Y-58498000D01*
X59973000Y-58498000D01*
X59973000Y-58478000D01*
X60227000Y-58478000D01*
X60227000Y-58498000D01*
X60247000Y-58498000D01*
X60247000Y-58752000D01*
X60227000Y-58752000D01*
X60227000Y-59676250D01*
X60385750Y-59835000D01*
X60800000Y-59838072D01*
X60924482Y-59825812D01*
X61044180Y-59789502D01*
X61154494Y-59730537D01*
X61190409Y-59701063D01*
X61265402Y-59732126D01*
X61465361Y-59771900D01*
X61669239Y-59771900D01*
X61869198Y-59732126D01*
X62057556Y-59654105D01*
X62227074Y-59540837D01*
X62271011Y-59496900D01*
X62355512Y-59496900D01*
X62422038Y-59577962D01*
X62556613Y-59688405D01*
X62710149Y-59770472D01*
X62876745Y-59821008D01*
X63049999Y-59838072D01*
X63950001Y-59838072D01*
X64123255Y-59821008D01*
X64289851Y-59770472D01*
X64443387Y-59688405D01*
X64577962Y-59577962D01*
X64688405Y-59443387D01*
X64719614Y-59385000D01*
X64980386Y-59385000D01*
X65011595Y-59443387D01*
X65122038Y-59577962D01*
X65256613Y-59688405D01*
X65410149Y-59770472D01*
X65576745Y-59821008D01*
X65749999Y-59838072D01*
X66338271Y-59838072D01*
X67515199Y-61015001D01*
X55740143Y-61015001D01*
X55846617Y-60757951D01*
X55908428Y-60447206D01*
X55908428Y-60130374D01*
X55846617Y-59819629D01*
X55725370Y-59526914D01*
X55549347Y-59263477D01*
X55485870Y-59200000D01*
X58761928Y-59200000D01*
X58774188Y-59324482D01*
X58810498Y-59444180D01*
X58869463Y-59554494D01*
X58948815Y-59651185D01*
X59045506Y-59730537D01*
X59155820Y-59789502D01*
X59275518Y-59825812D01*
X59400000Y-59838072D01*
X59814250Y-59835000D01*
X59973000Y-59676250D01*
X59973000Y-58752000D01*
X58923750Y-58752000D01*
X58765000Y-58910750D01*
X58761928Y-59200000D01*
X55485870Y-59200000D01*
X55325313Y-59039443D01*
X55061876Y-58863420D01*
X54769161Y-58742173D01*
X54458416Y-58680362D01*
X54141584Y-58680362D01*
X53830839Y-58742173D01*
X53538124Y-58863420D01*
X53274687Y-59039443D01*
X53050653Y-59263477D01*
X52874630Y-59526914D01*
X52753383Y-59819629D01*
X52691572Y-60130374D01*
X52691572Y-60447206D01*
X52753383Y-60757951D01*
X52859857Y-61015001D01*
X29733504Y-61015001D01*
X29386948Y-60981021D01*
X29085822Y-60890105D01*
X28808090Y-60742433D01*
X28564331Y-60543627D01*
X28363826Y-60301258D01*
X28214219Y-60024567D01*
X28121202Y-59724076D01*
X28084998Y-59379620D01*
X28084998Y-58504495D01*
X28415000Y-58504495D01*
X28415000Y-58895505D01*
X28491282Y-59279003D01*
X28640915Y-59640250D01*
X28858149Y-59965364D01*
X29134636Y-60241851D01*
X29459750Y-60459085D01*
X29820997Y-60608718D01*
X30204495Y-60685000D01*
X30595505Y-60685000D01*
X30979003Y-60608718D01*
X31340250Y-60459085D01*
X31665364Y-60241851D01*
X31941851Y-59965364D01*
X32159085Y-59640250D01*
X32308718Y-59279003D01*
X32385000Y-58895505D01*
X32385000Y-58550000D01*
X34411928Y-58550000D01*
X34424188Y-58674482D01*
X34460498Y-58794180D01*
X34519463Y-58904494D01*
X34598815Y-59001185D01*
X34695506Y-59080537D01*
X34805820Y-59139502D01*
X34925518Y-59175812D01*
X35050000Y-59188072D01*
X35464250Y-59185000D01*
X35623000Y-59026250D01*
X35623000Y-58102000D01*
X35877000Y-58102000D01*
X35877000Y-59026250D01*
X36035750Y-59185000D01*
X36450000Y-59188072D01*
X36574482Y-59175812D01*
X36694180Y-59139502D01*
X36804494Y-59080537D01*
X36901185Y-59001185D01*
X36980537Y-58904494D01*
X37039502Y-58794180D01*
X37075812Y-58674482D01*
X37088072Y-58550000D01*
X37085000Y-58260750D01*
X36926250Y-58102000D01*
X35877000Y-58102000D01*
X35623000Y-58102000D01*
X34573750Y-58102000D01*
X34415000Y-58260750D01*
X34411928Y-58550000D01*
X32385000Y-58550000D01*
X32385000Y-58504495D01*
X32308718Y-58120997D01*
X32159085Y-57759750D01*
X31941851Y-57434636D01*
X31665364Y-57158149D01*
X31340250Y-56940915D01*
X30979003Y-56791282D01*
X30595505Y-56715000D01*
X30204495Y-56715000D01*
X29820997Y-56791282D01*
X29459750Y-56940915D01*
X29134636Y-57158149D01*
X28858149Y-57434636D01*
X28640915Y-57759750D01*
X28491282Y-58120997D01*
X28415000Y-58504495D01*
X28084998Y-58504495D01*
X28084999Y-52760497D01*
X28147004Y-52786493D01*
X28385500Y-52835000D01*
X28735500Y-52835000D01*
X28735500Y-49227000D01*
X28715500Y-49227000D01*
X28715500Y-48973000D01*
X28735500Y-48973000D01*
X28735500Y-47227000D01*
X28715500Y-47227000D01*
X28715500Y-46973000D01*
X28735500Y-46973000D01*
X28735500Y-43365000D01*
X28385500Y-43365000D01*
X28147004Y-43413507D01*
X28084999Y-43439503D01*
X28084999Y-39450000D01*
X35111928Y-39450000D01*
X35115000Y-39739250D01*
X35273750Y-39898000D01*
X36323000Y-39898000D01*
X36323000Y-38973750D01*
X36164250Y-38815000D01*
X35750000Y-38811928D01*
X35625518Y-38824188D01*
X35505820Y-38860498D01*
X35395506Y-38919463D01*
X35298815Y-38998815D01*
X35219463Y-39095506D01*
X35160498Y-39205820D01*
X35124188Y-39325518D01*
X35111928Y-39450000D01*
X28084999Y-39450000D01*
X28084999Y-36804495D01*
X28415000Y-36804495D01*
X28415000Y-37195505D01*
X28491282Y-37579003D01*
X28640915Y-37940250D01*
X28858149Y-38265364D01*
X29134636Y-38541851D01*
X29459750Y-38759085D01*
X29820997Y-38908718D01*
X30204495Y-38985000D01*
X30595505Y-38985000D01*
X30979003Y-38908718D01*
X31340250Y-38759085D01*
X31665364Y-38541851D01*
X31941851Y-38265364D01*
X32159085Y-37940250D01*
X32308718Y-37579003D01*
X32385000Y-37195505D01*
X32385000Y-36804495D01*
X32365789Y-36707911D01*
X49765000Y-36707911D01*
X49765000Y-36892089D01*
X49800932Y-37072729D01*
X49871414Y-37242889D01*
X49973738Y-37396028D01*
X50103972Y-37526262D01*
X50257111Y-37628586D01*
X50427271Y-37699068D01*
X50607911Y-37735000D01*
X50792089Y-37735000D01*
X50972729Y-37699068D01*
X51142889Y-37628586D01*
X51296028Y-37526262D01*
X51426262Y-37396028D01*
X51528586Y-37242889D01*
X51599068Y-37072729D01*
X51635000Y-36892089D01*
X51635000Y-36707911D01*
X57765000Y-36707911D01*
X57765000Y-36892089D01*
X57800932Y-37072729D01*
X57871414Y-37242889D01*
X57973738Y-37396028D01*
X58103972Y-37526262D01*
X58257111Y-37628586D01*
X58427271Y-37699068D01*
X58607911Y-37735000D01*
X58792089Y-37735000D01*
X58972729Y-37699068D01*
X59142889Y-37628586D01*
X59296028Y-37526262D01*
X59426262Y-37396028D01*
X59528586Y-37242889D01*
X59599068Y-37072729D01*
X59635000Y-36892089D01*
X59635000Y-36707911D01*
X59599068Y-36527271D01*
X59528586Y-36357111D01*
X59426262Y-36203972D01*
X59296028Y-36073738D01*
X59142889Y-35971414D01*
X58972729Y-35900932D01*
X58792089Y-35865000D01*
X58607911Y-35865000D01*
X58427271Y-35900932D01*
X58257111Y-35971414D01*
X58103972Y-36073738D01*
X57973738Y-36203972D01*
X57871414Y-36357111D01*
X57800932Y-36527271D01*
X57765000Y-36707911D01*
X51635000Y-36707911D01*
X51599068Y-36527271D01*
X51528586Y-36357111D01*
X51426262Y-36203972D01*
X51296028Y-36073738D01*
X51142889Y-35971414D01*
X50972729Y-35900932D01*
X50792089Y-35865000D01*
X50607911Y-35865000D01*
X50427271Y-35900932D01*
X50257111Y-35971414D01*
X50103972Y-36073738D01*
X49973738Y-36203972D01*
X49871414Y-36357111D01*
X49800932Y-36527271D01*
X49765000Y-36707911D01*
X32365789Y-36707911D01*
X32308718Y-36420997D01*
X32159085Y-36059750D01*
X31941851Y-35734636D01*
X31665364Y-35458149D01*
X31340250Y-35240915D01*
X30979003Y-35091282D01*
X30595505Y-35015000D01*
X30204495Y-35015000D01*
X29820997Y-35091282D01*
X29459750Y-35240915D01*
X29134636Y-35458149D01*
X28858149Y-35734636D01*
X28640915Y-36059750D01*
X28491282Y-36420997D01*
X28415000Y-36804495D01*
X28084999Y-36804495D01*
X28085000Y-36333504D01*
X28118980Y-35986949D01*
X28209896Y-35685821D01*
X28357567Y-35408092D01*
X28556374Y-35164331D01*
X28798742Y-34963827D01*
X29075435Y-34814219D01*
X29375925Y-34721202D01*
X29720372Y-34684999D01*
X63951290Y-34684999D01*
X63883713Y-34752576D01*
G04 #@! TA.AperFunction,Conductor*
D29*
G36*
X63883713Y-34752576D02*
G01*
X63770445Y-34922094D01*
X63692424Y-35110452D01*
X63652650Y-35310411D01*
X63652650Y-35514289D01*
X63692424Y-35714248D01*
X63770445Y-35902606D01*
X63883713Y-36072124D01*
X64027876Y-36216287D01*
X64197394Y-36329555D01*
X64385752Y-36407576D01*
X64585711Y-36447350D01*
X64789589Y-36447350D01*
X64989548Y-36407576D01*
X65177906Y-36329555D01*
X65347424Y-36216287D01*
X65378711Y-36185000D01*
X76330386Y-36185000D01*
X76361595Y-36243387D01*
X76472038Y-36377962D01*
X76559816Y-36450000D01*
X76472038Y-36522038D01*
X76361595Y-36656613D01*
X76279528Y-36810149D01*
X76266894Y-36851798D01*
X76203711Y-36851798D01*
X76159774Y-36807861D01*
X75990256Y-36694593D01*
X75801898Y-36616572D01*
X75601939Y-36576798D01*
X75398061Y-36576798D01*
X75198102Y-36616572D01*
X75009744Y-36694593D01*
X74840226Y-36807861D01*
X74696063Y-36952024D01*
X74582795Y-37121542D01*
X74504774Y-37309900D01*
X74465000Y-37509859D01*
X74465000Y-37713737D01*
X74504774Y-37913696D01*
X74582795Y-38102054D01*
X74606275Y-38137195D01*
X74538826Y-38182263D01*
X74494889Y-38226200D01*
X54473303Y-38226200D01*
X54426805Y-38113944D01*
X54313537Y-37944426D01*
X54169374Y-37800263D01*
X53999856Y-37686995D01*
X53811498Y-37608974D01*
X53611539Y-37569200D01*
X53407661Y-37569200D01*
X53207702Y-37608974D01*
X53019344Y-37686995D01*
X52849826Y-37800263D01*
X52705663Y-37944426D01*
X52592395Y-38113944D01*
X52514374Y-38302302D01*
X52474600Y-38502261D01*
X52474600Y-38706139D01*
X52514374Y-38906098D01*
X52592395Y-39094456D01*
X52639264Y-39164600D01*
X49961922Y-39164600D01*
X49924599Y-39160924D01*
X49887276Y-39164600D01*
X49887267Y-39164600D01*
X49775614Y-39175597D01*
X49632353Y-39219054D01*
X49500323Y-39289626D01*
X49416683Y-39358268D01*
X49384599Y-39384599D01*
X49360801Y-39413597D01*
X47659399Y-41115000D01*
X45019614Y-41115000D01*
X44988405Y-41056613D01*
X44877962Y-40922038D01*
X44871406Y-40916658D01*
X44951185Y-40851185D01*
X45030537Y-40754494D01*
X45089502Y-40644180D01*
X45125812Y-40524482D01*
X45138072Y-40400000D01*
X45135000Y-40110750D01*
X44976250Y-39952000D01*
X43927000Y-39952000D01*
X43927000Y-39972000D01*
X43673000Y-39972000D01*
X43673000Y-39952000D01*
X42623750Y-39952000D01*
X42465000Y-40110750D01*
X42461928Y-40400000D01*
X42474188Y-40524482D01*
X42510498Y-40644180D01*
X42569463Y-40754494D01*
X42648815Y-40851185D01*
X42728594Y-40916658D01*
X42722038Y-40922038D01*
X42633622Y-41029773D01*
X42567547Y-40994454D01*
X42526824Y-40982101D01*
X42480537Y-40895506D01*
X42401185Y-40798815D01*
X42304494Y-40719463D01*
X42194180Y-40660498D01*
X42074482Y-40624188D01*
X41950000Y-40611928D01*
X41438095Y-40611928D01*
X41451185Y-40601185D01*
X41530537Y-40504494D01*
X41589502Y-40394180D01*
X41625812Y-40274482D01*
X41638072Y-40150000D01*
X41638072Y-39250000D01*
X42461928Y-39250000D01*
X42465000Y-39539250D01*
X42623750Y-39698000D01*
X43673000Y-39698000D01*
X43673000Y-38773750D01*
X43927000Y-38773750D01*
X43927000Y-39698000D01*
X44976250Y-39698000D01*
X45135000Y-39539250D01*
X45138072Y-39250000D01*
X45125812Y-39125518D01*
X45089502Y-39005820D01*
X45030537Y-38895506D01*
X44951185Y-38798815D01*
X44854494Y-38719463D01*
X44744180Y-38660498D01*
X44624482Y-38624188D01*
X44500000Y-38611928D01*
X44085750Y-38615000D01*
X43927000Y-38773750D01*
X43673000Y-38773750D01*
X43514250Y-38615000D01*
X43100000Y-38611928D01*
X42975518Y-38624188D01*
X42855820Y-38660498D01*
X42745506Y-38719463D01*
X42648815Y-38798815D01*
X42569463Y-38895506D01*
X42510498Y-39005820D01*
X42474188Y-39125518D01*
X42461928Y-39250000D01*
X41638072Y-39250000D01*
X41625812Y-39125518D01*
X41589502Y-39005820D01*
X41530537Y-38895506D01*
X41451185Y-38798815D01*
X41354494Y-38719463D01*
X41244180Y-38660498D01*
X41124482Y-38624188D01*
X41000000Y-38611928D01*
X40200000Y-38611928D01*
X40075518Y-38624188D01*
X39955820Y-38660498D01*
X39845506Y-38719463D01*
X39748815Y-38798815D01*
X39669463Y-38895506D01*
X39645680Y-38940000D01*
X38862322Y-38940000D01*
X38824999Y-38936324D01*
X38787676Y-38940000D01*
X38787667Y-38940000D01*
X38676014Y-38950997D01*
X38532753Y-38994454D01*
X38400724Y-39065026D01*
X38284999Y-39159999D01*
X38261201Y-39188997D01*
X37785795Y-39664403D01*
X37788072Y-39450000D01*
X37775812Y-39325518D01*
X37739502Y-39205820D01*
X37680537Y-39095506D01*
X37601185Y-38998815D01*
X37504494Y-38919463D01*
X37394180Y-38860498D01*
X37274482Y-38824188D01*
X37150000Y-38811928D01*
X36735750Y-38815000D01*
X36577000Y-38973750D01*
X36577000Y-39898000D01*
X36597000Y-39898000D01*
X36597000Y-40152000D01*
X36577000Y-40152000D01*
X36577000Y-40172000D01*
X36323000Y-40172000D01*
X36323000Y-40152000D01*
X35273750Y-40152000D01*
X35115000Y-40310750D01*
X35111928Y-40600000D01*
X35124188Y-40724482D01*
X35160498Y-40844180D01*
X35219463Y-40954494D01*
X35298815Y-41051185D01*
X35378594Y-41116658D01*
X35372038Y-41122038D01*
X35261595Y-41256613D01*
X35179528Y-41410149D01*
X35128992Y-41576745D01*
X35111928Y-41749999D01*
X35111928Y-42400001D01*
X35128992Y-42573255D01*
X35179528Y-42739851D01*
X35261595Y-42893387D01*
X35372038Y-43027962D01*
X35506613Y-43138405D01*
X35660149Y-43220472D01*
X35734098Y-43242904D01*
X35732234Y-43573000D01*
X35650000Y-43573000D01*
X35625224Y-43575440D01*
X35601399Y-43582667D01*
X35579443Y-43594403D01*
X35560197Y-43610197D01*
X35544403Y-43629443D01*
X35532667Y-43651399D01*
X35525440Y-43675224D01*
X35523000Y-43700000D01*
X35523000Y-45489990D01*
X33344248Y-45489990D01*
X33177501Y-45506413D01*
X32963553Y-45571314D01*
X32924180Y-45592359D01*
X32927104Y-45526518D01*
X32886548Y-45261709D01*
X32795109Y-45009900D01*
X32737950Y-44902965D01*
X32501633Y-44840472D01*
X31742105Y-45600000D01*
X31756248Y-45614143D01*
X31576643Y-45793748D01*
X31562500Y-45779605D01*
X31548358Y-45793748D01*
X31368753Y-45614143D01*
X31382895Y-45600000D01*
X30623367Y-44840472D01*
X30447767Y-44886909D01*
X30449976Y-44660867D01*
X30802972Y-44660867D01*
X31562500Y-45420395D01*
X32322028Y-44660867D01*
X32259535Y-44424550D01*
X32016822Y-44311150D01*
X31756651Y-44247281D01*
X31489018Y-44235396D01*
X31224209Y-44275952D01*
X30972400Y-44367391D01*
X30865465Y-44424550D01*
X30802972Y-44660867D01*
X30449976Y-44660867D01*
X30450572Y-44600000D01*
X30447500Y-44568808D01*
X30447500Y-44472998D01*
X30437548Y-44472998D01*
X30402002Y-44355820D01*
X30382179Y-44318735D01*
X30405962Y-44282391D01*
X30402091Y-44244718D01*
X30309921Y-44019467D01*
X30175578Y-43816526D01*
X30004225Y-43643693D01*
X29802446Y-43507610D01*
X29577996Y-43413507D01*
X29339500Y-43365000D01*
X28989500Y-43365000D01*
X28989500Y-46973000D01*
X29009500Y-46973000D01*
X29009500Y-47227000D01*
X28989500Y-47227000D01*
X28989500Y-48973000D01*
X29009500Y-48973000D01*
X29009500Y-49227000D01*
X28989500Y-49227000D01*
X28989500Y-52835000D01*
X29339500Y-52835000D01*
X29577996Y-52786493D01*
X29802446Y-52692390D01*
X30004225Y-52556307D01*
X30175578Y-52383474D01*
X30309921Y-52180533D01*
X30402091Y-51955282D01*
X30405962Y-51917609D01*
X30382179Y-51881265D01*
X30402002Y-51844180D01*
X30437548Y-51727002D01*
X30447500Y-51727002D01*
X30447500Y-51631192D01*
X30450572Y-51600000D01*
X30449977Y-51539133D01*
X30802972Y-51539133D01*
X30865465Y-51775450D01*
X31108178Y-51888850D01*
X31368349Y-51952719D01*
X31635982Y-51964604D01*
X31900791Y-51924048D01*
X32152600Y-51832609D01*
X32259535Y-51775450D01*
X32322028Y-51539133D01*
X31562500Y-50779605D01*
X30802972Y-51539133D01*
X30449977Y-51539133D01*
X30447767Y-51313091D01*
X30623367Y-51359528D01*
X31382895Y-50600000D01*
X31368753Y-50585858D01*
X31548358Y-50406253D01*
X31562500Y-50420395D01*
X31576643Y-50406253D01*
X31756248Y-50585858D01*
X31742105Y-50600000D01*
X32501633Y-51359528D01*
X32737950Y-51297035D01*
X32851350Y-51054322D01*
X32915219Y-50794151D01*
X32927104Y-50526518D01*
X32886548Y-50261709D01*
X32795109Y-50009900D01*
X32766225Y-49955864D01*
X32823021Y-49853576D01*
X32861241Y-49734474D01*
X32872500Y-49631750D01*
X32767752Y-49527002D01*
X32872500Y-49527002D01*
X32872500Y-49420303D01*
X33792528Y-50340332D01*
X33804774Y-50401898D01*
X33882795Y-50590256D01*
X33996063Y-50759774D01*
X34140226Y-50903937D01*
X34309744Y-51017205D01*
X34498102Y-51095226D01*
X34698061Y-51135000D01*
X34901939Y-51135000D01*
X35101898Y-51095226D01*
X35290256Y-51017205D01*
X35459774Y-50903937D01*
X35603937Y-50759774D01*
X35717205Y-50590256D01*
X35725000Y-50571436D01*
X35725000Y-50694607D01*
X35722038Y-50697038D01*
X35611595Y-50831613D01*
X35529528Y-50985149D01*
X35478992Y-51151745D01*
X35461928Y-51324999D01*
X35461928Y-53841190D01*
X35400605Y-53693144D01*
X35287337Y-53523626D01*
X35143174Y-53379463D01*
X34973656Y-53266195D01*
X34785298Y-53188174D01*
X34585339Y-53148400D01*
X34381461Y-53148400D01*
X34181502Y-53188174D01*
X33993144Y-53266195D01*
X33823626Y-53379463D01*
X33679463Y-53523626D01*
X33566195Y-53693144D01*
X33488174Y-53881502D01*
X33448400Y-54081461D01*
X33448400Y-54285339D01*
X33488174Y-54485298D01*
X33566195Y-54673656D01*
X33679463Y-54843174D01*
X33734413Y-54898124D01*
X33777854Y-55041332D01*
X33789033Y-55062246D01*
X33848426Y-55173361D01*
X33919508Y-55259974D01*
X33943400Y-55289086D01*
X33972398Y-55312884D01*
X34411928Y-55752414D01*
X34411928Y-56250001D01*
X34428992Y-56423255D01*
X34479528Y-56589851D01*
X34561595Y-56743387D01*
X34672038Y-56877962D01*
X34678594Y-56883342D01*
X34598815Y-56948815D01*
X34519463Y-57045506D01*
X34460498Y-57155820D01*
X34424188Y-57275518D01*
X34411928Y-57400000D01*
X34415000Y-57689250D01*
X34573750Y-57848000D01*
X35623000Y-57848000D01*
X35623000Y-57828000D01*
X35877000Y-57828000D01*
X35877000Y-57848000D01*
X36926250Y-57848000D01*
X37085000Y-57689250D01*
X37088072Y-57400000D01*
X37075812Y-57275518D01*
X37039502Y-57155820D01*
X36980537Y-57045506D01*
X36901185Y-56948815D01*
X36821406Y-56883342D01*
X36827962Y-56877962D01*
X36938405Y-56743387D01*
X37020472Y-56589851D01*
X37071008Y-56423255D01*
X37088072Y-56250001D01*
X37088072Y-56147400D01*
X37388566Y-56147400D01*
X37394188Y-56204482D01*
X37430498Y-56324180D01*
X37489463Y-56434494D01*
X37568815Y-56531185D01*
X37665506Y-56610537D01*
X37739335Y-56650000D01*
X37665506Y-56689463D01*
X37568815Y-56768815D01*
X37489463Y-56865506D01*
X37430498Y-56975820D01*
X37394188Y-57095518D01*
X37381928Y-57220000D01*
X37381928Y-58280000D01*
X37394188Y-58404482D01*
X37430498Y-58524180D01*
X37459052Y-58577600D01*
X37456324Y-58605300D01*
X37460000Y-58642622D01*
X37460000Y-58642633D01*
X37470998Y-58754286D01*
X37478668Y-58779571D01*
X37514454Y-58897546D01*
X37585026Y-59029576D01*
X37634824Y-59090254D01*
X37680000Y-59145301D01*
X37708997Y-59169099D01*
X38428105Y-59888208D01*
X38451899Y-59917201D01*
X38480892Y-59940995D01*
X38480896Y-59940999D01*
X38538081Y-59987929D01*
X38567624Y-60012174D01*
X38699653Y-60082746D01*
X38842914Y-60126203D01*
X38954567Y-60137200D01*
X38954576Y-60137200D01*
X38991899Y-60140876D01*
X39029222Y-60137200D01*
X39062999Y-60137200D01*
X39264296Y-60338497D01*
X39288099Y-60367501D01*
X39403824Y-60462474D01*
X39535853Y-60533046D01*
X39679114Y-60576503D01*
X39790767Y-60587500D01*
X39790776Y-60587500D01*
X39828099Y-60591176D01*
X39865422Y-60587500D01*
X45700578Y-60587500D01*
X45737900Y-60591176D01*
X45775222Y-60587500D01*
X45775233Y-60587500D01*
X45886886Y-60576503D01*
X46030147Y-60533046D01*
X46162176Y-60462474D01*
X46277901Y-60367501D01*
X46301704Y-60338497D01*
X46503001Y-60137200D01*
X48192678Y-60137200D01*
X48230000Y-60140876D01*
X48267322Y-60137200D01*
X48267333Y-60137200D01*
X48378986Y-60126203D01*
X48522247Y-60082746D01*
X48654276Y-60012174D01*
X48770001Y-59917201D01*
X48793804Y-59888197D01*
X50322002Y-58360000D01*
X58785750Y-58360000D01*
X58923750Y-58498000D01*
X59973000Y-58498000D01*
X59973000Y-58478000D01*
X60227000Y-58478000D01*
X60227000Y-58498000D01*
X60247000Y-58498000D01*
X60247000Y-58752000D01*
X60227000Y-58752000D01*
X60227000Y-59676250D01*
X60385750Y-59835000D01*
X60800000Y-59838072D01*
X60924482Y-59825812D01*
X61044180Y-59789502D01*
X61154494Y-59730537D01*
X61190409Y-59701063D01*
X61265402Y-59732126D01*
X61465361Y-59771900D01*
X61669239Y-59771900D01*
X61869198Y-59732126D01*
X62057556Y-59654105D01*
X62227074Y-59540837D01*
X62271011Y-59496900D01*
X62355512Y-59496900D01*
X62422038Y-59577962D01*
X62556613Y-59688405D01*
X62710149Y-59770472D01*
X62876745Y-59821008D01*
X63049999Y-59838072D01*
X63950001Y-59838072D01*
X64123255Y-59821008D01*
X64289851Y-59770472D01*
X64443387Y-59688405D01*
X64577962Y-59577962D01*
X64688405Y-59443387D01*
X64719614Y-59385000D01*
X64980386Y-59385000D01*
X65011595Y-59443387D01*
X65122038Y-59577962D01*
X65256613Y-59688405D01*
X65410149Y-59770472D01*
X65576745Y-59821008D01*
X65749999Y-59838072D01*
X66338271Y-59838072D01*
X67515199Y-61015001D01*
X55740143Y-61015001D01*
X55846617Y-60757951D01*
X55908428Y-60447206D01*
X55908428Y-60130374D01*
X55846617Y-59819629D01*
X55725370Y-59526914D01*
X55549347Y-59263477D01*
X55485870Y-59200000D01*
X58761928Y-59200000D01*
X58774188Y-59324482D01*
X58810498Y-59444180D01*
X58869463Y-59554494D01*
X58948815Y-59651185D01*
X59045506Y-59730537D01*
X59155820Y-59789502D01*
X59275518Y-59825812D01*
X59400000Y-59838072D01*
X59814250Y-59835000D01*
X59973000Y-59676250D01*
X59973000Y-58752000D01*
X58923750Y-58752000D01*
X58765000Y-58910750D01*
X58761928Y-59200000D01*
X55485870Y-59200000D01*
X55325313Y-59039443D01*
X55061876Y-58863420D01*
X54769161Y-58742173D01*
X54458416Y-58680362D01*
X54141584Y-58680362D01*
X53830839Y-58742173D01*
X53538124Y-58863420D01*
X53274687Y-59039443D01*
X53050653Y-59263477D01*
X52874630Y-59526914D01*
X52753383Y-59819629D01*
X52691572Y-60130374D01*
X52691572Y-60447206D01*
X52753383Y-60757951D01*
X52859857Y-61015001D01*
X29733504Y-61015001D01*
X29386948Y-60981021D01*
X29085822Y-60890105D01*
X28808090Y-60742433D01*
X28564331Y-60543627D01*
X28363826Y-60301258D01*
X28214219Y-60024567D01*
X28121202Y-59724076D01*
X28084998Y-59379620D01*
X28084998Y-58504495D01*
X28415000Y-58504495D01*
X28415000Y-58895505D01*
X28491282Y-59279003D01*
X28640915Y-59640250D01*
X28858149Y-59965364D01*
X29134636Y-60241851D01*
X29459750Y-60459085D01*
X29820997Y-60608718D01*
X30204495Y-60685000D01*
X30595505Y-60685000D01*
X30979003Y-60608718D01*
X31340250Y-60459085D01*
X31665364Y-60241851D01*
X31941851Y-59965364D01*
X32159085Y-59640250D01*
X32308718Y-59279003D01*
X32385000Y-58895505D01*
X32385000Y-58550000D01*
X34411928Y-58550000D01*
X34424188Y-58674482D01*
X34460498Y-58794180D01*
X34519463Y-58904494D01*
X34598815Y-59001185D01*
X34695506Y-59080537D01*
X34805820Y-59139502D01*
X34925518Y-59175812D01*
X35050000Y-59188072D01*
X35464250Y-59185000D01*
X35623000Y-59026250D01*
X35623000Y-58102000D01*
X35877000Y-58102000D01*
X35877000Y-59026250D01*
X36035750Y-59185000D01*
X36450000Y-59188072D01*
X36574482Y-59175812D01*
X36694180Y-59139502D01*
X36804494Y-59080537D01*
X36901185Y-59001185D01*
X36980537Y-58904494D01*
X37039502Y-58794180D01*
X37075812Y-58674482D01*
X37088072Y-58550000D01*
X37085000Y-58260750D01*
X36926250Y-58102000D01*
X35877000Y-58102000D01*
X35623000Y-58102000D01*
X34573750Y-58102000D01*
X34415000Y-58260750D01*
X34411928Y-58550000D01*
X32385000Y-58550000D01*
X32385000Y-58504495D01*
X32308718Y-58120997D01*
X32159085Y-57759750D01*
X31941851Y-57434636D01*
X31665364Y-57158149D01*
X31340250Y-56940915D01*
X30979003Y-56791282D01*
X30595505Y-56715000D01*
X30204495Y-56715000D01*
X29820997Y-56791282D01*
X29459750Y-56940915D01*
X29134636Y-57158149D01*
X28858149Y-57434636D01*
X28640915Y-57759750D01*
X28491282Y-58120997D01*
X28415000Y-58504495D01*
X28084998Y-58504495D01*
X28084999Y-52760497D01*
X28147004Y-52786493D01*
X28385500Y-52835000D01*
X28735500Y-52835000D01*
X28735500Y-49227000D01*
X28715500Y-49227000D01*
X28715500Y-48973000D01*
X28735500Y-48973000D01*
X28735500Y-47227000D01*
X28715500Y-47227000D01*
X28715500Y-46973000D01*
X28735500Y-46973000D01*
X28735500Y-43365000D01*
X28385500Y-43365000D01*
X28147004Y-43413507D01*
X28084999Y-43439503D01*
X28084999Y-39450000D01*
X35111928Y-39450000D01*
X35115000Y-39739250D01*
X35273750Y-39898000D01*
X36323000Y-39898000D01*
X36323000Y-38973750D01*
X36164250Y-38815000D01*
X35750000Y-38811928D01*
X35625518Y-38824188D01*
X35505820Y-38860498D01*
X35395506Y-38919463D01*
X35298815Y-38998815D01*
X35219463Y-39095506D01*
X35160498Y-39205820D01*
X35124188Y-39325518D01*
X35111928Y-39450000D01*
X28084999Y-39450000D01*
X28084999Y-36804495D01*
X28415000Y-36804495D01*
X28415000Y-37195505D01*
X28491282Y-37579003D01*
X28640915Y-37940250D01*
X28858149Y-38265364D01*
X29134636Y-38541851D01*
X29459750Y-38759085D01*
X29820997Y-38908718D01*
X30204495Y-38985000D01*
X30595505Y-38985000D01*
X30979003Y-38908718D01*
X31340250Y-38759085D01*
X31665364Y-38541851D01*
X31941851Y-38265364D01*
X32159085Y-37940250D01*
X32308718Y-37579003D01*
X32385000Y-37195505D01*
X32385000Y-36804495D01*
X32365789Y-36707911D01*
X49765000Y-36707911D01*
X49765000Y-36892089D01*
X49800932Y-37072729D01*
X49871414Y-37242889D01*
X49973738Y-37396028D01*
X50103972Y-37526262D01*
X50257111Y-37628586D01*
X50427271Y-37699068D01*
X50607911Y-37735000D01*
X50792089Y-37735000D01*
X50972729Y-37699068D01*
X51142889Y-37628586D01*
X51296028Y-37526262D01*
X51426262Y-37396028D01*
X51528586Y-37242889D01*
X51599068Y-37072729D01*
X51635000Y-36892089D01*
X51635000Y-36707911D01*
X57765000Y-36707911D01*
X57765000Y-36892089D01*
X57800932Y-37072729D01*
X57871414Y-37242889D01*
X57973738Y-37396028D01*
X58103972Y-37526262D01*
X58257111Y-37628586D01*
X58427271Y-37699068D01*
X58607911Y-37735000D01*
X58792089Y-37735000D01*
X58972729Y-37699068D01*
X59142889Y-37628586D01*
X59296028Y-37526262D01*
X59426262Y-37396028D01*
X59528586Y-37242889D01*
X59599068Y-37072729D01*
X59635000Y-36892089D01*
X59635000Y-36707911D01*
X59599068Y-36527271D01*
X59528586Y-36357111D01*
X59426262Y-36203972D01*
X59296028Y-36073738D01*
X59142889Y-35971414D01*
X58972729Y-35900932D01*
X58792089Y-35865000D01*
X58607911Y-35865000D01*
X58427271Y-35900932D01*
X58257111Y-35971414D01*
X58103972Y-36073738D01*
X57973738Y-36203972D01*
X57871414Y-36357111D01*
X57800932Y-36527271D01*
X57765000Y-36707911D01*
X51635000Y-36707911D01*
X51599068Y-36527271D01*
X51528586Y-36357111D01*
X51426262Y-36203972D01*
X51296028Y-36073738D01*
X51142889Y-35971414D01*
X50972729Y-35900932D01*
X50792089Y-35865000D01*
X50607911Y-35865000D01*
X50427271Y-35900932D01*
X50257111Y-35971414D01*
X50103972Y-36073738D01*
X49973738Y-36203972D01*
X49871414Y-36357111D01*
X49800932Y-36527271D01*
X49765000Y-36707911D01*
X32365789Y-36707911D01*
X32308718Y-36420997D01*
X32159085Y-36059750D01*
X31941851Y-35734636D01*
X31665364Y-35458149D01*
X31340250Y-35240915D01*
X30979003Y-35091282D01*
X30595505Y-35015000D01*
X30204495Y-35015000D01*
X29820997Y-35091282D01*
X29459750Y-35240915D01*
X29134636Y-35458149D01*
X28858149Y-35734636D01*
X28640915Y-36059750D01*
X28491282Y-36420997D01*
X28415000Y-36804495D01*
X28084999Y-36804495D01*
X28085000Y-36333504D01*
X28118980Y-35986949D01*
X28209896Y-35685821D01*
X28357567Y-35408092D01*
X28556374Y-35164331D01*
X28798742Y-34963827D01*
X29075435Y-34814219D01*
X29375925Y-34721202D01*
X29720372Y-34684999D01*
X63951290Y-34684999D01*
X63883713Y-34752576D01*
G37*
G04 #@! TD.AperFunction*
D28*
X79461928Y-56800001D02*
X79478992Y-56973255D01*
X79529528Y-57139851D01*
X79611595Y-57293387D01*
X79722038Y-57427962D01*
X79728594Y-57433342D01*
X79648815Y-57498815D01*
X79569463Y-57595506D01*
X79510498Y-57705820D01*
X79474188Y-57825518D01*
X79461928Y-57950000D01*
X79465000Y-58239250D01*
X79623748Y-58397998D01*
X79465000Y-58397998D01*
X79465000Y-58518367D01*
X79449814Y-58489956D01*
X79185413Y-58394192D01*
X78229605Y-59350000D01*
X78243748Y-59364143D01*
X78064143Y-59543748D01*
X78050000Y-59529605D01*
X78035858Y-59543748D01*
X77856253Y-59364143D01*
X77870395Y-59350000D01*
X76914587Y-58394192D01*
X76650186Y-58489956D01*
X76509296Y-58779571D01*
X76427616Y-59091108D01*
X76408282Y-59412595D01*
X76452039Y-59731675D01*
X76515373Y-59915001D01*
X73092127Y-59915001D01*
X73172384Y-59608892D01*
X73191718Y-59287405D01*
X73147961Y-58968325D01*
X73042795Y-58663912D01*
X72949814Y-58489956D01*
X72685413Y-58394192D01*
X71729605Y-59350000D01*
X71743748Y-59364143D01*
X71564143Y-59543748D01*
X71550000Y-59529605D01*
X71535858Y-59543748D01*
X71356253Y-59364143D01*
X71370395Y-59350000D01*
X70414587Y-58394192D01*
X70150186Y-58489956D01*
X70072958Y-58648708D01*
X69976250Y-58552000D01*
X68927000Y-58552000D01*
X68927000Y-59476250D01*
X69085750Y-59635000D01*
X69500000Y-59638072D01*
X69624482Y-59625812D01*
X69744180Y-59589502D01*
X69854494Y-59530537D01*
X69917379Y-59478929D01*
X69952039Y-59731675D01*
X70015373Y-59915001D01*
X68564803Y-59915001D01*
X68286491Y-59636689D01*
X68514250Y-59635000D01*
X68673000Y-59476250D01*
X68673000Y-58552000D01*
X68653000Y-58552000D01*
X68653000Y-58298000D01*
X68673000Y-58298000D01*
X68673000Y-58278000D01*
X68927000Y-58278000D01*
X68927000Y-58298000D01*
X69976250Y-58298000D01*
X70135000Y-58139250D01*
X70135966Y-58048300D01*
X70654420Y-58048300D01*
X70594192Y-58214587D01*
X71550000Y-59170395D01*
X72505808Y-58214587D01*
X72445580Y-58048300D01*
X77154420Y-58048300D01*
X77094192Y-58214587D01*
X78050000Y-59170395D01*
X79005808Y-58214587D01*
X78910044Y-57950186D01*
X78620429Y-57809296D01*
X78308892Y-57727616D01*
X78165414Y-57718987D01*
X79461928Y-56422474D01*
X79461928Y-56800001D01*
G04 #@! TA.AperFunction,Conductor*
D29*
G36*
X79461928Y-56800001D02*
G01*
X79478992Y-56973255D01*
X79529528Y-57139851D01*
X79611595Y-57293387D01*
X79722038Y-57427962D01*
X79728594Y-57433342D01*
X79648815Y-57498815D01*
X79569463Y-57595506D01*
X79510498Y-57705820D01*
X79474188Y-57825518D01*
X79461928Y-57950000D01*
X79465000Y-58239250D01*
X79623748Y-58397998D01*
X79465000Y-58397998D01*
X79465000Y-58518367D01*
X79449814Y-58489956D01*
X79185413Y-58394192D01*
X78229605Y-59350000D01*
X78243748Y-59364143D01*
X78064143Y-59543748D01*
X78050000Y-59529605D01*
X78035858Y-59543748D01*
X77856253Y-59364143D01*
X77870395Y-59350000D01*
X76914587Y-58394192D01*
X76650186Y-58489956D01*
X76509296Y-58779571D01*
X76427616Y-59091108D01*
X76408282Y-59412595D01*
X76452039Y-59731675D01*
X76515373Y-59915001D01*
X73092127Y-59915001D01*
X73172384Y-59608892D01*
X73191718Y-59287405D01*
X73147961Y-58968325D01*
X73042795Y-58663912D01*
X72949814Y-58489956D01*
X72685413Y-58394192D01*
X71729605Y-59350000D01*
X71743748Y-59364143D01*
X71564143Y-59543748D01*
X71550000Y-59529605D01*
X71535858Y-59543748D01*
X71356253Y-59364143D01*
X71370395Y-59350000D01*
X70414587Y-58394192D01*
X70150186Y-58489956D01*
X70072958Y-58648708D01*
X69976250Y-58552000D01*
X68927000Y-58552000D01*
X68927000Y-59476250D01*
X69085750Y-59635000D01*
X69500000Y-59638072D01*
X69624482Y-59625812D01*
X69744180Y-59589502D01*
X69854494Y-59530537D01*
X69917379Y-59478929D01*
X69952039Y-59731675D01*
X70015373Y-59915001D01*
X68564803Y-59915001D01*
X68286491Y-59636689D01*
X68514250Y-59635000D01*
X68673000Y-59476250D01*
X68673000Y-58552000D01*
X68653000Y-58552000D01*
X68653000Y-58298000D01*
X68673000Y-58298000D01*
X68673000Y-58278000D01*
X68927000Y-58278000D01*
X68927000Y-58298000D01*
X69976250Y-58298000D01*
X70135000Y-58139250D01*
X70135966Y-58048300D01*
X70654420Y-58048300D01*
X70594192Y-58214587D01*
X71550000Y-59170395D01*
X72505808Y-58214587D01*
X72445580Y-58048300D01*
X77154420Y-58048300D01*
X77094192Y-58214587D01*
X78050000Y-59170395D01*
X79005808Y-58214587D01*
X78910044Y-57950186D01*
X78620429Y-57809296D01*
X78308892Y-57727616D01*
X78165414Y-57718987D01*
X79461928Y-56422474D01*
X79461928Y-56800001D01*
G37*
G04 #@! TD.AperFunction*
D28*
X44454774Y-50648102D02*
X44415000Y-50848061D01*
X44415000Y-51051939D01*
X44454774Y-51251898D01*
X44532795Y-51440256D01*
X44646063Y-51609774D01*
X44790226Y-51753937D01*
X44959744Y-51867205D01*
X45148102Y-51945226D01*
X45348061Y-51985000D01*
X45425861Y-51985000D01*
X47461928Y-53958419D01*
X47461928Y-54550001D01*
X47478992Y-54723255D01*
X47529528Y-54889851D01*
X47611595Y-55043387D01*
X47722038Y-55177962D01*
X47856613Y-55288405D01*
X48010149Y-55370472D01*
X48176745Y-55421008D01*
X48307056Y-55433842D01*
X46088051Y-57652848D01*
X46088072Y-57650000D01*
X46075812Y-57525518D01*
X46039502Y-57405820D01*
X45980537Y-57295506D01*
X45901185Y-57198815D01*
X45804494Y-57119463D01*
X45768082Y-57100000D01*
X45804494Y-57080537D01*
X45901185Y-57001185D01*
X45980537Y-56904494D01*
X46039502Y-56794180D01*
X46075812Y-56674482D01*
X46088072Y-56550000D01*
X46085000Y-56135750D01*
X45926250Y-55977000D01*
X45002000Y-55977000D01*
X45002000Y-57026250D01*
X45075750Y-57100000D01*
X45002000Y-57173750D01*
X45002000Y-58223000D01*
X45022000Y-58223000D01*
X45022000Y-58477000D01*
X45002000Y-58477000D01*
X45002000Y-58497000D01*
X44748000Y-58497000D01*
X44748000Y-58477000D01*
X44728000Y-58477000D01*
X44728000Y-58223000D01*
X44748000Y-58223000D01*
X44748000Y-57173750D01*
X44674250Y-57100000D01*
X44748000Y-57026250D01*
X44748000Y-55977000D01*
X44728000Y-55977000D01*
X44728000Y-55723000D01*
X44748000Y-55723000D01*
X44748000Y-54673750D01*
X45002000Y-54673750D01*
X45002000Y-55723000D01*
X45926250Y-55723000D01*
X46085000Y-55564250D01*
X46088072Y-55150000D01*
X46075812Y-55025518D01*
X46039502Y-54905820D01*
X45980537Y-54795506D01*
X45901185Y-54698815D01*
X45804494Y-54619463D01*
X45694180Y-54560498D01*
X45574482Y-54524188D01*
X45450000Y-54511928D01*
X45160750Y-54515000D01*
X45002000Y-54673750D01*
X44748000Y-54673750D01*
X44589250Y-54515000D01*
X44300000Y-54511928D01*
X44175518Y-54524188D01*
X44163539Y-54527822D01*
X44170472Y-54514851D01*
X44221008Y-54348255D01*
X44238072Y-54175001D01*
X44238072Y-51324999D01*
X44221008Y-51151745D01*
X44170472Y-50985149D01*
X44088405Y-50831613D01*
X43977962Y-50697038D01*
X43972500Y-50692555D01*
X43972500Y-50663300D01*
X44064939Y-50663300D01*
X44264898Y-50623526D01*
X44453256Y-50545505D01*
X44514115Y-50504840D01*
X44454774Y-50648102D01*
G04 #@! TA.AperFunction,Conductor*
D29*
G36*
X44454774Y-50648102D02*
G01*
X44415000Y-50848061D01*
X44415000Y-51051939D01*
X44454774Y-51251898D01*
X44532795Y-51440256D01*
X44646063Y-51609774D01*
X44790226Y-51753937D01*
X44959744Y-51867205D01*
X45148102Y-51945226D01*
X45348061Y-51985000D01*
X45425861Y-51985000D01*
X47461928Y-53958419D01*
X47461928Y-54550001D01*
X47478992Y-54723255D01*
X47529528Y-54889851D01*
X47611595Y-55043387D01*
X47722038Y-55177962D01*
X47856613Y-55288405D01*
X48010149Y-55370472D01*
X48176745Y-55421008D01*
X48307056Y-55433842D01*
X46088051Y-57652848D01*
X46088072Y-57650000D01*
X46075812Y-57525518D01*
X46039502Y-57405820D01*
X45980537Y-57295506D01*
X45901185Y-57198815D01*
X45804494Y-57119463D01*
X45768082Y-57100000D01*
X45804494Y-57080537D01*
X45901185Y-57001185D01*
X45980537Y-56904494D01*
X46039502Y-56794180D01*
X46075812Y-56674482D01*
X46088072Y-56550000D01*
X46085000Y-56135750D01*
X45926250Y-55977000D01*
X45002000Y-55977000D01*
X45002000Y-57026250D01*
X45075750Y-57100000D01*
X45002000Y-57173750D01*
X45002000Y-58223000D01*
X45022000Y-58223000D01*
X45022000Y-58477000D01*
X45002000Y-58477000D01*
X45002000Y-58497000D01*
X44748000Y-58497000D01*
X44748000Y-58477000D01*
X44728000Y-58477000D01*
X44728000Y-58223000D01*
X44748000Y-58223000D01*
X44748000Y-57173750D01*
X44674250Y-57100000D01*
X44748000Y-57026250D01*
X44748000Y-55977000D01*
X44728000Y-55977000D01*
X44728000Y-55723000D01*
X44748000Y-55723000D01*
X44748000Y-54673750D01*
X45002000Y-54673750D01*
X45002000Y-55723000D01*
X45926250Y-55723000D01*
X46085000Y-55564250D01*
X46088072Y-55150000D01*
X46075812Y-55025518D01*
X46039502Y-54905820D01*
X45980537Y-54795506D01*
X45901185Y-54698815D01*
X45804494Y-54619463D01*
X45694180Y-54560498D01*
X45574482Y-54524188D01*
X45450000Y-54511928D01*
X45160750Y-54515000D01*
X45002000Y-54673750D01*
X44748000Y-54673750D01*
X44589250Y-54515000D01*
X44300000Y-54511928D01*
X44175518Y-54524188D01*
X44163539Y-54527822D01*
X44170472Y-54514851D01*
X44221008Y-54348255D01*
X44238072Y-54175001D01*
X44238072Y-51324999D01*
X44221008Y-51151745D01*
X44170472Y-50985149D01*
X44088405Y-50831613D01*
X43977962Y-50697038D01*
X43972500Y-50692555D01*
X43972500Y-50663300D01*
X44064939Y-50663300D01*
X44264898Y-50623526D01*
X44453256Y-50545505D01*
X44514115Y-50504840D01*
X44454774Y-50648102D01*
G37*
G04 #@! TD.AperFunction*
D28*
X39669463Y-40504494D02*
X39748815Y-40601185D01*
X39845506Y-40680537D01*
X39861607Y-40689143D01*
X39777000Y-40773750D01*
X39777000Y-41573000D01*
X39797000Y-41573000D01*
X39797000Y-41827000D01*
X39777000Y-41827000D01*
X39777000Y-42626250D01*
X39935750Y-42785000D01*
X40050000Y-42788072D01*
X40174482Y-42775812D01*
X40294180Y-42739502D01*
X40404494Y-42680537D01*
X40501185Y-42601185D01*
X40580537Y-42504494D01*
X40600000Y-42468082D01*
X40619463Y-42504494D01*
X40698815Y-42601185D01*
X40795506Y-42680537D01*
X40905820Y-42739502D01*
X41025518Y-42775812D01*
X41150000Y-42788072D01*
X41950000Y-42788072D01*
X42074482Y-42775812D01*
X42194180Y-42739502D01*
X42304494Y-42680537D01*
X42365659Y-42630340D01*
X42412967Y-42635000D01*
X42412976Y-42635000D01*
X42450299Y-42638676D01*
X42487622Y-42635000D01*
X42580386Y-42635000D01*
X42611595Y-42693387D01*
X42722038Y-42827962D01*
X42856613Y-42938405D01*
X43010149Y-43020472D01*
X43176745Y-43071008D01*
X43349999Y-43088072D01*
X44250001Y-43088072D01*
X44423255Y-43071008D01*
X44589851Y-43020472D01*
X44743387Y-42938405D01*
X44877962Y-42827962D01*
X44988405Y-42693387D01*
X45019614Y-42635000D01*
X47936878Y-42635000D01*
X47974200Y-42638676D01*
X48011522Y-42635000D01*
X48011533Y-42635000D01*
X48123186Y-42624003D01*
X48266447Y-42580546D01*
X48398476Y-42509974D01*
X48514201Y-42415001D01*
X48538004Y-42385997D01*
X49613828Y-41310174D01*
X49615000Y-41964250D01*
X49773750Y-42123000D01*
X51373000Y-42123000D01*
X51373000Y-42103000D01*
X51627000Y-42103000D01*
X51627000Y-42123000D01*
X53226250Y-42123000D01*
X53385000Y-41964250D01*
X53387293Y-40684600D01*
X64382589Y-40684600D01*
X64410094Y-40712105D01*
X64300000Y-40711928D01*
X64175518Y-40724188D01*
X64055820Y-40760498D01*
X63945506Y-40819463D01*
X63848815Y-40898815D01*
X63769463Y-40995506D01*
X63710498Y-41105820D01*
X63674188Y-41225518D01*
X63661928Y-41350000D01*
X63665000Y-42314250D01*
X63823750Y-42473000D01*
X66373000Y-42473000D01*
X66373000Y-40873750D01*
X66214250Y-40715000D01*
X65785699Y-40714312D01*
X65802711Y-40697300D01*
X67477599Y-40697300D01*
X67494162Y-40713863D01*
X66785750Y-40715000D01*
X66627000Y-40873750D01*
X66627000Y-42473000D01*
X66647000Y-42473000D01*
X66647000Y-42727000D01*
X66627000Y-42727000D01*
X66627000Y-44326250D01*
X66785750Y-44485000D01*
X67334207Y-44485880D01*
X64730089Y-47090000D01*
X60253711Y-47090000D01*
X60209774Y-47046063D01*
X60040256Y-46932795D01*
X59851898Y-46854774D01*
X59651939Y-46815000D01*
X59448061Y-46815000D01*
X59248102Y-46854774D01*
X59059744Y-46932795D01*
X58890226Y-47046063D01*
X58746063Y-47190226D01*
X58632795Y-47359744D01*
X58554774Y-47548102D01*
X58515000Y-47748061D01*
X58515000Y-47951939D01*
X58554774Y-48151898D01*
X58632795Y-48340256D01*
X58746063Y-48509774D01*
X58890226Y-48653937D01*
X59059744Y-48767205D01*
X59248102Y-48845226D01*
X59448061Y-48885000D01*
X59651939Y-48885000D01*
X59851898Y-48845226D01*
X60040256Y-48767205D01*
X60209774Y-48653937D01*
X60253711Y-48610000D01*
X63921621Y-48610000D01*
X63919454Y-48614054D01*
X63875997Y-48757315D01*
X63865000Y-48868968D01*
X63865000Y-48868978D01*
X63861324Y-48906300D01*
X63865000Y-48943623D01*
X63865001Y-50305100D01*
X59478122Y-50305100D01*
X59440799Y-50301424D01*
X59403476Y-50305100D01*
X59403467Y-50305100D01*
X59291814Y-50316097D01*
X59148553Y-50359554D01*
X59016524Y-50430126D01*
X59016522Y-50430127D01*
X59016523Y-50430127D01*
X58929796Y-50501301D01*
X58929792Y-50501305D01*
X58900799Y-50525099D01*
X58877005Y-50554092D01*
X58399363Y-51031735D01*
X58374482Y-51024188D01*
X58250000Y-51011928D01*
X58135750Y-51015000D01*
X57977000Y-51173750D01*
X57977000Y-51461659D01*
X57940426Y-51506224D01*
X57869854Y-51638254D01*
X57858488Y-51675724D01*
X57826397Y-51781514D01*
X57815400Y-51893167D01*
X57815400Y-51893178D01*
X57811724Y-51930500D01*
X57815400Y-51967822D01*
X57815400Y-52115400D01*
X55482123Y-52115400D01*
X55444800Y-52111724D01*
X55407477Y-52115400D01*
X55407467Y-52115400D01*
X55295814Y-52126397D01*
X55153064Y-52169699D01*
X55152553Y-52169854D01*
X55020523Y-52240426D01*
X54936883Y-52309068D01*
X54904799Y-52335399D01*
X54881000Y-52364398D01*
X54421452Y-52823947D01*
X54273255Y-52778992D01*
X54100001Y-52761928D01*
X53449999Y-52761928D01*
X53276745Y-52778992D01*
X53110149Y-52829528D01*
X52956613Y-52911595D01*
X52822038Y-53022038D01*
X52711595Y-53156613D01*
X52629528Y-53310149D01*
X52620473Y-53340000D01*
X51879527Y-53340000D01*
X51870472Y-53310149D01*
X51788405Y-53156613D01*
X51677962Y-53022038D01*
X51543387Y-52911595D01*
X51389851Y-52829528D01*
X51223255Y-52778992D01*
X51050001Y-52761928D01*
X50461730Y-52761928D01*
X49349802Y-51650000D01*
X56811928Y-51650000D01*
X56815000Y-51814250D01*
X56973750Y-51973000D01*
X57723000Y-51973000D01*
X57723000Y-51173750D01*
X57564250Y-51015000D01*
X57450000Y-51011928D01*
X57325518Y-51024188D01*
X57205820Y-51060498D01*
X57095506Y-51119463D01*
X56998815Y-51198815D01*
X56919463Y-51295506D01*
X56860498Y-51405820D01*
X56824188Y-51525518D01*
X56811928Y-51650000D01*
X49349802Y-51650000D01*
X46817104Y-49117303D01*
X46811111Y-49110000D01*
X49611928Y-49110000D01*
X49611928Y-50350000D01*
X49624188Y-50474482D01*
X49660498Y-50594180D01*
X49719463Y-50704494D01*
X49798815Y-50801185D01*
X49895506Y-50880537D01*
X50005820Y-50939502D01*
X50125518Y-50975812D01*
X50250000Y-50988072D01*
X52750000Y-50988072D01*
X52874482Y-50975812D01*
X52994180Y-50939502D01*
X53104494Y-50880537D01*
X53201185Y-50801185D01*
X53280537Y-50704494D01*
X53339502Y-50594180D01*
X53375812Y-50474482D01*
X53388072Y-50350000D01*
X53388072Y-46350000D01*
X53375812Y-46225518D01*
X53339502Y-46105820D01*
X53280537Y-45995506D01*
X53201185Y-45898815D01*
X53104494Y-45819463D01*
X52994180Y-45760498D01*
X52874482Y-45724188D01*
X52750000Y-45711928D01*
X50250000Y-45711928D01*
X50125518Y-45724188D01*
X50005820Y-45760498D01*
X49895506Y-45819463D01*
X49798815Y-45898815D01*
X49719463Y-45995506D01*
X49660498Y-46105820D01*
X49624188Y-46225518D01*
X49611928Y-46350000D01*
X49611928Y-47590000D01*
X44189622Y-47590000D01*
X44152300Y-47586324D01*
X44114977Y-47590000D01*
X44114967Y-47590000D01*
X44003314Y-47600997D01*
X43881092Y-47638072D01*
X43860053Y-47644454D01*
X43728023Y-47715026D01*
X43654314Y-47775518D01*
X43612299Y-47809999D01*
X43588501Y-47838997D01*
X42897300Y-48530199D01*
X42893252Y-48529800D01*
X42837500Y-48524309D01*
X42781749Y-48529800D01*
X41427000Y-48529800D01*
X41427000Y-45672802D01*
X41539802Y-45560000D01*
X53096289Y-45560000D01*
X53140226Y-45603937D01*
X53309744Y-45717205D01*
X53498102Y-45795226D01*
X53698061Y-45835000D01*
X53901939Y-45835000D01*
X54101898Y-45795226D01*
X54290256Y-45717205D01*
X54459774Y-45603937D01*
X54603937Y-45459774D01*
X54717205Y-45290256D01*
X54795226Y-45101898D01*
X54835000Y-44901939D01*
X54835000Y-44698061D01*
X54795226Y-44498102D01*
X54717205Y-44309744D01*
X54603937Y-44140226D01*
X54459774Y-43996063D01*
X54290256Y-43882795D01*
X54211083Y-43850000D01*
X63661928Y-43850000D01*
X63674188Y-43974482D01*
X63710498Y-44094180D01*
X63769463Y-44204494D01*
X63848815Y-44301185D01*
X63945506Y-44380537D01*
X64055820Y-44439502D01*
X64175518Y-44475812D01*
X64300000Y-44488072D01*
X66214250Y-44485000D01*
X66373000Y-44326250D01*
X66373000Y-42727000D01*
X63823750Y-42727000D01*
X63665000Y-42885750D01*
X63661928Y-43850000D01*
X54211083Y-43850000D01*
X54101898Y-43804774D01*
X53901939Y-43765000D01*
X53698061Y-43765000D01*
X53498102Y-43804774D01*
X53387356Y-43850647D01*
X53385000Y-42535750D01*
X53226250Y-42377000D01*
X51627000Y-42377000D01*
X51627000Y-42397000D01*
X51373000Y-42397000D01*
X51373000Y-42377000D01*
X49773750Y-42377000D01*
X49615000Y-42535750D01*
X49612304Y-44040000D01*
X41427000Y-44040000D01*
X41427000Y-43700000D01*
X41424560Y-43675224D01*
X41417333Y-43651399D01*
X41405597Y-43629443D01*
X41389803Y-43610197D01*
X41370557Y-43594403D01*
X41348601Y-43582667D01*
X41324776Y-43575440D01*
X41300000Y-43573000D01*
X37252258Y-43573000D01*
X37254292Y-43212753D01*
X37393387Y-43138405D01*
X37527962Y-43027962D01*
X37638405Y-42893387D01*
X37720472Y-42739851D01*
X37771008Y-42573255D01*
X37788072Y-42400001D01*
X37788072Y-42150000D01*
X38611928Y-42150000D01*
X38624188Y-42274482D01*
X38660498Y-42394180D01*
X38719463Y-42504494D01*
X38798815Y-42601185D01*
X38895506Y-42680537D01*
X39005820Y-42739502D01*
X39125518Y-42775812D01*
X39250000Y-42788072D01*
X39364250Y-42785000D01*
X39523000Y-42626250D01*
X39523000Y-41827000D01*
X38773750Y-41827000D01*
X38615000Y-41985750D01*
X38611928Y-42150000D01*
X37788072Y-42150000D01*
X37788072Y-41811729D01*
X38788876Y-40810926D01*
X38719463Y-40895506D01*
X38660498Y-41005820D01*
X38624188Y-41125518D01*
X38611928Y-41250000D01*
X38615000Y-41414250D01*
X38773750Y-41573000D01*
X39523000Y-41573000D01*
X39523000Y-40773750D01*
X39364250Y-40615000D01*
X39250000Y-40611928D01*
X39125518Y-40624188D01*
X39005820Y-40660498D01*
X38895506Y-40719463D01*
X38810926Y-40788876D01*
X39139802Y-40460000D01*
X39645680Y-40460000D01*
X39669463Y-40504494D01*
G04 #@! TA.AperFunction,Conductor*
D29*
G36*
X39669463Y-40504494D02*
G01*
X39748815Y-40601185D01*
X39845506Y-40680537D01*
X39861607Y-40689143D01*
X39777000Y-40773750D01*
X39777000Y-41573000D01*
X39797000Y-41573000D01*
X39797000Y-41827000D01*
X39777000Y-41827000D01*
X39777000Y-42626250D01*
X39935750Y-42785000D01*
X40050000Y-42788072D01*
X40174482Y-42775812D01*
X40294180Y-42739502D01*
X40404494Y-42680537D01*
X40501185Y-42601185D01*
X40580537Y-42504494D01*
X40600000Y-42468082D01*
X40619463Y-42504494D01*
X40698815Y-42601185D01*
X40795506Y-42680537D01*
X40905820Y-42739502D01*
X41025518Y-42775812D01*
X41150000Y-42788072D01*
X41950000Y-42788072D01*
X42074482Y-42775812D01*
X42194180Y-42739502D01*
X42304494Y-42680537D01*
X42365659Y-42630340D01*
X42412967Y-42635000D01*
X42412976Y-42635000D01*
X42450299Y-42638676D01*
X42487622Y-42635000D01*
X42580386Y-42635000D01*
X42611595Y-42693387D01*
X42722038Y-42827962D01*
X42856613Y-42938405D01*
X43010149Y-43020472D01*
X43176745Y-43071008D01*
X43349999Y-43088072D01*
X44250001Y-43088072D01*
X44423255Y-43071008D01*
X44589851Y-43020472D01*
X44743387Y-42938405D01*
X44877962Y-42827962D01*
X44988405Y-42693387D01*
X45019614Y-42635000D01*
X47936878Y-42635000D01*
X47974200Y-42638676D01*
X48011522Y-42635000D01*
X48011533Y-42635000D01*
X48123186Y-42624003D01*
X48266447Y-42580546D01*
X48398476Y-42509974D01*
X48514201Y-42415001D01*
X48538004Y-42385997D01*
X49613828Y-41310174D01*
X49615000Y-41964250D01*
X49773750Y-42123000D01*
X51373000Y-42123000D01*
X51373000Y-42103000D01*
X51627000Y-42103000D01*
X51627000Y-42123000D01*
X53226250Y-42123000D01*
X53385000Y-41964250D01*
X53387293Y-40684600D01*
X64382589Y-40684600D01*
X64410094Y-40712105D01*
X64300000Y-40711928D01*
X64175518Y-40724188D01*
X64055820Y-40760498D01*
X63945506Y-40819463D01*
X63848815Y-40898815D01*
X63769463Y-40995506D01*
X63710498Y-41105820D01*
X63674188Y-41225518D01*
X63661928Y-41350000D01*
X63665000Y-42314250D01*
X63823750Y-42473000D01*
X66373000Y-42473000D01*
X66373000Y-40873750D01*
X66214250Y-40715000D01*
X65785699Y-40714312D01*
X65802711Y-40697300D01*
X67477599Y-40697300D01*
X67494162Y-40713863D01*
X66785750Y-40715000D01*
X66627000Y-40873750D01*
X66627000Y-42473000D01*
X66647000Y-42473000D01*
X66647000Y-42727000D01*
X66627000Y-42727000D01*
X66627000Y-44326250D01*
X66785750Y-44485000D01*
X67334207Y-44485880D01*
X64730089Y-47090000D01*
X60253711Y-47090000D01*
X60209774Y-47046063D01*
X60040256Y-46932795D01*
X59851898Y-46854774D01*
X59651939Y-46815000D01*
X59448061Y-46815000D01*
X59248102Y-46854774D01*
X59059744Y-46932795D01*
X58890226Y-47046063D01*
X58746063Y-47190226D01*
X58632795Y-47359744D01*
X58554774Y-47548102D01*
X58515000Y-47748061D01*
X58515000Y-47951939D01*
X58554774Y-48151898D01*
X58632795Y-48340256D01*
X58746063Y-48509774D01*
X58890226Y-48653937D01*
X59059744Y-48767205D01*
X59248102Y-48845226D01*
X59448061Y-48885000D01*
X59651939Y-48885000D01*
X59851898Y-48845226D01*
X60040256Y-48767205D01*
X60209774Y-48653937D01*
X60253711Y-48610000D01*
X63921621Y-48610000D01*
X63919454Y-48614054D01*
X63875997Y-48757315D01*
X63865000Y-48868968D01*
X63865000Y-48868978D01*
X63861324Y-48906300D01*
X63865000Y-48943623D01*
X63865001Y-50305100D01*
X59478122Y-50305100D01*
X59440799Y-50301424D01*
X59403476Y-50305100D01*
X59403467Y-50305100D01*
X59291814Y-50316097D01*
X59148553Y-50359554D01*
X59016524Y-50430126D01*
X59016522Y-50430127D01*
X59016523Y-50430127D01*
X58929796Y-50501301D01*
X58929792Y-50501305D01*
X58900799Y-50525099D01*
X58877005Y-50554092D01*
X58399363Y-51031735D01*
X58374482Y-51024188D01*
X58250000Y-51011928D01*
X58135750Y-51015000D01*
X57977000Y-51173750D01*
X57977000Y-51461659D01*
X57940426Y-51506224D01*
X57869854Y-51638254D01*
X57858488Y-51675724D01*
X57826397Y-51781514D01*
X57815400Y-51893167D01*
X57815400Y-51893178D01*
X57811724Y-51930500D01*
X57815400Y-51967822D01*
X57815400Y-52115400D01*
X55482123Y-52115400D01*
X55444800Y-52111724D01*
X55407477Y-52115400D01*
X55407467Y-52115400D01*
X55295814Y-52126397D01*
X55153064Y-52169699D01*
X55152553Y-52169854D01*
X55020523Y-52240426D01*
X54936883Y-52309068D01*
X54904799Y-52335399D01*
X54881000Y-52364398D01*
X54421452Y-52823947D01*
X54273255Y-52778992D01*
X54100001Y-52761928D01*
X53449999Y-52761928D01*
X53276745Y-52778992D01*
X53110149Y-52829528D01*
X52956613Y-52911595D01*
X52822038Y-53022038D01*
X52711595Y-53156613D01*
X52629528Y-53310149D01*
X52620473Y-53340000D01*
X51879527Y-53340000D01*
X51870472Y-53310149D01*
X51788405Y-53156613D01*
X51677962Y-53022038D01*
X51543387Y-52911595D01*
X51389851Y-52829528D01*
X51223255Y-52778992D01*
X51050001Y-52761928D01*
X50461730Y-52761928D01*
X49349802Y-51650000D01*
X56811928Y-51650000D01*
X56815000Y-51814250D01*
X56973750Y-51973000D01*
X57723000Y-51973000D01*
X57723000Y-51173750D01*
X57564250Y-51015000D01*
X57450000Y-51011928D01*
X57325518Y-51024188D01*
X57205820Y-51060498D01*
X57095506Y-51119463D01*
X56998815Y-51198815D01*
X56919463Y-51295506D01*
X56860498Y-51405820D01*
X56824188Y-51525518D01*
X56811928Y-51650000D01*
X49349802Y-51650000D01*
X46817104Y-49117303D01*
X46811111Y-49110000D01*
X49611928Y-49110000D01*
X49611928Y-50350000D01*
X49624188Y-50474482D01*
X49660498Y-50594180D01*
X49719463Y-50704494D01*
X49798815Y-50801185D01*
X49895506Y-50880537D01*
X50005820Y-50939502D01*
X50125518Y-50975812D01*
X50250000Y-50988072D01*
X52750000Y-50988072D01*
X52874482Y-50975812D01*
X52994180Y-50939502D01*
X53104494Y-50880537D01*
X53201185Y-50801185D01*
X53280537Y-50704494D01*
X53339502Y-50594180D01*
X53375812Y-50474482D01*
X53388072Y-50350000D01*
X53388072Y-46350000D01*
X53375812Y-46225518D01*
X53339502Y-46105820D01*
X53280537Y-45995506D01*
X53201185Y-45898815D01*
X53104494Y-45819463D01*
X52994180Y-45760498D01*
X52874482Y-45724188D01*
X52750000Y-45711928D01*
X50250000Y-45711928D01*
X50125518Y-45724188D01*
X50005820Y-45760498D01*
X49895506Y-45819463D01*
X49798815Y-45898815D01*
X49719463Y-45995506D01*
X49660498Y-46105820D01*
X49624188Y-46225518D01*
X49611928Y-46350000D01*
X49611928Y-47590000D01*
X44189622Y-47590000D01*
X44152300Y-47586324D01*
X44114977Y-47590000D01*
X44114967Y-47590000D01*
X44003314Y-47600997D01*
X43881092Y-47638072D01*
X43860053Y-47644454D01*
X43728023Y-47715026D01*
X43654314Y-47775518D01*
X43612299Y-47809999D01*
X43588501Y-47838997D01*
X42897300Y-48530199D01*
X42893252Y-48529800D01*
X42837500Y-48524309D01*
X42781749Y-48529800D01*
X41427000Y-48529800D01*
X41427000Y-45672802D01*
X41539802Y-45560000D01*
X53096289Y-45560000D01*
X53140226Y-45603937D01*
X53309744Y-45717205D01*
X53498102Y-45795226D01*
X53698061Y-45835000D01*
X53901939Y-45835000D01*
X54101898Y-45795226D01*
X54290256Y-45717205D01*
X54459774Y-45603937D01*
X54603937Y-45459774D01*
X54717205Y-45290256D01*
X54795226Y-45101898D01*
X54835000Y-44901939D01*
X54835000Y-44698061D01*
X54795226Y-44498102D01*
X54717205Y-44309744D01*
X54603937Y-44140226D01*
X54459774Y-43996063D01*
X54290256Y-43882795D01*
X54211083Y-43850000D01*
X63661928Y-43850000D01*
X63674188Y-43974482D01*
X63710498Y-44094180D01*
X63769463Y-44204494D01*
X63848815Y-44301185D01*
X63945506Y-44380537D01*
X64055820Y-44439502D01*
X64175518Y-44475812D01*
X64300000Y-44488072D01*
X66214250Y-44485000D01*
X66373000Y-44326250D01*
X66373000Y-42727000D01*
X63823750Y-42727000D01*
X63665000Y-42885750D01*
X63661928Y-43850000D01*
X54211083Y-43850000D01*
X54101898Y-43804774D01*
X53901939Y-43765000D01*
X53698061Y-43765000D01*
X53498102Y-43804774D01*
X53387356Y-43850647D01*
X53385000Y-42535750D01*
X53226250Y-42377000D01*
X51627000Y-42377000D01*
X51627000Y-42397000D01*
X51373000Y-42397000D01*
X51373000Y-42377000D01*
X49773750Y-42377000D01*
X49615000Y-42535750D01*
X49612304Y-44040000D01*
X41427000Y-44040000D01*
X41427000Y-43700000D01*
X41424560Y-43675224D01*
X41417333Y-43651399D01*
X41405597Y-43629443D01*
X41389803Y-43610197D01*
X41370557Y-43594403D01*
X41348601Y-43582667D01*
X41324776Y-43575440D01*
X41300000Y-43573000D01*
X37252258Y-43573000D01*
X37254292Y-43212753D01*
X37393387Y-43138405D01*
X37527962Y-43027962D01*
X37638405Y-42893387D01*
X37720472Y-42739851D01*
X37771008Y-42573255D01*
X37788072Y-42400001D01*
X37788072Y-42150000D01*
X38611928Y-42150000D01*
X38624188Y-42274482D01*
X38660498Y-42394180D01*
X38719463Y-42504494D01*
X38798815Y-42601185D01*
X38895506Y-42680537D01*
X39005820Y-42739502D01*
X39125518Y-42775812D01*
X39250000Y-42788072D01*
X39364250Y-42785000D01*
X39523000Y-42626250D01*
X39523000Y-41827000D01*
X38773750Y-41827000D01*
X38615000Y-41985750D01*
X38611928Y-42150000D01*
X37788072Y-42150000D01*
X37788072Y-41811729D01*
X38788876Y-40810926D01*
X38719463Y-40895506D01*
X38660498Y-41005820D01*
X38624188Y-41125518D01*
X38611928Y-41250000D01*
X38615000Y-41414250D01*
X38773750Y-41573000D01*
X39523000Y-41573000D01*
X39523000Y-40773750D01*
X39364250Y-40615000D01*
X39250000Y-40611928D01*
X39125518Y-40624188D01*
X39005820Y-40660498D01*
X38895506Y-40719463D01*
X38810926Y-40788876D01*
X39139802Y-40460000D01*
X39645680Y-40460000D01*
X39669463Y-40504494D01*
G37*
G04 #@! TD.AperFunction*
D28*
X71767857Y-45910000D02*
X71767867Y-45910000D01*
X71805190Y-45913676D01*
X71842513Y-45910000D01*
X72266960Y-45910000D01*
X72085602Y-45946074D01*
X71897244Y-46024095D01*
X71727726Y-46137363D01*
X71583563Y-46281526D01*
X71470295Y-46451044D01*
X71392274Y-46639402D01*
X71352500Y-46839361D01*
X71352500Y-47043239D01*
X71392274Y-47243198D01*
X71470295Y-47431556D01*
X71583563Y-47601074D01*
X71627501Y-47645012D01*
X71627500Y-49867998D01*
X68661500Y-46901999D01*
X68661500Y-46839861D01*
X68621726Y-46639902D01*
X68543705Y-46451544D01*
X68430437Y-46282026D01*
X68377256Y-46228845D01*
X68542402Y-46063700D01*
X70127089Y-46063700D01*
X70171026Y-46107637D01*
X70340544Y-46220905D01*
X70528902Y-46298926D01*
X70728861Y-46338700D01*
X70932739Y-46338700D01*
X71132698Y-46298926D01*
X71321056Y-46220905D01*
X71490574Y-46107637D01*
X71634737Y-45963474D01*
X71676481Y-45901000D01*
X71767857Y-45910000D01*
G04 #@! TA.AperFunction,Conductor*
D29*
G36*
X71767857Y-45910000D02*
G01*
X71767867Y-45910000D01*
X71805190Y-45913676D01*
X71842513Y-45910000D01*
X72266960Y-45910000D01*
X72085602Y-45946074D01*
X71897244Y-46024095D01*
X71727726Y-46137363D01*
X71583563Y-46281526D01*
X71470295Y-46451044D01*
X71392274Y-46639402D01*
X71352500Y-46839361D01*
X71352500Y-47043239D01*
X71392274Y-47243198D01*
X71470295Y-47431556D01*
X71583563Y-47601074D01*
X71627501Y-47645012D01*
X71627500Y-49867998D01*
X68661500Y-46901999D01*
X68661500Y-46839861D01*
X68621726Y-46639902D01*
X68543705Y-46451544D01*
X68430437Y-46282026D01*
X68377256Y-46228845D01*
X68542402Y-46063700D01*
X70127089Y-46063700D01*
X70171026Y-46107637D01*
X70340544Y-46220905D01*
X70528902Y-46298926D01*
X70728861Y-46338700D01*
X70932739Y-46338700D01*
X71132698Y-46298926D01*
X71321056Y-46220905D01*
X71490574Y-46107637D01*
X71634737Y-45963474D01*
X71676481Y-45901000D01*
X71767857Y-45910000D01*
G37*
G04 #@! TD.AperFunction*
M02*
