G04 #@! TF.GenerationSoftware,KiCad,Pcbnew,(5.1.9-0-10_14)*
G04 #@! TF.CreationDate,2021-03-28T22:25:10+02:00*
G04 #@! TF.ProjectId,HB-ES-PMSw1-USB,48422d45-532d-4504-9d53-77312d555342,rev?*
G04 #@! TF.SameCoordinates,Original*
G04 #@! TF.FileFunction,Legend,Bot*
G04 #@! TF.FilePolarity,Positive*
%FSLAX46Y46*%
G04 Gerber Fmt 4.6, Leading zero omitted, Abs format (unit mm)*
G04 Created by KiCad (PCBNEW (5.1.9-0-10_14)) date 2021-03-28 22:25:10*
%MOMM*%
%LPD*%
G01*
G04 APERTURE LIST*
%ADD10C,0.150000*%
%ADD11C,0.100000*%
%ADD12C,0.120000*%
%ADD13C,0.127000*%
%ADD14C,0.099060*%
%ADD15C,0.200000*%
%ADD16C,0.015000*%
G04 APERTURE END LIST*
D10*
X48219047Y-35327380D02*
X48219047Y-34327380D01*
X48219047Y-34803571D02*
X47647619Y-34803571D01*
X47647619Y-35327380D02*
X47647619Y-34327380D01*
X46838095Y-34803571D02*
X46695238Y-34851190D01*
X46647619Y-34898809D01*
X46600000Y-34994047D01*
X46600000Y-35136904D01*
X46647619Y-35232142D01*
X46695238Y-35279761D01*
X46790476Y-35327380D01*
X47171428Y-35327380D01*
X47171428Y-34327380D01*
X46838095Y-34327380D01*
X46742857Y-34375000D01*
X46695238Y-34422619D01*
X46647619Y-34517857D01*
X46647619Y-34613095D01*
X46695238Y-34708333D01*
X46742857Y-34755952D01*
X46838095Y-34803571D01*
X47171428Y-34803571D01*
X46171428Y-34946428D02*
X45409523Y-34946428D01*
X44933333Y-34803571D02*
X44600000Y-34803571D01*
X44457142Y-35327380D02*
X44933333Y-35327380D01*
X44933333Y-34327380D01*
X44457142Y-34327380D01*
X44076190Y-35279761D02*
X43933333Y-35327380D01*
X43695238Y-35327380D01*
X43600000Y-35279761D01*
X43552380Y-35232142D01*
X43504761Y-35136904D01*
X43504761Y-35041666D01*
X43552380Y-34946428D01*
X43600000Y-34898809D01*
X43695238Y-34851190D01*
X43885714Y-34803571D01*
X43980952Y-34755952D01*
X44028571Y-34708333D01*
X44076190Y-34613095D01*
X44076190Y-34517857D01*
X44028571Y-34422619D01*
X43980952Y-34375000D01*
X43885714Y-34327380D01*
X43647619Y-34327380D01*
X43504761Y-34375000D01*
X43076190Y-34946428D02*
X42314285Y-34946428D01*
X41838095Y-35327380D02*
X41838095Y-34327380D01*
X41457142Y-34327380D01*
X41361904Y-34375000D01*
X41314285Y-34422619D01*
X41266666Y-34517857D01*
X41266666Y-34660714D01*
X41314285Y-34755952D01*
X41361904Y-34803571D01*
X41457142Y-34851190D01*
X41838095Y-34851190D01*
X40838095Y-35327380D02*
X40838095Y-34327380D01*
X40504761Y-35041666D01*
X40171428Y-34327380D01*
X40171428Y-35327380D01*
X39742857Y-35279761D02*
X39600000Y-35327380D01*
X39361904Y-35327380D01*
X39266666Y-35279761D01*
X39219047Y-35232142D01*
X39171428Y-35136904D01*
X39171428Y-35041666D01*
X39219047Y-34946428D01*
X39266666Y-34898809D01*
X39361904Y-34851190D01*
X39552380Y-34803571D01*
X39647619Y-34755952D01*
X39695238Y-34708333D01*
X39742857Y-34613095D01*
X39742857Y-34517857D01*
X39695238Y-34422619D01*
X39647619Y-34375000D01*
X39552380Y-34327380D01*
X39314285Y-34327380D01*
X39171428Y-34375000D01*
X38838095Y-34660714D02*
X38647619Y-35327380D01*
X38457142Y-34851190D01*
X38266666Y-35327380D01*
X38076190Y-34660714D01*
X37171428Y-35327380D02*
X37742857Y-35327380D01*
X37457142Y-35327380D02*
X37457142Y-34327380D01*
X37552380Y-34470238D01*
X37647619Y-34565476D01*
X37742857Y-34613095D01*
X36742857Y-34946428D02*
X35980952Y-34946428D01*
X35504761Y-34327380D02*
X35504761Y-35136904D01*
X35457142Y-35232142D01*
X35409523Y-35279761D01*
X35314285Y-35327380D01*
X35123809Y-35327380D01*
X35028571Y-35279761D01*
X34980952Y-35232142D01*
X34933333Y-35136904D01*
X34933333Y-34327380D01*
X34504761Y-35279761D02*
X34361904Y-35327380D01*
X34123809Y-35327380D01*
X34028571Y-35279761D01*
X33980952Y-35232142D01*
X33933333Y-35136904D01*
X33933333Y-35041666D01*
X33980952Y-34946428D01*
X34028571Y-34898809D01*
X34123809Y-34851190D01*
X34314285Y-34803571D01*
X34409523Y-34755952D01*
X34457142Y-34708333D01*
X34504761Y-34613095D01*
X34504761Y-34517857D01*
X34457142Y-34422619D01*
X34409523Y-34375000D01*
X34314285Y-34327380D01*
X34076190Y-34327380D01*
X33933333Y-34375000D01*
X33171428Y-34803571D02*
X33028571Y-34851190D01*
X32980952Y-34898809D01*
X32933333Y-34994047D01*
X32933333Y-35136904D01*
X32980952Y-35232142D01*
X33028571Y-35279761D01*
X33123809Y-35327380D01*
X33504761Y-35327380D01*
X33504761Y-34327380D01*
X33171428Y-34327380D01*
X33076190Y-34375000D01*
X33028571Y-34422619D01*
X32980952Y-34517857D01*
X32980952Y-34613095D01*
X33028571Y-34708333D01*
X33076190Y-34755952D01*
X33171428Y-34803571D01*
X33504761Y-34803571D01*
X47076190Y-37358333D02*
X47123809Y-37310714D01*
X47219047Y-37167857D01*
X47266666Y-37072619D01*
X47314285Y-36929761D01*
X47361904Y-36691666D01*
X47361904Y-36501190D01*
X47314285Y-36263095D01*
X47266666Y-36120238D01*
X47219047Y-36025000D01*
X47123809Y-35882142D01*
X47076190Y-35834523D01*
X46266666Y-36929761D02*
X46361904Y-36977380D01*
X46552380Y-36977380D01*
X46647619Y-36929761D01*
X46695238Y-36882142D01*
X46742857Y-36786904D01*
X46742857Y-36501190D01*
X46695238Y-36405952D01*
X46647619Y-36358333D01*
X46552380Y-36310714D01*
X46361904Y-36310714D01*
X46266666Y-36358333D01*
X45933333Y-37358333D02*
X45885714Y-37310714D01*
X45790476Y-37167857D01*
X45742857Y-37072619D01*
X45695238Y-36929761D01*
X45647619Y-36691666D01*
X45647619Y-36501190D01*
X45695238Y-36263095D01*
X45742857Y-36120238D01*
X45790476Y-36025000D01*
X45885714Y-35882142D01*
X45933333Y-35834523D01*
X44457142Y-36072619D02*
X44409523Y-36025000D01*
X44314285Y-35977380D01*
X44076190Y-35977380D01*
X43980952Y-36025000D01*
X43933333Y-36072619D01*
X43885714Y-36167857D01*
X43885714Y-36263095D01*
X43933333Y-36405952D01*
X44504761Y-36977380D01*
X43885714Y-36977380D01*
X43266666Y-35977380D02*
X43171428Y-35977380D01*
X43076190Y-36025000D01*
X43028571Y-36072619D01*
X42980952Y-36167857D01*
X42933333Y-36358333D01*
X42933333Y-36596428D01*
X42980952Y-36786904D01*
X43028571Y-36882142D01*
X43076190Y-36929761D01*
X43171428Y-36977380D01*
X43266666Y-36977380D01*
X43361904Y-36929761D01*
X43409523Y-36882142D01*
X43457142Y-36786904D01*
X43504761Y-36596428D01*
X43504761Y-36358333D01*
X43457142Y-36167857D01*
X43409523Y-36072619D01*
X43361904Y-36025000D01*
X43266666Y-35977380D01*
X42552380Y-36072619D02*
X42504761Y-36025000D01*
X42409523Y-35977380D01*
X42171428Y-35977380D01*
X42076190Y-36025000D01*
X42028571Y-36072619D01*
X41980952Y-36167857D01*
X41980952Y-36263095D01*
X42028571Y-36405952D01*
X42600000Y-36977380D01*
X41980952Y-36977380D01*
X41028571Y-36977380D02*
X41600000Y-36977380D01*
X41314285Y-36977380D02*
X41314285Y-35977380D01*
X41409523Y-36120238D01*
X41504761Y-36215476D01*
X41600000Y-36263095D01*
X39838095Y-36310714D02*
X39838095Y-37167857D01*
X39885714Y-37263095D01*
X39980952Y-37310714D01*
X40028571Y-37310714D01*
X39838095Y-35977380D02*
X39885714Y-36025000D01*
X39838095Y-36072619D01*
X39790476Y-36025000D01*
X39838095Y-35977380D01*
X39838095Y-36072619D01*
X39361904Y-36310714D02*
X39361904Y-37310714D01*
X39361904Y-36358333D02*
X39266666Y-36310714D01*
X39076190Y-36310714D01*
X38980952Y-36358333D01*
X38933333Y-36405952D01*
X38885714Y-36501190D01*
X38885714Y-36786904D01*
X38933333Y-36882142D01*
X38980952Y-36929761D01*
X39076190Y-36977380D01*
X39266666Y-36977380D01*
X39361904Y-36929761D01*
X37933333Y-36977380D02*
X38504761Y-36977380D01*
X38219047Y-36977380D02*
X38219047Y-35977380D01*
X38314285Y-36120238D01*
X38409523Y-36215476D01*
X38504761Y-36263095D01*
X36980952Y-36977380D02*
X37552380Y-36977380D01*
X37266666Y-36977380D02*
X37266666Y-35977380D01*
X37361904Y-36120238D01*
X37457142Y-36215476D01*
X37552380Y-36263095D01*
X36600000Y-36072619D02*
X36552380Y-36025000D01*
X36457142Y-35977380D01*
X36219047Y-35977380D01*
X36123809Y-36025000D01*
X36076190Y-36072619D01*
X36028571Y-36167857D01*
X36028571Y-36263095D01*
X36076190Y-36405952D01*
X36647619Y-36977380D01*
X36028571Y-36977380D01*
X35647619Y-36929761D02*
X35552380Y-36977380D01*
X35361904Y-36977380D01*
X35266666Y-36929761D01*
X35219047Y-36834523D01*
X35219047Y-36786904D01*
X35266666Y-36691666D01*
X35361904Y-36644047D01*
X35504761Y-36644047D01*
X35600000Y-36596428D01*
X35647619Y-36501190D01*
X35647619Y-36453571D01*
X35600000Y-36358333D01*
X35504761Y-36310714D01*
X35361904Y-36310714D01*
X35266666Y-36358333D01*
X34361904Y-36977380D02*
X34361904Y-35977380D01*
X34361904Y-36929761D02*
X34457142Y-36977380D01*
X34647619Y-36977380D01*
X34742857Y-36929761D01*
X34790476Y-36882142D01*
X34838095Y-36786904D01*
X34838095Y-36501190D01*
X34790476Y-36405952D01*
X34742857Y-36358333D01*
X34647619Y-36310714D01*
X34457142Y-36310714D01*
X34361904Y-36358333D01*
X33742857Y-36977380D02*
X33838095Y-36929761D01*
X33885714Y-36834523D01*
X33885714Y-35977380D01*
D11*
X45957142Y-39007142D02*
X46171428Y-39007142D01*
X46171428Y-37721428D01*
X45957142Y-37721428D01*
X45100000Y-38621428D02*
X45142857Y-38664285D01*
X45271428Y-38707142D01*
X45357142Y-38707142D01*
X45485714Y-38664285D01*
X45571428Y-38578571D01*
X45614285Y-38492857D01*
X45657142Y-38321428D01*
X45657142Y-38192857D01*
X45614285Y-38021428D01*
X45571428Y-37935714D01*
X45485714Y-37850000D01*
X45357142Y-37807142D01*
X45271428Y-37807142D01*
X45142857Y-37850000D01*
X45100000Y-37892857D01*
X44200000Y-38621428D02*
X44242857Y-38664285D01*
X44371428Y-38707142D01*
X44457142Y-38707142D01*
X44585714Y-38664285D01*
X44671428Y-38578571D01*
X44714285Y-38492857D01*
X44757142Y-38321428D01*
X44757142Y-38192857D01*
X44714285Y-38021428D01*
X44671428Y-37935714D01*
X44585714Y-37850000D01*
X44457142Y-37807142D01*
X44371428Y-37807142D01*
X44242857Y-37850000D01*
X44200000Y-37892857D01*
X42828571Y-38235714D02*
X42700000Y-38278571D01*
X42657142Y-38321428D01*
X42614285Y-38407142D01*
X42614285Y-38535714D01*
X42657142Y-38621428D01*
X42700000Y-38664285D01*
X42785714Y-38707142D01*
X43128571Y-38707142D01*
X43128571Y-37807142D01*
X42828571Y-37807142D01*
X42742857Y-37850000D01*
X42700000Y-37892857D01*
X42657142Y-37978571D01*
X42657142Y-38064285D01*
X42700000Y-38150000D01*
X42742857Y-38192857D01*
X42828571Y-38235714D01*
X43128571Y-38235714D01*
X42057142Y-38278571D02*
X42057142Y-38707142D01*
X42357142Y-37807142D02*
X42057142Y-38278571D01*
X41757142Y-37807142D01*
X41457142Y-38364285D02*
X40771428Y-38364285D01*
X40342857Y-38707142D02*
X40342857Y-37807142D01*
X39828571Y-38707142D01*
X39828571Y-37807142D01*
X38885714Y-38621428D02*
X38928571Y-38664285D01*
X39057142Y-38707142D01*
X39142857Y-38707142D01*
X39271428Y-38664285D01*
X39357142Y-38578571D01*
X39400000Y-38492857D01*
X39442857Y-38321428D01*
X39442857Y-38192857D01*
X39400000Y-38021428D01*
X39357142Y-37935714D01*
X39271428Y-37850000D01*
X39142857Y-37807142D01*
X39057142Y-37807142D01*
X38928571Y-37850000D01*
X38885714Y-37892857D01*
X38500000Y-38364285D02*
X37814285Y-38364285D01*
X37428571Y-38664285D02*
X37300000Y-38707142D01*
X37085714Y-38707142D01*
X37000000Y-38664285D01*
X36957142Y-38621428D01*
X36914285Y-38535714D01*
X36914285Y-38450000D01*
X36957142Y-38364285D01*
X37000000Y-38321428D01*
X37085714Y-38278571D01*
X37257142Y-38235714D01*
X37342857Y-38192857D01*
X37385714Y-38150000D01*
X37428571Y-38064285D01*
X37428571Y-37978571D01*
X37385714Y-37892857D01*
X37342857Y-37850000D01*
X37257142Y-37807142D01*
X37042857Y-37807142D01*
X36914285Y-37850000D01*
X36571428Y-38450000D02*
X36142857Y-38450000D01*
X36657142Y-38707142D02*
X36357142Y-37807142D01*
X36057142Y-38707142D01*
X35842857Y-39007142D02*
X35628571Y-39007142D01*
X35628571Y-37721428D01*
X35842857Y-37721428D01*
X59690476Y-34761904D02*
X59195238Y-34761904D01*
X59461904Y-35066666D01*
X59347619Y-35066666D01*
X59271428Y-35104761D01*
X59233333Y-35142857D01*
X59195238Y-35219047D01*
X59195238Y-35409523D01*
X59233333Y-35485714D01*
X59271428Y-35523809D01*
X59347619Y-35561904D01*
X59576190Y-35561904D01*
X59652380Y-35523809D01*
X59690476Y-35485714D01*
X58966666Y-34761904D02*
X58700000Y-35561904D01*
X58433333Y-34761904D01*
X58242857Y-34761904D02*
X57747619Y-34761904D01*
X58014285Y-35066666D01*
X57900000Y-35066666D01*
X57823809Y-35104761D01*
X57785714Y-35142857D01*
X57747619Y-35219047D01*
X57747619Y-35409523D01*
X57785714Y-35485714D01*
X57823809Y-35523809D01*
X57900000Y-35561904D01*
X58128571Y-35561904D01*
X58204761Y-35523809D01*
X58242857Y-35485714D01*
X51309523Y-34800000D02*
X51385714Y-34761904D01*
X51500000Y-34761904D01*
X51614285Y-34800000D01*
X51690476Y-34876190D01*
X51728571Y-34952380D01*
X51766666Y-35104761D01*
X51766666Y-35219047D01*
X51728571Y-35371428D01*
X51690476Y-35447619D01*
X51614285Y-35523809D01*
X51500000Y-35561904D01*
X51423809Y-35561904D01*
X51309523Y-35523809D01*
X51271428Y-35485714D01*
X51271428Y-35219047D01*
X51423809Y-35219047D01*
X50928571Y-35561904D02*
X50928571Y-34761904D01*
X50471428Y-35561904D01*
X50471428Y-34761904D01*
X50090476Y-35561904D02*
X50090476Y-34761904D01*
X49900000Y-34761904D01*
X49785714Y-34800000D01*
X49709523Y-34876190D01*
X49671428Y-34952380D01*
X49633333Y-35104761D01*
X49633333Y-35219047D01*
X49671428Y-35371428D01*
X49709523Y-35447619D01*
X49785714Y-35523809D01*
X49900000Y-35561904D01*
X50090476Y-35561904D01*
D12*
X70261252Y-51210000D02*
X69738748Y-51210000D01*
X70261252Y-49790000D02*
X69738748Y-49790000D01*
D13*
X40440000Y-49202000D02*
X40440000Y-43868000D01*
X40440000Y-49202000D02*
X39297000Y-49202000D01*
X36630000Y-43868000D02*
X36630000Y-49202000D01*
X36630000Y-43868000D02*
X40440000Y-43868000D01*
X38027000Y-49202000D02*
X36630000Y-49202000D01*
X38027000Y-49202000D02*
G75*
G02*
X39297000Y-49202000I635000J0D01*
G01*
D14*
X44800000Y-41400000D02*
X44800000Y-60300000D01*
X61800000Y-60300000D02*
X44800000Y-60300000D01*
X61800000Y-41400000D02*
X61800000Y-60300000D01*
X44800000Y-41400000D02*
X61800000Y-41400000D01*
D12*
X95210000Y-51038748D02*
X95210000Y-51561252D01*
X93790000Y-51038748D02*
X93790000Y-51561252D01*
X91261252Y-46210000D02*
X90738748Y-46210000D01*
X91261252Y-44790000D02*
X90738748Y-44790000D01*
X91361252Y-53110000D02*
X90838748Y-53110000D01*
X91361252Y-51690000D02*
X90838748Y-51690000D01*
D13*
X89300000Y-47075000D02*
X92300000Y-47075000D01*
X89300000Y-50725000D02*
X92300000Y-50725000D01*
D15*
X88425000Y-49900000D02*
G75*
G03*
X88425000Y-49900000I-100000J0D01*
G01*
D12*
X49658600Y-35740000D02*
X49658600Y-37860000D01*
X49658600Y-37860000D02*
X61760000Y-37860000D01*
X49658600Y-35733200D02*
X61760000Y-35740000D01*
X61760000Y-35740000D02*
X61760000Y-37860000D01*
D10*
X73400000Y-47725000D02*
X73400000Y-49150000D01*
X73625000Y-40475000D02*
X73625000Y-40800000D01*
X66375000Y-40475000D02*
X66375000Y-40800000D01*
X66375000Y-47725000D02*
X66375000Y-47400000D01*
X73625000Y-47725000D02*
X73625000Y-47400000D01*
X66375000Y-47725000D02*
X66700000Y-47725000D01*
X66375000Y-40475000D02*
X66700000Y-40475000D01*
X73625000Y-40475000D02*
X73300000Y-40475000D01*
X73625000Y-47725000D02*
X73400000Y-47725000D01*
D12*
X81661252Y-44610000D02*
X81138748Y-44610000D01*
X81661252Y-43190000D02*
X81138748Y-43190000D01*
X81110000Y-40038748D02*
X81110000Y-40561252D01*
X79690000Y-40038748D02*
X79690000Y-40561252D01*
X70238748Y-36390000D02*
X70761252Y-36390000D01*
X70238748Y-37810000D02*
X70761252Y-37810000D01*
D10*
X70166666Y-52607142D02*
X70214285Y-52654761D01*
X70357142Y-52702380D01*
X70452380Y-52702380D01*
X70595238Y-52654761D01*
X70690476Y-52559523D01*
X70738095Y-52464285D01*
X70785714Y-52273809D01*
X70785714Y-52130952D01*
X70738095Y-51940476D01*
X70690476Y-51845238D01*
X70595238Y-51750000D01*
X70452380Y-51702380D01*
X70357142Y-51702380D01*
X70214285Y-51750000D01*
X70166666Y-51797619D01*
X69309523Y-52035714D02*
X69309523Y-52702380D01*
X69547619Y-51654761D02*
X69785714Y-52369047D01*
X69166666Y-52369047D01*
D16*
X39308180Y-39677095D02*
X40117704Y-39677095D01*
X40212942Y-39724714D01*
X40260561Y-39772333D01*
X40308180Y-39867571D01*
X40308180Y-40058047D01*
X40260561Y-40153285D01*
X40212942Y-40200904D01*
X40117704Y-40248523D01*
X39308180Y-40248523D01*
X39308180Y-41153285D02*
X39308180Y-40962809D01*
X39355800Y-40867571D01*
X39403419Y-40819952D01*
X39546276Y-40724714D01*
X39736752Y-40677095D01*
X40117704Y-40677095D01*
X40212942Y-40724714D01*
X40260561Y-40772333D01*
X40308180Y-40867571D01*
X40308180Y-41058047D01*
X40260561Y-41153285D01*
X40212942Y-41200904D01*
X40117704Y-41248523D01*
X39879609Y-41248523D01*
X39784371Y-41200904D01*
X39736752Y-41153285D01*
X39689133Y-41058047D01*
X39689133Y-40867571D01*
X39736752Y-40772333D01*
X39784371Y-40724714D01*
X39879609Y-40677095D01*
X39044628Y-45357057D02*
X39044628Y-45071342D01*
X39330342Y-45042771D01*
X39301771Y-45071342D01*
X39273200Y-45128485D01*
X39273200Y-45271342D01*
X39301771Y-45328485D01*
X39330342Y-45357057D01*
X39387485Y-45385628D01*
X39530342Y-45385628D01*
X39587485Y-45357057D01*
X39616057Y-45328485D01*
X39644628Y-45271342D01*
X39644628Y-45128485D01*
X39616057Y-45071342D01*
X39587485Y-45042771D01*
X36831628Y-45455485D02*
X37231628Y-45455485D01*
X36603057Y-45312628D02*
X37031628Y-45169771D01*
X37031628Y-45541200D01*
X39301771Y-48433657D02*
X39273200Y-48376514D01*
X39244628Y-48347942D01*
X39187485Y-48319371D01*
X39158914Y-48319371D01*
X39101771Y-48347942D01*
X39073200Y-48376514D01*
X39044628Y-48433657D01*
X39044628Y-48547942D01*
X39073200Y-48605085D01*
X39101771Y-48633657D01*
X39158914Y-48662228D01*
X39187485Y-48662228D01*
X39244628Y-48633657D01*
X39273200Y-48605085D01*
X39301771Y-48547942D01*
X39301771Y-48433657D01*
X39330342Y-48376514D01*
X39358914Y-48347942D01*
X39416057Y-48319371D01*
X39530342Y-48319371D01*
X39587485Y-48347942D01*
X39616057Y-48376514D01*
X39644628Y-48433657D01*
X39644628Y-48547942D01*
X39616057Y-48605085D01*
X39587485Y-48633657D01*
X39530342Y-48662228D01*
X39416057Y-48662228D01*
X39358914Y-48633657D01*
X39330342Y-48605085D01*
X39301771Y-48547942D01*
X37231628Y-48662228D02*
X37231628Y-48319371D01*
X37231628Y-48490800D02*
X36631628Y-48490800D01*
X36717342Y-48433657D01*
X36774485Y-48376514D01*
X36803057Y-48319371D01*
D10*
X45410380Y-44171095D02*
X46219904Y-44171095D01*
X46315142Y-44218714D01*
X46362761Y-44266333D01*
X46410380Y-44361571D01*
X46410380Y-44552047D01*
X46362761Y-44647285D01*
X46315142Y-44694904D01*
X46219904Y-44742523D01*
X45410380Y-44742523D01*
X46410380Y-45742523D02*
X46410380Y-45171095D01*
X46410380Y-45456809D02*
X45410380Y-45456809D01*
X45553238Y-45361571D01*
X45648476Y-45266333D01*
X45696095Y-45171095D01*
X46315142Y-55029761D02*
X46362761Y-54982142D01*
X46410380Y-54839285D01*
X46410380Y-54744047D01*
X46362761Y-54601190D01*
X46267523Y-54505952D01*
X46172285Y-54458333D01*
X45981809Y-54410714D01*
X45838952Y-54410714D01*
X45648476Y-54458333D01*
X45553238Y-54505952D01*
X45458000Y-54601190D01*
X45410380Y-54744047D01*
X45410380Y-54839285D01*
X45458000Y-54982142D01*
X45505619Y-55029761D01*
X46315142Y-56029761D02*
X46362761Y-55982142D01*
X46410380Y-55839285D01*
X46410380Y-55744047D01*
X46362761Y-55601190D01*
X46267523Y-55505952D01*
X46172285Y-55458333D01*
X45981809Y-55410714D01*
X45838952Y-55410714D01*
X45648476Y-55458333D01*
X45553238Y-55505952D01*
X45458000Y-55601190D01*
X45410380Y-55744047D01*
X45410380Y-55839285D01*
X45458000Y-55982142D01*
X45505619Y-56029761D01*
X46410380Y-56982142D02*
X46410380Y-56410714D01*
X46410380Y-56696428D02*
X45410380Y-56696428D01*
X45553238Y-56601190D01*
X45648476Y-56505952D01*
X45696095Y-56410714D01*
X46410380Y-57934523D02*
X46410380Y-57363095D01*
X46410380Y-57648809D02*
X45410380Y-57648809D01*
X45553238Y-57553571D01*
X45648476Y-57458333D01*
X45696095Y-57363095D01*
X45410380Y-58553571D02*
X45410380Y-58648809D01*
X45458000Y-58744047D01*
X45505619Y-58791666D01*
X45600857Y-58839285D01*
X45791333Y-58886904D01*
X46029428Y-58886904D01*
X46219904Y-58839285D01*
X46315142Y-58791666D01*
X46362761Y-58744047D01*
X46410380Y-58648809D01*
X46410380Y-58553571D01*
X46362761Y-58458333D01*
X46315142Y-58410714D01*
X46219904Y-58363095D01*
X46029428Y-58315476D01*
X45791333Y-58315476D01*
X45600857Y-58363095D01*
X45505619Y-58410714D01*
X45458000Y-58458333D01*
X45410380Y-58553571D01*
X46410380Y-59839285D02*
X46410380Y-59267857D01*
X46410380Y-59553571D02*
X45410380Y-59553571D01*
X45553238Y-59458333D01*
X45648476Y-59363095D01*
X45696095Y-59267857D01*
X95642857Y-54652380D02*
X95976190Y-54176190D01*
X96214285Y-54652380D02*
X96214285Y-53652380D01*
X95833333Y-53652380D01*
X95738095Y-53700000D01*
X95690476Y-53747619D01*
X95642857Y-53842857D01*
X95642857Y-53985714D01*
X95690476Y-54080952D01*
X95738095Y-54128571D01*
X95833333Y-54176190D01*
X96214285Y-54176190D01*
X94690476Y-54652380D02*
X95261904Y-54652380D01*
X94976190Y-54652380D02*
X94976190Y-53652380D01*
X95071428Y-53795238D01*
X95166666Y-53890476D01*
X95261904Y-53938095D01*
X94309523Y-53747619D02*
X94261904Y-53700000D01*
X94166666Y-53652380D01*
X93928571Y-53652380D01*
X93833333Y-53700000D01*
X93785714Y-53747619D01*
X93738095Y-53842857D01*
X93738095Y-53938095D01*
X93785714Y-54080952D01*
X94357142Y-54652380D01*
X93738095Y-54652380D01*
X91642857Y-44302380D02*
X91976190Y-43826190D01*
X92214285Y-44302380D02*
X92214285Y-43302380D01*
X91833333Y-43302380D01*
X91738095Y-43350000D01*
X91690476Y-43397619D01*
X91642857Y-43492857D01*
X91642857Y-43635714D01*
X91690476Y-43730952D01*
X91738095Y-43778571D01*
X91833333Y-43826190D01*
X92214285Y-43826190D01*
X90690476Y-44302380D02*
X91261904Y-44302380D01*
X90976190Y-44302380D02*
X90976190Y-43302380D01*
X91071428Y-43445238D01*
X91166666Y-43540476D01*
X91261904Y-43588095D01*
X89738095Y-44302380D02*
X90309523Y-44302380D01*
X90023809Y-44302380D02*
X90023809Y-43302380D01*
X90119047Y-43445238D01*
X90214285Y-43540476D01*
X90309523Y-43588095D01*
X91166666Y-54557142D02*
X91214285Y-54604761D01*
X91357142Y-54652380D01*
X91452380Y-54652380D01*
X91595238Y-54604761D01*
X91690476Y-54509523D01*
X91738095Y-54414285D01*
X91785714Y-54223809D01*
X91785714Y-54080952D01*
X91738095Y-53890476D01*
X91690476Y-53795238D01*
X91595238Y-53700000D01*
X91452380Y-53652380D01*
X91357142Y-53652380D01*
X91214285Y-53700000D01*
X91166666Y-53747619D01*
X90690476Y-54652380D02*
X90500000Y-54652380D01*
X90404761Y-54604761D01*
X90357142Y-54557142D01*
X90261904Y-54414285D01*
X90214285Y-54223809D01*
X90214285Y-53842857D01*
X90261904Y-53747619D01*
X90309523Y-53700000D01*
X90404761Y-53652380D01*
X90595238Y-53652380D01*
X90690476Y-53700000D01*
X90738095Y-53747619D01*
X90785714Y-53842857D01*
X90785714Y-54080952D01*
X90738095Y-54176190D01*
X90690476Y-54223809D01*
X90595238Y-54271428D01*
X90404761Y-54271428D01*
X90309523Y-54223809D01*
X90261904Y-54176190D01*
X90214285Y-54080952D01*
X94761904Y-47152380D02*
X94761904Y-47961904D01*
X94714285Y-48057142D01*
X94666666Y-48104761D01*
X94571428Y-48152380D01*
X94380952Y-48152380D01*
X94285714Y-48104761D01*
X94238095Y-48057142D01*
X94190476Y-47961904D01*
X94190476Y-47152380D01*
X93238095Y-47152380D02*
X93714285Y-47152380D01*
X93761904Y-47628571D01*
X93714285Y-47580952D01*
X93619047Y-47533333D01*
X93380952Y-47533333D01*
X93285714Y-47580952D01*
X93238095Y-47628571D01*
X93190476Y-47723809D01*
X93190476Y-47961904D01*
X93238095Y-48057142D01*
X93285714Y-48104761D01*
X93380952Y-48152380D01*
X93619047Y-48152380D01*
X93714285Y-48104761D01*
X93761904Y-48057142D01*
X63756190Y-35832380D02*
X63756190Y-34832380D01*
X63327619Y-35784761D02*
X63184761Y-35832380D01*
X62946666Y-35832380D01*
X62851428Y-35784761D01*
X62803809Y-35737142D01*
X62756190Y-35641904D01*
X62756190Y-35546666D01*
X62803809Y-35451428D01*
X62851428Y-35403809D01*
X62946666Y-35356190D01*
X63137142Y-35308571D01*
X63232380Y-35260952D01*
X63280000Y-35213333D01*
X63327619Y-35118095D01*
X63327619Y-35022857D01*
X63280000Y-34927619D01*
X63232380Y-34880000D01*
X63137142Y-34832380D01*
X62899047Y-34832380D01*
X62756190Y-34880000D01*
X62327619Y-35832380D02*
X62327619Y-34832380D01*
X61946666Y-34832380D01*
X61851428Y-34880000D01*
X61803809Y-34927619D01*
X61756190Y-35022857D01*
X61756190Y-35165714D01*
X61803809Y-35260952D01*
X61851428Y-35308571D01*
X61946666Y-35356190D01*
X62327619Y-35356190D01*
X67511904Y-34952380D02*
X67511904Y-35761904D01*
X67464285Y-35857142D01*
X67416666Y-35904761D01*
X67321428Y-35952380D01*
X67130952Y-35952380D01*
X67035714Y-35904761D01*
X66988095Y-35857142D01*
X66940476Y-35761904D01*
X66940476Y-34952380D01*
X66035714Y-35285714D02*
X66035714Y-35952380D01*
X66273809Y-34904761D02*
X66511904Y-35619047D01*
X65892857Y-35619047D01*
X81466666Y-46152380D02*
X81800000Y-45676190D01*
X82038095Y-46152380D02*
X82038095Y-45152380D01*
X81657142Y-45152380D01*
X81561904Y-45200000D01*
X81514285Y-45247619D01*
X81466666Y-45342857D01*
X81466666Y-45485714D01*
X81514285Y-45580952D01*
X81561904Y-45628571D01*
X81657142Y-45676190D01*
X82038095Y-45676190D01*
X80895238Y-45580952D02*
X80990476Y-45533333D01*
X81038095Y-45485714D01*
X81085714Y-45390476D01*
X81085714Y-45342857D01*
X81038095Y-45247619D01*
X80990476Y-45200000D01*
X80895238Y-45152380D01*
X80704761Y-45152380D01*
X80609523Y-45200000D01*
X80561904Y-45247619D01*
X80514285Y-45342857D01*
X80514285Y-45390476D01*
X80561904Y-45485714D01*
X80609523Y-45533333D01*
X80704761Y-45580952D01*
X80895238Y-45580952D01*
X80990476Y-45628571D01*
X81038095Y-45676190D01*
X81085714Y-45771428D01*
X81085714Y-45961904D01*
X81038095Y-46057142D01*
X80990476Y-46104761D01*
X80895238Y-46152380D01*
X80704761Y-46152380D01*
X80609523Y-46104761D01*
X80561904Y-46057142D01*
X80514285Y-45961904D01*
X80514285Y-45771428D01*
X80561904Y-45676190D01*
X80609523Y-45628571D01*
X80704761Y-45580952D01*
X80466666Y-43257142D02*
X80514285Y-43304761D01*
X80657142Y-43352380D01*
X80752380Y-43352380D01*
X80895238Y-43304761D01*
X80990476Y-43209523D01*
X81038095Y-43114285D01*
X81085714Y-42923809D01*
X81085714Y-42780952D01*
X81038095Y-42590476D01*
X80990476Y-42495238D01*
X80895238Y-42400000D01*
X80752380Y-42352380D01*
X80657142Y-42352380D01*
X80514285Y-42400000D01*
X80466666Y-42447619D01*
X79895238Y-42780952D02*
X79990476Y-42733333D01*
X80038095Y-42685714D01*
X80085714Y-42590476D01*
X80085714Y-42542857D01*
X80038095Y-42447619D01*
X79990476Y-42400000D01*
X79895238Y-42352380D01*
X79704761Y-42352380D01*
X79609523Y-42400000D01*
X79561904Y-42447619D01*
X79514285Y-42542857D01*
X79514285Y-42590476D01*
X79561904Y-42685714D01*
X79609523Y-42733333D01*
X79704761Y-42780952D01*
X79895238Y-42780952D01*
X79990476Y-42828571D01*
X80038095Y-42876190D01*
X80085714Y-42971428D01*
X80085714Y-43161904D01*
X80038095Y-43257142D01*
X79990476Y-43304761D01*
X79895238Y-43352380D01*
X79704761Y-43352380D01*
X79609523Y-43304761D01*
X79561904Y-43257142D01*
X79514285Y-43161904D01*
X79514285Y-42971428D01*
X79561904Y-42876190D01*
X79609523Y-42828571D01*
X79704761Y-42780952D01*
X70566666Y-35657142D02*
X70614285Y-35704761D01*
X70757142Y-35752380D01*
X70852380Y-35752380D01*
X70995238Y-35704761D01*
X71090476Y-35609523D01*
X71138095Y-35514285D01*
X71185714Y-35323809D01*
X71185714Y-35180952D01*
X71138095Y-34990476D01*
X71090476Y-34895238D01*
X70995238Y-34800000D01*
X70852380Y-34752380D01*
X70757142Y-34752380D01*
X70614285Y-34800000D01*
X70566666Y-34847619D01*
X70233333Y-34752380D02*
X69566666Y-34752380D01*
X69995238Y-35752380D01*
M02*
