G04 #@! TF.GenerationSoftware,KiCad,Pcbnew,(5.1.9-0-10_14)*
G04 #@! TF.CreationDate,2021-03-28T22:25:10+02:00*
G04 #@! TF.ProjectId,HB-ES-PMSw1-USB,48422d45-532d-4504-9d53-77312d555342,rev?*
G04 #@! TF.SameCoordinates,Original*
G04 #@! TF.FileFunction,Legend,Top*
G04 #@! TF.FilePolarity,Positive*
%FSLAX46Y46*%
G04 Gerber Fmt 4.6, Leading zero omitted, Abs format (unit mm)*
G04 Created by KiCad (PCBNEW (5.1.9-0-10_14)) date 2021-03-28 22:25:10*
%MOMM*%
%LPD*%
G01*
G04 APERTURE LIST*
%ADD10C,0.100000*%
%ADD11C,0.150000*%
%ADD12C,0.120000*%
G04 APERTURE END LIST*
D10*
X35842857Y-39007142D02*
X35628571Y-39007142D01*
X35628571Y-37721428D01*
X35842857Y-37721428D01*
X36700000Y-38621428D02*
X36657142Y-38664285D01*
X36528571Y-38707142D01*
X36442857Y-38707142D01*
X36314285Y-38664285D01*
X36228571Y-38578571D01*
X36185714Y-38492857D01*
X36142857Y-38321428D01*
X36142857Y-38192857D01*
X36185714Y-38021428D01*
X36228571Y-37935714D01*
X36314285Y-37850000D01*
X36442857Y-37807142D01*
X36528571Y-37807142D01*
X36657142Y-37850000D01*
X36700000Y-37892857D01*
X37600000Y-38621428D02*
X37557142Y-38664285D01*
X37428571Y-38707142D01*
X37342857Y-38707142D01*
X37214285Y-38664285D01*
X37128571Y-38578571D01*
X37085714Y-38492857D01*
X37042857Y-38321428D01*
X37042857Y-38192857D01*
X37085714Y-38021428D01*
X37128571Y-37935714D01*
X37214285Y-37850000D01*
X37342857Y-37807142D01*
X37428571Y-37807142D01*
X37557142Y-37850000D01*
X37600000Y-37892857D01*
X38971428Y-38235714D02*
X39100000Y-38278571D01*
X39142857Y-38321428D01*
X39185714Y-38407142D01*
X39185714Y-38535714D01*
X39142857Y-38621428D01*
X39100000Y-38664285D01*
X39014285Y-38707142D01*
X38671428Y-38707142D01*
X38671428Y-37807142D01*
X38971428Y-37807142D01*
X39057142Y-37850000D01*
X39100000Y-37892857D01*
X39142857Y-37978571D01*
X39142857Y-38064285D01*
X39100000Y-38150000D01*
X39057142Y-38192857D01*
X38971428Y-38235714D01*
X38671428Y-38235714D01*
X39742857Y-38278571D02*
X39742857Y-38707142D01*
X39442857Y-37807142D02*
X39742857Y-38278571D01*
X40042857Y-37807142D01*
X40342857Y-38364285D02*
X41028571Y-38364285D01*
X41457142Y-38707142D02*
X41457142Y-37807142D01*
X41971428Y-38707142D01*
X41971428Y-37807142D01*
X42914285Y-38621428D02*
X42871428Y-38664285D01*
X42742857Y-38707142D01*
X42657142Y-38707142D01*
X42528571Y-38664285D01*
X42442857Y-38578571D01*
X42400000Y-38492857D01*
X42357142Y-38321428D01*
X42357142Y-38192857D01*
X42400000Y-38021428D01*
X42442857Y-37935714D01*
X42528571Y-37850000D01*
X42657142Y-37807142D01*
X42742857Y-37807142D01*
X42871428Y-37850000D01*
X42914285Y-37892857D01*
X43300000Y-38364285D02*
X43985714Y-38364285D01*
X44371428Y-38664285D02*
X44500000Y-38707142D01*
X44714285Y-38707142D01*
X44800000Y-38664285D01*
X44842857Y-38621428D01*
X44885714Y-38535714D01*
X44885714Y-38450000D01*
X44842857Y-38364285D01*
X44800000Y-38321428D01*
X44714285Y-38278571D01*
X44542857Y-38235714D01*
X44457142Y-38192857D01*
X44414285Y-38150000D01*
X44371428Y-38064285D01*
X44371428Y-37978571D01*
X44414285Y-37892857D01*
X44457142Y-37850000D01*
X44542857Y-37807142D01*
X44757142Y-37807142D01*
X44885714Y-37850000D01*
X45228571Y-38450000D02*
X45657142Y-38450000D01*
X45142857Y-38707142D02*
X45442857Y-37807142D01*
X45742857Y-38707142D01*
X45957142Y-39007142D02*
X46171428Y-39007142D01*
X46171428Y-37721428D01*
X45957142Y-37721428D01*
D11*
X32980952Y-35227380D02*
X32980952Y-34227380D01*
X32980952Y-34703571D02*
X33552380Y-34703571D01*
X33552380Y-35227380D02*
X33552380Y-34227380D01*
X34361904Y-34703571D02*
X34504761Y-34751190D01*
X34552380Y-34798809D01*
X34600000Y-34894047D01*
X34600000Y-35036904D01*
X34552380Y-35132142D01*
X34504761Y-35179761D01*
X34409523Y-35227380D01*
X34028571Y-35227380D01*
X34028571Y-34227380D01*
X34361904Y-34227380D01*
X34457142Y-34275000D01*
X34504761Y-34322619D01*
X34552380Y-34417857D01*
X34552380Y-34513095D01*
X34504761Y-34608333D01*
X34457142Y-34655952D01*
X34361904Y-34703571D01*
X34028571Y-34703571D01*
X35028571Y-34846428D02*
X35790476Y-34846428D01*
X36266666Y-34703571D02*
X36600000Y-34703571D01*
X36742857Y-35227380D02*
X36266666Y-35227380D01*
X36266666Y-34227380D01*
X36742857Y-34227380D01*
X37123809Y-35179761D02*
X37266666Y-35227380D01*
X37504761Y-35227380D01*
X37600000Y-35179761D01*
X37647619Y-35132142D01*
X37695238Y-35036904D01*
X37695238Y-34941666D01*
X37647619Y-34846428D01*
X37600000Y-34798809D01*
X37504761Y-34751190D01*
X37314285Y-34703571D01*
X37219047Y-34655952D01*
X37171428Y-34608333D01*
X37123809Y-34513095D01*
X37123809Y-34417857D01*
X37171428Y-34322619D01*
X37219047Y-34275000D01*
X37314285Y-34227380D01*
X37552380Y-34227380D01*
X37695238Y-34275000D01*
X38123809Y-34846428D02*
X38885714Y-34846428D01*
X39361904Y-35227380D02*
X39361904Y-34227380D01*
X39742857Y-34227380D01*
X39838095Y-34275000D01*
X39885714Y-34322619D01*
X39933333Y-34417857D01*
X39933333Y-34560714D01*
X39885714Y-34655952D01*
X39838095Y-34703571D01*
X39742857Y-34751190D01*
X39361904Y-34751190D01*
X40361904Y-35227380D02*
X40361904Y-34227380D01*
X40695238Y-34941666D01*
X41028571Y-34227380D01*
X41028571Y-35227380D01*
X41457142Y-35179761D02*
X41600000Y-35227380D01*
X41838095Y-35227380D01*
X41933333Y-35179761D01*
X41980952Y-35132142D01*
X42028571Y-35036904D01*
X42028571Y-34941666D01*
X41980952Y-34846428D01*
X41933333Y-34798809D01*
X41838095Y-34751190D01*
X41647619Y-34703571D01*
X41552380Y-34655952D01*
X41504761Y-34608333D01*
X41457142Y-34513095D01*
X41457142Y-34417857D01*
X41504761Y-34322619D01*
X41552380Y-34275000D01*
X41647619Y-34227380D01*
X41885714Y-34227380D01*
X42028571Y-34275000D01*
X42361904Y-34560714D02*
X42552380Y-35227380D01*
X42742857Y-34751190D01*
X42933333Y-35227380D01*
X43123809Y-34560714D01*
X44028571Y-35227380D02*
X43457142Y-35227380D01*
X43742857Y-35227380D02*
X43742857Y-34227380D01*
X43647619Y-34370238D01*
X43552380Y-34465476D01*
X43457142Y-34513095D01*
X44457142Y-34846428D02*
X45219047Y-34846428D01*
X45695238Y-34227380D02*
X45695238Y-35036904D01*
X45742857Y-35132142D01*
X45790476Y-35179761D01*
X45885714Y-35227380D01*
X46076190Y-35227380D01*
X46171428Y-35179761D01*
X46219047Y-35132142D01*
X46266666Y-35036904D01*
X46266666Y-34227380D01*
X46695238Y-35179761D02*
X46838095Y-35227380D01*
X47076190Y-35227380D01*
X47171428Y-35179761D01*
X47219047Y-35132142D01*
X47266666Y-35036904D01*
X47266666Y-34941666D01*
X47219047Y-34846428D01*
X47171428Y-34798809D01*
X47076190Y-34751190D01*
X46885714Y-34703571D01*
X46790476Y-34655952D01*
X46742857Y-34608333D01*
X46695238Y-34513095D01*
X46695238Y-34417857D01*
X46742857Y-34322619D01*
X46790476Y-34275000D01*
X46885714Y-34227380D01*
X47123809Y-34227380D01*
X47266666Y-34275000D01*
X48028571Y-34703571D02*
X48171428Y-34751190D01*
X48219047Y-34798809D01*
X48266666Y-34894047D01*
X48266666Y-35036904D01*
X48219047Y-35132142D01*
X48171428Y-35179761D01*
X48076190Y-35227380D01*
X47695238Y-35227380D01*
X47695238Y-34227380D01*
X48028571Y-34227380D01*
X48123809Y-34275000D01*
X48171428Y-34322619D01*
X48219047Y-34417857D01*
X48219047Y-34513095D01*
X48171428Y-34608333D01*
X48123809Y-34655952D01*
X48028571Y-34703571D01*
X47695238Y-34703571D01*
X34123809Y-37258333D02*
X34076190Y-37210714D01*
X33980952Y-37067857D01*
X33933333Y-36972619D01*
X33885714Y-36829761D01*
X33838095Y-36591666D01*
X33838095Y-36401190D01*
X33885714Y-36163095D01*
X33933333Y-36020238D01*
X33980952Y-35925000D01*
X34076190Y-35782142D01*
X34123809Y-35734523D01*
X34933333Y-36829761D02*
X34838095Y-36877380D01*
X34647619Y-36877380D01*
X34552380Y-36829761D01*
X34504761Y-36782142D01*
X34457142Y-36686904D01*
X34457142Y-36401190D01*
X34504761Y-36305952D01*
X34552380Y-36258333D01*
X34647619Y-36210714D01*
X34838095Y-36210714D01*
X34933333Y-36258333D01*
X35266666Y-37258333D02*
X35314285Y-37210714D01*
X35409523Y-37067857D01*
X35457142Y-36972619D01*
X35504761Y-36829761D01*
X35552380Y-36591666D01*
X35552380Y-36401190D01*
X35504761Y-36163095D01*
X35457142Y-36020238D01*
X35409523Y-35925000D01*
X35314285Y-35782142D01*
X35266666Y-35734523D01*
X36742857Y-35972619D02*
X36790476Y-35925000D01*
X36885714Y-35877380D01*
X37123809Y-35877380D01*
X37219047Y-35925000D01*
X37266666Y-35972619D01*
X37314285Y-36067857D01*
X37314285Y-36163095D01*
X37266666Y-36305952D01*
X36695238Y-36877380D01*
X37314285Y-36877380D01*
X37933333Y-35877380D02*
X38028571Y-35877380D01*
X38123809Y-35925000D01*
X38171428Y-35972619D01*
X38219047Y-36067857D01*
X38266666Y-36258333D01*
X38266666Y-36496428D01*
X38219047Y-36686904D01*
X38171428Y-36782142D01*
X38123809Y-36829761D01*
X38028571Y-36877380D01*
X37933333Y-36877380D01*
X37838095Y-36829761D01*
X37790476Y-36782142D01*
X37742857Y-36686904D01*
X37695238Y-36496428D01*
X37695238Y-36258333D01*
X37742857Y-36067857D01*
X37790476Y-35972619D01*
X37838095Y-35925000D01*
X37933333Y-35877380D01*
X38647619Y-35972619D02*
X38695238Y-35925000D01*
X38790476Y-35877380D01*
X39028571Y-35877380D01*
X39123809Y-35925000D01*
X39171428Y-35972619D01*
X39219047Y-36067857D01*
X39219047Y-36163095D01*
X39171428Y-36305952D01*
X38600000Y-36877380D01*
X39219047Y-36877380D01*
X40171428Y-36877380D02*
X39600000Y-36877380D01*
X39885714Y-36877380D02*
X39885714Y-35877380D01*
X39790476Y-36020238D01*
X39695238Y-36115476D01*
X39600000Y-36163095D01*
X41361904Y-36210714D02*
X41361904Y-37067857D01*
X41314285Y-37163095D01*
X41219047Y-37210714D01*
X41171428Y-37210714D01*
X41361904Y-35877380D02*
X41314285Y-35925000D01*
X41361904Y-35972619D01*
X41409523Y-35925000D01*
X41361904Y-35877380D01*
X41361904Y-35972619D01*
X41838095Y-36210714D02*
X41838095Y-37210714D01*
X41838095Y-36258333D02*
X41933333Y-36210714D01*
X42123809Y-36210714D01*
X42219047Y-36258333D01*
X42266666Y-36305952D01*
X42314285Y-36401190D01*
X42314285Y-36686904D01*
X42266666Y-36782142D01*
X42219047Y-36829761D01*
X42123809Y-36877380D01*
X41933333Y-36877380D01*
X41838095Y-36829761D01*
X43266666Y-36877380D02*
X42695238Y-36877380D01*
X42980952Y-36877380D02*
X42980952Y-35877380D01*
X42885714Y-36020238D01*
X42790476Y-36115476D01*
X42695238Y-36163095D01*
X44219047Y-36877380D02*
X43647619Y-36877380D01*
X43933333Y-36877380D02*
X43933333Y-35877380D01*
X43838095Y-36020238D01*
X43742857Y-36115476D01*
X43647619Y-36163095D01*
X44600000Y-35972619D02*
X44647619Y-35925000D01*
X44742857Y-35877380D01*
X44980952Y-35877380D01*
X45076190Y-35925000D01*
X45123809Y-35972619D01*
X45171428Y-36067857D01*
X45171428Y-36163095D01*
X45123809Y-36305952D01*
X44552380Y-36877380D01*
X45171428Y-36877380D01*
X45552380Y-36829761D02*
X45647619Y-36877380D01*
X45838095Y-36877380D01*
X45933333Y-36829761D01*
X45980952Y-36734523D01*
X45980952Y-36686904D01*
X45933333Y-36591666D01*
X45838095Y-36544047D01*
X45695238Y-36544047D01*
X45600000Y-36496428D01*
X45552380Y-36401190D01*
X45552380Y-36353571D01*
X45600000Y-36258333D01*
X45695238Y-36210714D01*
X45838095Y-36210714D01*
X45933333Y-36258333D01*
X46838095Y-36877380D02*
X46838095Y-35877380D01*
X46838095Y-36829761D02*
X46742857Y-36877380D01*
X46552380Y-36877380D01*
X46457142Y-36829761D01*
X46409523Y-36782142D01*
X46361904Y-36686904D01*
X46361904Y-36401190D01*
X46409523Y-36305952D01*
X46457142Y-36258333D01*
X46552380Y-36210714D01*
X46742857Y-36210714D01*
X46838095Y-36258333D01*
X47457142Y-36877380D02*
X47361904Y-36829761D01*
X47314285Y-36734523D01*
X47314285Y-35877380D01*
D10*
X95309523Y-35000000D02*
X95385714Y-35038095D01*
X95500000Y-35038095D01*
X95614285Y-35000000D01*
X95690476Y-34923809D01*
X95728571Y-34847619D01*
X95766666Y-34695238D01*
X95766666Y-34580952D01*
X95728571Y-34428571D01*
X95690476Y-34352380D01*
X95614285Y-34276190D01*
X95500000Y-34238095D01*
X95423809Y-34238095D01*
X95309523Y-34276190D01*
X95271428Y-34314285D01*
X95271428Y-34580952D01*
X95423809Y-34580952D01*
X94928571Y-34238095D02*
X94928571Y-35038095D01*
X94471428Y-34238095D01*
X94471428Y-35038095D01*
X94090476Y-34238095D02*
X94090476Y-35038095D01*
X93900000Y-35038095D01*
X93785714Y-35000000D01*
X93709523Y-34923809D01*
X93671428Y-34847619D01*
X93633333Y-34695238D01*
X93633333Y-34580952D01*
X93671428Y-34428571D01*
X93709523Y-34352380D01*
X93785714Y-34276190D01*
X93900000Y-34238095D01*
X94090476Y-34238095D01*
D12*
X31862500Y-44200000D02*
X31862500Y-44650000D01*
X30012500Y-44200000D02*
X31862500Y-44200000D01*
X27462500Y-52000000D02*
X27712500Y-52000000D01*
X27462500Y-44200000D02*
X27712500Y-44200000D01*
X30012500Y-52000000D02*
X31862500Y-52000000D01*
X31862500Y-52000000D02*
X31862500Y-51550000D01*
X32412500Y-46400000D02*
X32412500Y-46850000D01*
X32412500Y-46400000D02*
X31962500Y-46400000D01*
X39310000Y-46661252D02*
X39310000Y-46138748D01*
X37890000Y-46661252D02*
X37890000Y-46138748D01*
X78260000Y-36711252D02*
X78260000Y-36188748D01*
X76840000Y-36711252D02*
X76840000Y-36188748D01*
X49438748Y-54810000D02*
X49961252Y-54810000D01*
X49438748Y-53390000D02*
X49961252Y-53390000D01*
X55061252Y-53390000D02*
X54538748Y-53390000D01*
X55061252Y-54810000D02*
X54538748Y-54810000D01*
X60810000Y-57861252D02*
X60810000Y-57338748D01*
X59390000Y-57861252D02*
X59390000Y-57338748D01*
X57220000Y-53860000D02*
X57220000Y-52400000D01*
X60380000Y-53860000D02*
X60380000Y-51700000D01*
X60380000Y-53860000D02*
X59450000Y-53860000D01*
X57220000Y-53860000D02*
X58150000Y-53860000D01*
X69510000Y-53338748D02*
X69510000Y-53861252D01*
X68090000Y-53338748D02*
X68090000Y-53861252D01*
X69760000Y-59260000D02*
X69760000Y-56400000D01*
X67840000Y-59260000D02*
X69760000Y-59260000D01*
X67840000Y-56400000D02*
X67840000Y-59260000D01*
X96730000Y-35170000D02*
X96730000Y-36500000D01*
X95400000Y-35170000D02*
X96730000Y-35170000D01*
X94130000Y-35170000D02*
X94130000Y-37830000D01*
X94130000Y-37830000D02*
X81370000Y-37830000D01*
X94130000Y-35170000D02*
X81370000Y-35170000D01*
X81370000Y-35170000D02*
X81370000Y-37830000D01*
X81760000Y-59360000D02*
X81760000Y-56500000D01*
X79840000Y-59360000D02*
X81760000Y-59360000D01*
X79840000Y-56500000D02*
X79840000Y-59360000D01*
X42180000Y-39940000D02*
X42180000Y-41400000D01*
X39020000Y-39940000D02*
X39020000Y-42100000D01*
X39020000Y-39940000D02*
X39950000Y-39940000D01*
X42180000Y-39940000D02*
X41250000Y-39940000D01*
X40810000Y-57550000D02*
X40810000Y-55100000D01*
X37590000Y-55750000D02*
X37590000Y-57550000D01*
X78300000Y-57850000D02*
X78300000Y-56350000D01*
X77050000Y-53850000D02*
X72550000Y-53850000D01*
X71300000Y-56350000D02*
X71300000Y-57850000D01*
X72550000Y-60350000D02*
X77050000Y-60350000D01*
X41902064Y-51040000D02*
X37797936Y-51040000D01*
X41902064Y-54460000D02*
X37797936Y-54460000D01*
X66910000Y-57861252D02*
X66910000Y-57338748D01*
X65490000Y-57861252D02*
X65490000Y-57338748D01*
X43588748Y-56560000D02*
X44111252Y-56560000D01*
X43588748Y-55140000D02*
X44111252Y-55140000D01*
X43588748Y-59060000D02*
X44111252Y-59060000D01*
X43588748Y-57640000D02*
X44111252Y-57640000D01*
X64210000Y-57861252D02*
X64210000Y-57338748D01*
X62790000Y-57861252D02*
X62790000Y-57338748D01*
X64438748Y-52810000D02*
X64961252Y-52810000D01*
X64438748Y-51390000D02*
X64961252Y-51390000D01*
X81510000Y-53961252D02*
X81510000Y-53438748D01*
X80090000Y-53961252D02*
X80090000Y-53438748D01*
X83960000Y-40550000D02*
X86290000Y-40550000D01*
X83960000Y-55540000D02*
X86080000Y-55540000D01*
X83960000Y-40550000D02*
X83960000Y-55540000D01*
X98050000Y-40550000D02*
X98050000Y-55540000D01*
X89250000Y-40550000D02*
X98050000Y-40550000D01*
X89450000Y-55540000D02*
X98050000Y-55540000D01*
X44510000Y-41111252D02*
X44510000Y-40588748D01*
X43090000Y-41111252D02*
X43090000Y-40588748D01*
X48490000Y-50300000D02*
X49490000Y-50300000D01*
X48990000Y-50800000D02*
X48990000Y-49800000D01*
X54695563Y-49560000D02*
X55760000Y-48495563D01*
X48304437Y-49560000D02*
X47240000Y-48495563D01*
X48304437Y-49560000D02*
X49990000Y-49560000D01*
X54695563Y-49560000D02*
X53010000Y-49560000D01*
X55760000Y-48495563D02*
X55760000Y-41040000D01*
X47240000Y-48495563D02*
X47240000Y-41040000D01*
X47240000Y-41040000D02*
X49990000Y-41040000D01*
X55760000Y-41040000D02*
X53010000Y-41040000D01*
X75300000Y-45610000D02*
X75300000Y-44610000D01*
X75800000Y-45110000D02*
X74800000Y-45110000D01*
X74560000Y-39304437D02*
X73495563Y-38240000D01*
X74560000Y-45895563D02*
X73495563Y-46960000D01*
X74560000Y-45895563D02*
X74560000Y-44110000D01*
X74560000Y-39304437D02*
X74560000Y-41090000D01*
X73495563Y-38240000D02*
X65840000Y-38240000D01*
X73495563Y-46960000D02*
X65840000Y-46960000D01*
X65840000Y-46960000D02*
X65840000Y-44110000D01*
X65840000Y-38240000D02*
X65840000Y-41090000D01*
X37160000Y-41311252D02*
X37160000Y-40788748D01*
X35740000Y-41311252D02*
X35740000Y-40788748D01*
X35040000Y-56688748D02*
X35040000Y-57211252D01*
X36460000Y-56688748D02*
X36460000Y-57211252D01*
D11*
X32664880Y-48433333D02*
X33379166Y-48433333D01*
X33522023Y-48480952D01*
X33617261Y-48576190D01*
X33664880Y-48719047D01*
X33664880Y-48814285D01*
X32760119Y-48004761D02*
X32712500Y-47957142D01*
X32664880Y-47861904D01*
X32664880Y-47623809D01*
X32712500Y-47528571D01*
X32760119Y-47480952D01*
X32855357Y-47433333D01*
X32950595Y-47433333D01*
X33093452Y-47480952D01*
X33664880Y-48052380D01*
X33664880Y-47433333D01*
X36402380Y-47685714D02*
X36402380Y-47114285D01*
X37402380Y-47400000D02*
X36402380Y-47400000D01*
X37402380Y-46780952D02*
X36402380Y-46780952D01*
X36878571Y-46780952D02*
X36878571Y-46209523D01*
X37402380Y-46209523D02*
X36402380Y-46209523D01*
X37402380Y-45209523D02*
X37402380Y-45780952D01*
X37402380Y-45495238D02*
X36402380Y-45495238D01*
X36545238Y-45590476D01*
X36640476Y-45685714D01*
X36688095Y-45780952D01*
X76332380Y-36362857D02*
X75856190Y-36696190D01*
X76332380Y-36934285D02*
X75332380Y-36934285D01*
X75332380Y-36553333D01*
X75380000Y-36458095D01*
X75427619Y-36410476D01*
X75522857Y-36362857D01*
X75665714Y-36362857D01*
X75760952Y-36410476D01*
X75808571Y-36458095D01*
X75856190Y-36553333D01*
X75856190Y-36934285D01*
X76332380Y-35410476D02*
X76332380Y-35981904D01*
X76332380Y-35696190D02*
X75332380Y-35696190D01*
X75475238Y-35791428D01*
X75570476Y-35886666D01*
X75618095Y-35981904D01*
X75332380Y-34505714D02*
X75332380Y-34981904D01*
X75808571Y-35029523D01*
X75760952Y-34981904D01*
X75713333Y-34886666D01*
X75713333Y-34648571D01*
X75760952Y-34553333D01*
X75808571Y-34505714D01*
X75903809Y-34458095D01*
X76141904Y-34458095D01*
X76237142Y-34505714D01*
X76284761Y-34553333D01*
X76332380Y-34648571D01*
X76332380Y-34886666D01*
X76284761Y-34981904D01*
X76237142Y-35029523D01*
X49057142Y-52902380D02*
X48723809Y-52426190D01*
X48485714Y-52902380D02*
X48485714Y-51902380D01*
X48866666Y-51902380D01*
X48961904Y-51950000D01*
X49009523Y-51997619D01*
X49057142Y-52092857D01*
X49057142Y-52235714D01*
X49009523Y-52330952D01*
X48961904Y-52378571D01*
X48866666Y-52426190D01*
X48485714Y-52426190D01*
X50009523Y-52902380D02*
X49438095Y-52902380D01*
X49723809Y-52902380D02*
X49723809Y-51902380D01*
X49628571Y-52045238D01*
X49533333Y-52140476D01*
X49438095Y-52188095D01*
X50866666Y-52235714D02*
X50866666Y-52902380D01*
X50628571Y-51854761D02*
X50390476Y-52569047D01*
X51009523Y-52569047D01*
X54157142Y-56202380D02*
X53823809Y-55726190D01*
X53585714Y-56202380D02*
X53585714Y-55202380D01*
X53966666Y-55202380D01*
X54061904Y-55250000D01*
X54109523Y-55297619D01*
X54157142Y-55392857D01*
X54157142Y-55535714D01*
X54109523Y-55630952D01*
X54061904Y-55678571D01*
X53966666Y-55726190D01*
X53585714Y-55726190D01*
X55109523Y-56202380D02*
X54538095Y-56202380D01*
X54823809Y-56202380D02*
X54823809Y-55202380D01*
X54728571Y-55345238D01*
X54633333Y-55440476D01*
X54538095Y-55488095D01*
X55442857Y-55202380D02*
X56061904Y-55202380D01*
X55728571Y-55583333D01*
X55871428Y-55583333D01*
X55966666Y-55630952D01*
X56014285Y-55678571D01*
X56061904Y-55773809D01*
X56061904Y-56011904D01*
X56014285Y-56107142D01*
X55966666Y-56154761D01*
X55871428Y-56202380D01*
X55585714Y-56202380D01*
X55490476Y-56154761D01*
X55442857Y-56107142D01*
X58902380Y-57766666D02*
X58426190Y-58100000D01*
X58902380Y-58338095D02*
X57902380Y-58338095D01*
X57902380Y-57957142D01*
X57950000Y-57861904D01*
X57997619Y-57814285D01*
X58092857Y-57766666D01*
X58235714Y-57766666D01*
X58330952Y-57814285D01*
X58378571Y-57861904D01*
X58426190Y-57957142D01*
X58426190Y-58338095D01*
X57997619Y-57385714D02*
X57950000Y-57338095D01*
X57902380Y-57242857D01*
X57902380Y-57004761D01*
X57950000Y-56909523D01*
X57997619Y-56861904D01*
X58092857Y-56814285D01*
X58188095Y-56814285D01*
X58330952Y-56861904D01*
X58902380Y-57433333D01*
X58902380Y-56814285D01*
X61847619Y-53195238D02*
X61800000Y-53290476D01*
X61704761Y-53385714D01*
X61561904Y-53528571D01*
X61514285Y-53623809D01*
X61514285Y-53719047D01*
X61752380Y-53671428D02*
X61704761Y-53766666D01*
X61609523Y-53861904D01*
X61419047Y-53909523D01*
X61085714Y-53909523D01*
X60895238Y-53861904D01*
X60800000Y-53766666D01*
X60752380Y-53671428D01*
X60752380Y-53480952D01*
X60800000Y-53385714D01*
X60895238Y-53290476D01*
X61085714Y-53242857D01*
X61419047Y-53242857D01*
X61609523Y-53290476D01*
X61704761Y-53385714D01*
X61752380Y-53480952D01*
X61752380Y-53671428D01*
X61752380Y-52290476D02*
X61752380Y-52861904D01*
X61752380Y-52576190D02*
X60752380Y-52576190D01*
X60895238Y-52671428D01*
X60990476Y-52766666D01*
X61038095Y-52861904D01*
X69302380Y-50942857D02*
X68826190Y-51276190D01*
X69302380Y-51514285D02*
X68302380Y-51514285D01*
X68302380Y-51133333D01*
X68350000Y-51038095D01*
X68397619Y-50990476D01*
X68492857Y-50942857D01*
X68635714Y-50942857D01*
X68730952Y-50990476D01*
X68778571Y-51038095D01*
X68826190Y-51133333D01*
X68826190Y-51514285D01*
X69302380Y-49990476D02*
X69302380Y-50561904D01*
X69302380Y-50276190D02*
X68302380Y-50276190D01*
X68445238Y-50371428D01*
X68540476Y-50466666D01*
X68588095Y-50561904D01*
X68302380Y-49371428D02*
X68302380Y-49276190D01*
X68350000Y-49180952D01*
X68397619Y-49133333D01*
X68492857Y-49085714D01*
X68683333Y-49038095D01*
X68921428Y-49038095D01*
X69111904Y-49085714D01*
X69207142Y-49133333D01*
X69254761Y-49180952D01*
X69302380Y-49276190D01*
X69302380Y-49371428D01*
X69254761Y-49466666D01*
X69207142Y-49514285D01*
X69111904Y-49561904D01*
X68921428Y-49609523D01*
X68683333Y-49609523D01*
X68492857Y-49561904D01*
X68397619Y-49514285D01*
X68350000Y-49466666D01*
X68302380Y-49371428D01*
X69352380Y-61138095D02*
X68352380Y-61138095D01*
X68352380Y-60900000D01*
X68400000Y-60757142D01*
X68495238Y-60661904D01*
X68590476Y-60614285D01*
X68780952Y-60566666D01*
X68923809Y-60566666D01*
X69114285Y-60614285D01*
X69209523Y-60661904D01*
X69304761Y-60757142D01*
X69352380Y-60900000D01*
X69352380Y-61138095D01*
X68447619Y-60185714D02*
X68400000Y-60138095D01*
X68352380Y-60042857D01*
X68352380Y-59804761D01*
X68400000Y-59709523D01*
X68447619Y-59661904D01*
X68542857Y-59614285D01*
X68638095Y-59614285D01*
X68780952Y-59661904D01*
X69352380Y-60233333D01*
X69352380Y-59614285D01*
X80298571Y-37476190D02*
X80298571Y-37809523D01*
X80822380Y-37809523D02*
X79822380Y-37809523D01*
X79822380Y-37333333D01*
X79822380Y-37095238D02*
X79822380Y-36523809D01*
X80822380Y-36809523D02*
X79822380Y-36809523D01*
X80822380Y-36190476D02*
X79822380Y-36190476D01*
X79822380Y-35952380D01*
X79870000Y-35809523D01*
X79965238Y-35714285D01*
X80060476Y-35666666D01*
X80250952Y-35619047D01*
X80393809Y-35619047D01*
X80584285Y-35666666D01*
X80679523Y-35714285D01*
X80774761Y-35809523D01*
X80822380Y-35952380D01*
X80822380Y-36190476D01*
X80822380Y-35190476D02*
X79822380Y-35190476D01*
X81252380Y-61088095D02*
X80252380Y-61088095D01*
X80252380Y-60850000D01*
X80300000Y-60707142D01*
X80395238Y-60611904D01*
X80490476Y-60564285D01*
X80680952Y-60516666D01*
X80823809Y-60516666D01*
X81014285Y-60564285D01*
X81109523Y-60611904D01*
X81204761Y-60707142D01*
X81252380Y-60850000D01*
X81252380Y-61088095D01*
X81252380Y-59564285D02*
X81252380Y-60135714D01*
X81252380Y-59850000D02*
X80252380Y-59850000D01*
X80395238Y-59945238D01*
X80490476Y-60040476D01*
X80538095Y-60135714D01*
X39838095Y-42652380D02*
X39838095Y-43461904D01*
X39885714Y-43557142D01*
X39933333Y-43604761D01*
X40028571Y-43652380D01*
X40219047Y-43652380D01*
X40314285Y-43604761D01*
X40361904Y-43557142D01*
X40409523Y-43461904D01*
X40409523Y-42652380D01*
X40790476Y-42652380D02*
X41409523Y-42652380D01*
X41076190Y-43033333D01*
X41219047Y-43033333D01*
X41314285Y-43080952D01*
X41361904Y-43128571D01*
X41409523Y-43223809D01*
X41409523Y-43461904D01*
X41361904Y-43557142D01*
X41314285Y-43604761D01*
X41219047Y-43652380D01*
X40933333Y-43652380D01*
X40838095Y-43604761D01*
X40790476Y-43557142D01*
X41152380Y-57311904D02*
X41961904Y-57311904D01*
X42057142Y-57264285D01*
X42104761Y-57216666D01*
X42152380Y-57121428D01*
X42152380Y-56930952D01*
X42104761Y-56835714D01*
X42057142Y-56788095D01*
X41961904Y-56740476D01*
X41152380Y-56740476D01*
X41247619Y-56311904D02*
X41200000Y-56264285D01*
X41152380Y-56169047D01*
X41152380Y-55930952D01*
X41200000Y-55835714D01*
X41247619Y-55788095D01*
X41342857Y-55740476D01*
X41438095Y-55740476D01*
X41580952Y-55788095D01*
X42152380Y-56359523D01*
X42152380Y-55740476D01*
X73316666Y-52954761D02*
X73459523Y-53002380D01*
X73697619Y-53002380D01*
X73792857Y-52954761D01*
X73840476Y-52907142D01*
X73888095Y-52811904D01*
X73888095Y-52716666D01*
X73840476Y-52621428D01*
X73792857Y-52573809D01*
X73697619Y-52526190D01*
X73507142Y-52478571D01*
X73411904Y-52430952D01*
X73364285Y-52383333D01*
X73316666Y-52288095D01*
X73316666Y-52192857D01*
X73364285Y-52097619D01*
X73411904Y-52050000D01*
X73507142Y-52002380D01*
X73745238Y-52002380D01*
X73888095Y-52050000D01*
X74221428Y-52002380D02*
X74459523Y-53002380D01*
X74650000Y-52288095D01*
X74840476Y-53002380D01*
X75078571Y-52002380D01*
X75983333Y-53002380D02*
X75411904Y-53002380D01*
X75697619Y-53002380D02*
X75697619Y-52002380D01*
X75602380Y-52145238D01*
X75507142Y-52240476D01*
X75411904Y-52288095D01*
X35202380Y-52916666D02*
X34726190Y-53250000D01*
X35202380Y-53488095D02*
X34202380Y-53488095D01*
X34202380Y-53107142D01*
X34250000Y-53011904D01*
X34297619Y-52964285D01*
X34392857Y-52916666D01*
X34535714Y-52916666D01*
X34630952Y-52964285D01*
X34678571Y-53011904D01*
X34726190Y-53107142D01*
X34726190Y-53488095D01*
X35202380Y-52440476D02*
X35202380Y-52250000D01*
X35154761Y-52154761D01*
X35107142Y-52107142D01*
X34964285Y-52011904D01*
X34773809Y-51964285D01*
X34392857Y-51964285D01*
X34297619Y-52011904D01*
X34250000Y-52059523D01*
X34202380Y-52154761D01*
X34202380Y-52345238D01*
X34250000Y-52440476D01*
X34297619Y-52488095D01*
X34392857Y-52535714D01*
X34630952Y-52535714D01*
X34726190Y-52488095D01*
X34773809Y-52440476D01*
X34821428Y-52345238D01*
X34821428Y-52154761D01*
X34773809Y-52059523D01*
X34726190Y-52011904D01*
X34630952Y-51964285D01*
X66652380Y-54966666D02*
X66176190Y-55300000D01*
X66652380Y-55538095D02*
X65652380Y-55538095D01*
X65652380Y-55157142D01*
X65700000Y-55061904D01*
X65747619Y-55014285D01*
X65842857Y-54966666D01*
X65985714Y-54966666D01*
X66080952Y-55014285D01*
X66128571Y-55061904D01*
X66176190Y-55157142D01*
X66176190Y-55538095D01*
X65652380Y-54633333D02*
X65652380Y-53966666D01*
X66652380Y-54395238D01*
X47302380Y-56016666D02*
X46826190Y-56350000D01*
X47302380Y-56588095D02*
X46302380Y-56588095D01*
X46302380Y-56207142D01*
X46350000Y-56111904D01*
X46397619Y-56064285D01*
X46492857Y-56016666D01*
X46635714Y-56016666D01*
X46730952Y-56064285D01*
X46778571Y-56111904D01*
X46826190Y-56207142D01*
X46826190Y-56588095D01*
X46302380Y-55159523D02*
X46302380Y-55350000D01*
X46350000Y-55445238D01*
X46397619Y-55492857D01*
X46540476Y-55588095D01*
X46730952Y-55635714D01*
X47111904Y-55635714D01*
X47207142Y-55588095D01*
X47254761Y-55540476D01*
X47302380Y-55445238D01*
X47302380Y-55254761D01*
X47254761Y-55159523D01*
X47207142Y-55111904D01*
X47111904Y-55064285D01*
X46873809Y-55064285D01*
X46778571Y-55111904D01*
X46730952Y-55159523D01*
X46683333Y-55254761D01*
X46683333Y-55445238D01*
X46730952Y-55540476D01*
X46778571Y-55588095D01*
X46873809Y-55635714D01*
X47302380Y-58516666D02*
X46826190Y-58850000D01*
X47302380Y-59088095D02*
X46302380Y-59088095D01*
X46302380Y-58707142D01*
X46350000Y-58611904D01*
X46397619Y-58564285D01*
X46492857Y-58516666D01*
X46635714Y-58516666D01*
X46730952Y-58564285D01*
X46778571Y-58611904D01*
X46826190Y-58707142D01*
X46826190Y-59088095D01*
X46302380Y-57611904D02*
X46302380Y-58088095D01*
X46778571Y-58135714D01*
X46730952Y-58088095D01*
X46683333Y-57992857D01*
X46683333Y-57754761D01*
X46730952Y-57659523D01*
X46778571Y-57611904D01*
X46873809Y-57564285D01*
X47111904Y-57564285D01*
X47207142Y-57611904D01*
X47254761Y-57659523D01*
X47302380Y-57754761D01*
X47302380Y-57992857D01*
X47254761Y-58088095D01*
X47207142Y-58135714D01*
X63952380Y-54966666D02*
X63476190Y-55300000D01*
X63952380Y-55538095D02*
X62952380Y-55538095D01*
X62952380Y-55157142D01*
X63000000Y-55061904D01*
X63047619Y-55014285D01*
X63142857Y-54966666D01*
X63285714Y-54966666D01*
X63380952Y-55014285D01*
X63428571Y-55061904D01*
X63476190Y-55157142D01*
X63476190Y-55538095D01*
X63285714Y-54109523D02*
X63952380Y-54109523D01*
X62904761Y-54347619D02*
X63619047Y-54585714D01*
X63619047Y-53966666D01*
X65152380Y-50366666D02*
X64676190Y-50700000D01*
X65152380Y-50938095D02*
X64152380Y-50938095D01*
X64152380Y-50557142D01*
X64200000Y-50461904D01*
X64247619Y-50414285D01*
X64342857Y-50366666D01*
X64485714Y-50366666D01*
X64580952Y-50414285D01*
X64628571Y-50461904D01*
X64676190Y-50557142D01*
X64676190Y-50938095D01*
X64152380Y-50033333D02*
X64152380Y-49414285D01*
X64533333Y-49747619D01*
X64533333Y-49604761D01*
X64580952Y-49509523D01*
X64628571Y-49461904D01*
X64723809Y-49414285D01*
X64961904Y-49414285D01*
X65057142Y-49461904D01*
X65104761Y-49509523D01*
X65152380Y-49604761D01*
X65152380Y-49890476D01*
X65104761Y-49985714D01*
X65057142Y-50033333D01*
X82952380Y-53816666D02*
X82476190Y-54150000D01*
X82952380Y-54388095D02*
X81952380Y-54388095D01*
X81952380Y-54007142D01*
X82000000Y-53911904D01*
X82047619Y-53864285D01*
X82142857Y-53816666D01*
X82285714Y-53816666D01*
X82380952Y-53864285D01*
X82428571Y-53911904D01*
X82476190Y-54007142D01*
X82476190Y-54388095D01*
X82952380Y-52864285D02*
X82952380Y-53435714D01*
X82952380Y-53150000D02*
X81952380Y-53150000D01*
X82095238Y-53245238D01*
X82190476Y-53340476D01*
X82238095Y-53435714D01*
X45957142Y-40916666D02*
X46004761Y-40964285D01*
X46052380Y-41107142D01*
X46052380Y-41202380D01*
X46004761Y-41345238D01*
X45909523Y-41440476D01*
X45814285Y-41488095D01*
X45623809Y-41535714D01*
X45480952Y-41535714D01*
X45290476Y-41488095D01*
X45195238Y-41440476D01*
X45100000Y-41345238D01*
X45052380Y-41202380D01*
X45052380Y-41107142D01*
X45100000Y-40964285D01*
X45147619Y-40916666D01*
X45052380Y-40059523D02*
X45052380Y-40250000D01*
X45100000Y-40345238D01*
X45147619Y-40392857D01*
X45290476Y-40488095D01*
X45480952Y-40535714D01*
X45861904Y-40535714D01*
X45957142Y-40488095D01*
X46004761Y-40440476D01*
X46052380Y-40345238D01*
X46052380Y-40154761D01*
X46004761Y-40059523D01*
X45957142Y-40011904D01*
X45861904Y-39964285D01*
X45623809Y-39964285D01*
X45528571Y-40011904D01*
X45480952Y-40059523D01*
X45433333Y-40154761D01*
X45433333Y-40345238D01*
X45480952Y-40440476D01*
X45528571Y-40488095D01*
X45623809Y-40535714D01*
X46657142Y-45466666D02*
X46704761Y-45514285D01*
X46752380Y-45657142D01*
X46752380Y-45752380D01*
X46704761Y-45895238D01*
X46609523Y-45990476D01*
X46514285Y-46038095D01*
X46323809Y-46085714D01*
X46180952Y-46085714D01*
X45990476Y-46038095D01*
X45895238Y-45990476D01*
X45800000Y-45895238D01*
X45752380Y-45752380D01*
X45752380Y-45657142D01*
X45800000Y-45514285D01*
X45847619Y-45466666D01*
X45752380Y-44561904D02*
X45752380Y-45038095D01*
X46228571Y-45085714D01*
X46180952Y-45038095D01*
X46133333Y-44942857D01*
X46133333Y-44704761D01*
X46180952Y-44609523D01*
X46228571Y-44561904D01*
X46323809Y-44514285D01*
X46561904Y-44514285D01*
X46657142Y-44561904D01*
X46704761Y-44609523D01*
X46752380Y-44704761D01*
X46752380Y-44942857D01*
X46704761Y-45038095D01*
X46657142Y-45085714D01*
X64433333Y-39857142D02*
X64385714Y-39904761D01*
X64242857Y-39952380D01*
X64147619Y-39952380D01*
X64004761Y-39904761D01*
X63909523Y-39809523D01*
X63861904Y-39714285D01*
X63814285Y-39523809D01*
X63814285Y-39380952D01*
X63861904Y-39190476D01*
X63909523Y-39095238D01*
X64004761Y-39000000D01*
X64147619Y-38952380D01*
X64242857Y-38952380D01*
X64385714Y-39000000D01*
X64433333Y-39047619D01*
X64766666Y-38952380D02*
X65385714Y-38952380D01*
X65052380Y-39333333D01*
X65195238Y-39333333D01*
X65290476Y-39380952D01*
X65338095Y-39428571D01*
X65385714Y-39523809D01*
X65385714Y-39761904D01*
X65338095Y-39857142D01*
X65290476Y-39904761D01*
X65195238Y-39952380D01*
X64909523Y-39952380D01*
X64814285Y-39904761D01*
X64766666Y-39857142D01*
X34907142Y-41216666D02*
X34954761Y-41264285D01*
X35002380Y-41407142D01*
X35002380Y-41502380D01*
X34954761Y-41645238D01*
X34859523Y-41740476D01*
X34764285Y-41788095D01*
X34573809Y-41835714D01*
X34430952Y-41835714D01*
X34240476Y-41788095D01*
X34145238Y-41740476D01*
X34050000Y-41645238D01*
X34002380Y-41502380D01*
X34002380Y-41407142D01*
X34050000Y-41264285D01*
X34097619Y-41216666D01*
X34097619Y-40835714D02*
X34050000Y-40788095D01*
X34002380Y-40692857D01*
X34002380Y-40454761D01*
X34050000Y-40359523D01*
X34097619Y-40311904D01*
X34192857Y-40264285D01*
X34288095Y-40264285D01*
X34430952Y-40311904D01*
X35002380Y-40883333D01*
X35002380Y-40264285D01*
X34207142Y-57316666D02*
X34254761Y-57364285D01*
X34302380Y-57507142D01*
X34302380Y-57602380D01*
X34254761Y-57745238D01*
X34159523Y-57840476D01*
X34064285Y-57888095D01*
X33873809Y-57935714D01*
X33730952Y-57935714D01*
X33540476Y-57888095D01*
X33445238Y-57840476D01*
X33350000Y-57745238D01*
X33302380Y-57602380D01*
X33302380Y-57507142D01*
X33350000Y-57364285D01*
X33397619Y-57316666D01*
X34302380Y-56364285D02*
X34302380Y-56935714D01*
X34302380Y-56650000D02*
X33302380Y-56650000D01*
X33445238Y-56745238D01*
X33540476Y-56840476D01*
X33588095Y-56935714D01*
M02*
