M48
; DRILL file {KiCad (5.1.9-0-10_14)} date Sunday, March 28, 2021 at 10:25:15 PM
; FORMAT={-:-/ absolute / inch / decimal}
; #@! TF.CreationDate,2021-03-28T22:25:15+02:00
; #@! TF.GenerationSoftware,Kicad,Pcbnew,(5.1.9-0-10_14)
FMAT,2
INCH
T1C0.0157
T2C0.0236
T3C0.0335
T4C0.0394
T5C0.0433
T6C0.0906
T7C0.1063
%
G90
G05
T1
X1.315Y-1.5492
X1.315Y-1.6181
X1.3228Y-1.8898
X1.3576Y-2.1332
X1.3701Y-1.9724
X1.7308Y-1.9539
X1.7894Y-2.0059
X1.8346Y-2.2283
X1.8977Y-1.55
X2.1067Y-1.5199
X2.1181Y-1.7638
X2.1555Y-1.8917
X2.3445Y-1.8839
X2.4239Y-2.3125
X2.5468Y-1.3942
X2.563Y-1.5723
X2.5873Y-1.9996
X2.6625Y-1.8481
X2.7295Y-1.6328
X2.7601Y-1.8393
X2.7886Y-1.7836
X2.798Y-1.7235
X2.8499Y-1.8481
X2.8842Y-1.9603
X2.8917Y-1.4331
X2.9606Y-1.5349
X2.9724Y-1.4808
X3.0453Y-1.7087
X3.0551Y-1.8858
X3.0846Y-1.5335
X3.0866Y-1.7776
X3.2146Y-1.9646
X3.4173Y-1.5264
X3.628Y-2.1417
X3.6459Y-1.9945
T2
X1.4512Y-1.9622
X1.9961Y-1.4488
X2.311Y-1.4488
T3
X1.2426Y-1.7953
X1.2426Y-1.9921
T4
X3.2559Y-1.437
X3.3504Y-1.7516
X3.3504Y-1.8516
X3.3504Y-1.9315
X3.3504Y-2.0315
X3.3559Y-1.437
X3.4559Y-1.437
X3.5559Y-1.437
X3.6559Y-1.437
X3.7559Y-1.437
T5
X2.8169Y-2.1594
X2.8169Y-2.3366
X3.0728Y-2.1594
X3.0728Y-2.3366
T6
X3.4555Y-1.6315
X3.4555Y-2.1717
T7
X1.1969Y-1.4567
X1.1969Y-2.311
X3.7244Y-2.311
T2
G00X1.1225Y-1.7559
M15
G01X1.1501Y-1.7559
M16
G05
G00X1.1501Y-2.0315
M15
G01X1.1225Y-2.0315
M16
G05
T0
M30
