G04 #@! TF.GenerationSoftware,KiCad,Pcbnew,(5.1.9-0-10_14)*
G04 #@! TF.CreationDate,2021-03-28T22:25:10+02:00*
G04 #@! TF.ProjectId,HB-ES-PMSw1-USB,48422d45-532d-4504-9d53-77312d555342,rev?*
G04 #@! TF.SameCoordinates,Original*
G04 #@! TF.FileFunction,Soldermask,Bot*
G04 #@! TF.FilePolarity,Negative*
%FSLAX46Y46*%
G04 Gerber Fmt 4.6, Leading zero omitted, Abs format (unit mm)*
G04 Created by KiCad (PCBNEW (5.1.9-0-10_14)) date 2021-03-28 22:25:10*
%MOMM*%
%LPD*%
G01*
G04 APERTURE LIST*
%ADD10O,1.900000X1.200000*%
%ADD11C,1.450000*%
%ADD12R,1.625600X0.609600*%
%ADD13R,1.000000X2.750000*%
%ADD14R,1.050000X3.010000*%
%ADD15R,0.840000X0.260000*%
%ADD16C,2.700000*%
%ADD17O,1.350000X1.350000*%
%ADD18C,1.350000*%
%ADD19O,1.700000X1.700000*%
%ADD20R,1.700000X1.700000*%
%ADD21R,1.600000X0.550000*%
%ADD22R,0.550000X1.600000*%
%ADD23C,2.000000*%
%ADD24C,1.500000*%
%ADD25C,3.000000*%
G04 APERTURE END LIST*
D10*
X28862500Y-51600000D03*
X28862500Y-44600000D03*
D11*
X31562500Y-50600000D03*
X31562500Y-45600000D03*
G36*
G01*
X69550000Y-50049999D02*
X69550000Y-50950001D01*
G75*
G02*
X69300001Y-51200000I-249999J0D01*
G01*
X68649999Y-51200000D01*
G75*
G02*
X68400000Y-50950001I0J249999D01*
G01*
X68400000Y-50049999D01*
G75*
G02*
X68649999Y-49800000I249999J0D01*
G01*
X69300001Y-49800000D01*
G75*
G02*
X69550000Y-50049999I0J-249999D01*
G01*
G37*
G36*
G01*
X71600000Y-50049999D02*
X71600000Y-50950001D01*
G75*
G02*
X71350001Y-51200000I-249999J0D01*
G01*
X70699999Y-51200000D01*
G75*
G02*
X70450000Y-50950001I0J249999D01*
G01*
X70450000Y-50049999D01*
G75*
G02*
X70699999Y-49800000I249999J0D01*
G01*
X71350001Y-49800000D01*
G75*
G02*
X71600000Y-50049999I0J-249999D01*
G01*
G37*
D12*
X41710000Y-48440000D03*
X41710000Y-47170000D03*
X41710000Y-45900000D03*
X41710000Y-44630000D03*
X35360000Y-44630000D03*
X35360000Y-45900000D03*
X35360000Y-47170000D03*
X35360000Y-48440000D03*
D13*
X60300000Y-41400000D03*
X58300000Y-41400000D03*
X56300000Y-41400000D03*
X56300000Y-60300000D03*
X54300000Y-41400000D03*
X54300000Y-60300000D03*
X52300000Y-41400000D03*
X52300000Y-60300000D03*
X50300000Y-41400000D03*
X48300000Y-41400000D03*
X46300000Y-41400000D03*
G36*
G01*
X94049999Y-51750000D02*
X94950001Y-51750000D01*
G75*
G02*
X95200000Y-51999999I0J-249999D01*
G01*
X95200000Y-52650001D01*
G75*
G02*
X94950001Y-52900000I-249999J0D01*
G01*
X94049999Y-52900000D01*
G75*
G02*
X93800000Y-52650001I0J249999D01*
G01*
X93800000Y-51999999D01*
G75*
G02*
X94049999Y-51750000I249999J0D01*
G01*
G37*
G36*
G01*
X94049999Y-49700000D02*
X94950001Y-49700000D01*
G75*
G02*
X95200000Y-49949999I0J-249999D01*
G01*
X95200000Y-50600001D01*
G75*
G02*
X94950001Y-50850000I-249999J0D01*
G01*
X94049999Y-50850000D01*
G75*
G02*
X93800000Y-50600001I0J249999D01*
G01*
X93800000Y-49949999D01*
G75*
G02*
X94049999Y-49700000I249999J0D01*
G01*
G37*
G36*
G01*
X90550000Y-45049999D02*
X90550000Y-45950001D01*
G75*
G02*
X90300001Y-46200000I-249999J0D01*
G01*
X89649999Y-46200000D01*
G75*
G02*
X89400000Y-45950001I0J249999D01*
G01*
X89400000Y-45049999D01*
G75*
G02*
X89649999Y-44800000I249999J0D01*
G01*
X90300001Y-44800000D01*
G75*
G02*
X90550000Y-45049999I0J-249999D01*
G01*
G37*
G36*
G01*
X92600000Y-45049999D02*
X92600000Y-45950001D01*
G75*
G02*
X92350001Y-46200000I-249999J0D01*
G01*
X91699999Y-46200000D01*
G75*
G02*
X91450000Y-45950001I0J249999D01*
G01*
X91450000Y-45049999D01*
G75*
G02*
X91699999Y-44800000I249999J0D01*
G01*
X92350001Y-44800000D01*
G75*
G02*
X92600000Y-45049999I0J-249999D01*
G01*
G37*
G36*
G01*
X90650000Y-51949999D02*
X90650000Y-52850001D01*
G75*
G02*
X90400001Y-53100000I-249999J0D01*
G01*
X89749999Y-53100000D01*
G75*
G02*
X89500000Y-52850001I0J249999D01*
G01*
X89500000Y-51949999D01*
G75*
G02*
X89749999Y-51700000I249999J0D01*
G01*
X90400001Y-51700000D01*
G75*
G02*
X90650000Y-51949999I0J-249999D01*
G01*
G37*
G36*
G01*
X92700000Y-51949999D02*
X92700000Y-52850001D01*
G75*
G02*
X92450001Y-53100000I-249999J0D01*
G01*
X91799999Y-53100000D01*
G75*
G02*
X91550000Y-52850001I0J249999D01*
G01*
X91550000Y-51949999D01*
G75*
G02*
X91799999Y-51700000I249999J0D01*
G01*
X92450001Y-51700000D01*
G75*
G02*
X92700000Y-51949999I0J-249999D01*
G01*
G37*
D14*
X90800000Y-48900000D03*
D15*
X92235000Y-49900000D03*
X92235000Y-49400000D03*
X92235000Y-48900000D03*
X92235000Y-48400000D03*
X92235000Y-47900000D03*
X89365000Y-47900000D03*
X89365000Y-48400000D03*
X89365000Y-48900000D03*
X89365000Y-49400000D03*
X89365000Y-49900000D03*
D16*
X30400000Y-58700000D03*
X94600000Y-58700000D03*
X30400000Y-37000000D03*
D17*
X60700000Y-36800000D03*
D18*
X58700000Y-36800000D03*
D17*
X56700000Y-36800000D03*
X54700000Y-36800000D03*
X52700000Y-36800000D03*
D18*
X50700000Y-36800000D03*
D19*
X82700000Y-36500000D03*
X85240000Y-36500000D03*
X87780000Y-36500000D03*
X90320000Y-36500000D03*
X92860000Y-36500000D03*
D20*
X95400000Y-36500000D03*
D21*
X74250000Y-46900000D03*
X74250000Y-46100000D03*
X74250000Y-45300000D03*
X74250000Y-44500000D03*
X74250000Y-43700000D03*
X74250000Y-42900000D03*
X74250000Y-42100000D03*
X74250000Y-41300000D03*
D22*
X72800000Y-39850000D03*
X72000000Y-39850000D03*
X71200000Y-39850000D03*
X70400000Y-39850000D03*
X69600000Y-39850000D03*
X68800000Y-39850000D03*
X68000000Y-39850000D03*
X67200000Y-39850000D03*
D21*
X65750000Y-41300000D03*
X65750000Y-42100000D03*
X65750000Y-42900000D03*
X65750000Y-43700000D03*
X65750000Y-44500000D03*
X65750000Y-45300000D03*
X65750000Y-46100000D03*
X65750000Y-46900000D03*
D22*
X67200000Y-48350000D03*
X68000000Y-48350000D03*
X68800000Y-48350000D03*
X69600000Y-48350000D03*
X70400000Y-48350000D03*
X71200000Y-48350000D03*
X72000000Y-48350000D03*
X72800000Y-48350000D03*
D23*
X78050000Y-54850000D03*
X78050000Y-59350000D03*
X71550000Y-54850000D03*
X71550000Y-59350000D03*
G36*
G01*
X80950000Y-43449999D02*
X80950000Y-44350001D01*
G75*
G02*
X80700001Y-44600000I-249999J0D01*
G01*
X80049999Y-44600000D01*
G75*
G02*
X79800000Y-44350001I0J249999D01*
G01*
X79800000Y-43449999D01*
G75*
G02*
X80049999Y-43200000I249999J0D01*
G01*
X80700001Y-43200000D01*
G75*
G02*
X80950000Y-43449999I0J-249999D01*
G01*
G37*
G36*
G01*
X83000000Y-43449999D02*
X83000000Y-44350001D01*
G75*
G02*
X82750001Y-44600000I-249999J0D01*
G01*
X82099999Y-44600000D01*
G75*
G02*
X81850000Y-44350001I0J249999D01*
G01*
X81850000Y-43449999D01*
G75*
G02*
X82099999Y-43200000I249999J0D01*
G01*
X82750001Y-43200000D01*
G75*
G02*
X83000000Y-43449999I0J-249999D01*
G01*
G37*
D24*
X85100000Y-44490000D03*
X85100000Y-47030000D03*
X85100000Y-49060000D03*
X85100000Y-51600000D03*
D25*
X87770000Y-41440000D03*
X87770000Y-55160000D03*
G36*
G01*
X79949999Y-40750000D02*
X80850001Y-40750000D01*
G75*
G02*
X81100000Y-40999999I0J-249999D01*
G01*
X81100000Y-41650001D01*
G75*
G02*
X80850001Y-41900000I-249999J0D01*
G01*
X79949999Y-41900000D01*
G75*
G02*
X79700000Y-41650001I0J249999D01*
G01*
X79700000Y-40999999D01*
G75*
G02*
X79949999Y-40750000I249999J0D01*
G01*
G37*
G36*
G01*
X79949999Y-38700000D02*
X80850001Y-38700000D01*
G75*
G02*
X81100000Y-38949999I0J-249999D01*
G01*
X81100000Y-39600001D01*
G75*
G02*
X80850001Y-39850000I-249999J0D01*
G01*
X79949999Y-39850000D01*
G75*
G02*
X79700000Y-39600001I0J249999D01*
G01*
X79700000Y-38949999D01*
G75*
G02*
X79949999Y-38700000I249999J0D01*
G01*
G37*
G36*
G01*
X70950000Y-37550001D02*
X70950000Y-36649999D01*
G75*
G02*
X71199999Y-36400000I249999J0D01*
G01*
X71850001Y-36400000D01*
G75*
G02*
X72100000Y-36649999I0J-249999D01*
G01*
X72100000Y-37550001D01*
G75*
G02*
X71850001Y-37800000I-249999J0D01*
G01*
X71199999Y-37800000D01*
G75*
G02*
X70950000Y-37550001I0J249999D01*
G01*
G37*
G36*
G01*
X68900000Y-37550001D02*
X68900000Y-36649999D01*
G75*
G02*
X69149999Y-36400000I249999J0D01*
G01*
X69800001Y-36400000D01*
G75*
G02*
X70050000Y-36649999I0J-249999D01*
G01*
X70050000Y-37550001D01*
G75*
G02*
X69800001Y-37800000I-249999J0D01*
G01*
X69149999Y-37800000D01*
G75*
G02*
X68900000Y-37550001I0J249999D01*
G01*
G37*
M02*
