G04 #@! TF.GenerationSoftware,KiCad,Pcbnew,(5.1.9-0-10_14)*
G04 #@! TF.CreationDate,2021-03-28T22:25:10+02:00*
G04 #@! TF.ProjectId,HB-ES-PMSw1-USB,48422d45-532d-4504-9d53-77312d555342,rev?*
G04 #@! TF.SameCoordinates,Original*
G04 #@! TF.FileFunction,Paste,Top*
G04 #@! TF.FilePolarity,Positive*
%FSLAX46Y46*%
G04 Gerber Fmt 4.6, Leading zero omitted, Abs format (unit mm)*
G04 Created by KiCad (PCBNEW (5.1.9-0-10_14)) date 2021-03-28 22:25:10*
%MOMM*%
%LPD*%
G01*
G04 APERTURE LIST*
%ADD10R,1.900000X1.500000*%
%ADD11R,1.350000X0.400000*%
%ADD12R,0.800000X0.900000*%
%ADD13R,0.400000X1.060000*%
%ADD14R,2.500000X4.000000*%
%ADD15R,4.400000X2.500000*%
G04 APERTURE END LIST*
D10*
X28862500Y-47100000D03*
D11*
X31562500Y-48100000D03*
X31562500Y-48750000D03*
X31562500Y-49400000D03*
X31562500Y-46800000D03*
X31562500Y-47450000D03*
D10*
X28862500Y-49100000D03*
G36*
G01*
X39050001Y-45950000D02*
X38149999Y-45950000D01*
G75*
G02*
X37900000Y-45700001I0J249999D01*
G01*
X37900000Y-45049999D01*
G75*
G02*
X38149999Y-44800000I249999J0D01*
G01*
X39050001Y-44800000D01*
G75*
G02*
X39300000Y-45049999I0J-249999D01*
G01*
X39300000Y-45700001D01*
G75*
G02*
X39050001Y-45950000I-249999J0D01*
G01*
G37*
G36*
G01*
X39050001Y-48000000D02*
X38149999Y-48000000D01*
G75*
G02*
X37900000Y-47750001I0J249999D01*
G01*
X37900000Y-47099999D01*
G75*
G02*
X38149999Y-46850000I249999J0D01*
G01*
X39050001Y-46850000D01*
G75*
G02*
X39300000Y-47099999I0J-249999D01*
G01*
X39300000Y-47750001D01*
G75*
G02*
X39050001Y-48000000I-249999J0D01*
G01*
G37*
G36*
G01*
X78000001Y-36000000D02*
X77099999Y-36000000D01*
G75*
G02*
X76850000Y-35750001I0J249999D01*
G01*
X76850000Y-35099999D01*
G75*
G02*
X77099999Y-34850000I249999J0D01*
G01*
X78000001Y-34850000D01*
G75*
G02*
X78250000Y-35099999I0J-249999D01*
G01*
X78250000Y-35750001D01*
G75*
G02*
X78000001Y-36000000I-249999J0D01*
G01*
G37*
G36*
G01*
X78000001Y-38050000D02*
X77099999Y-38050000D01*
G75*
G02*
X76850000Y-37800001I0J249999D01*
G01*
X76850000Y-37149999D01*
G75*
G02*
X77099999Y-36900000I249999J0D01*
G01*
X78000001Y-36900000D01*
G75*
G02*
X78250000Y-37149999I0J-249999D01*
G01*
X78250000Y-37800001D01*
G75*
G02*
X78000001Y-38050000I-249999J0D01*
G01*
G37*
G36*
G01*
X50150000Y-54550001D02*
X50150000Y-53649999D01*
G75*
G02*
X50399999Y-53400000I249999J0D01*
G01*
X51050001Y-53400000D01*
G75*
G02*
X51300000Y-53649999I0J-249999D01*
G01*
X51300000Y-54550001D01*
G75*
G02*
X51050001Y-54800000I-249999J0D01*
G01*
X50399999Y-54800000D01*
G75*
G02*
X50150000Y-54550001I0J249999D01*
G01*
G37*
G36*
G01*
X48100000Y-54550001D02*
X48100000Y-53649999D01*
G75*
G02*
X48349999Y-53400000I249999J0D01*
G01*
X49000001Y-53400000D01*
G75*
G02*
X49250000Y-53649999I0J-249999D01*
G01*
X49250000Y-54550001D01*
G75*
G02*
X49000001Y-54800000I-249999J0D01*
G01*
X48349999Y-54800000D01*
G75*
G02*
X48100000Y-54550001I0J249999D01*
G01*
G37*
G36*
G01*
X54350000Y-53649999D02*
X54350000Y-54550001D01*
G75*
G02*
X54100001Y-54800000I-249999J0D01*
G01*
X53449999Y-54800000D01*
G75*
G02*
X53200000Y-54550001I0J249999D01*
G01*
X53200000Y-53649999D01*
G75*
G02*
X53449999Y-53400000I249999J0D01*
G01*
X54100001Y-53400000D01*
G75*
G02*
X54350000Y-53649999I0J-249999D01*
G01*
G37*
G36*
G01*
X56400000Y-53649999D02*
X56400000Y-54550001D01*
G75*
G02*
X56150001Y-54800000I-249999J0D01*
G01*
X55499999Y-54800000D01*
G75*
G02*
X55250000Y-54550001I0J249999D01*
G01*
X55250000Y-53649999D01*
G75*
G02*
X55499999Y-53400000I249999J0D01*
G01*
X56150001Y-53400000D01*
G75*
G02*
X56400000Y-53649999I0J-249999D01*
G01*
G37*
G36*
G01*
X60550001Y-57150000D02*
X59649999Y-57150000D01*
G75*
G02*
X59400000Y-56900001I0J249999D01*
G01*
X59400000Y-56249999D01*
G75*
G02*
X59649999Y-56000000I249999J0D01*
G01*
X60550001Y-56000000D01*
G75*
G02*
X60800000Y-56249999I0J-249999D01*
G01*
X60800000Y-56900001D01*
G75*
G02*
X60550001Y-57150000I-249999J0D01*
G01*
G37*
G36*
G01*
X60550001Y-59200000D02*
X59649999Y-59200000D01*
G75*
G02*
X59400000Y-58950001I0J249999D01*
G01*
X59400000Y-58299999D01*
G75*
G02*
X59649999Y-58050000I249999J0D01*
G01*
X60550001Y-58050000D01*
G75*
G02*
X60800000Y-58299999I0J-249999D01*
G01*
X60800000Y-58950001D01*
G75*
G02*
X60550001Y-59200000I-249999J0D01*
G01*
G37*
D12*
X58800000Y-54100000D03*
X57850000Y-52100000D03*
X59750000Y-52100000D03*
G36*
G01*
X68349999Y-52000000D02*
X69250001Y-52000000D01*
G75*
G02*
X69500000Y-52249999I0J-249999D01*
G01*
X69500000Y-52900001D01*
G75*
G02*
X69250001Y-53150000I-249999J0D01*
G01*
X68349999Y-53150000D01*
G75*
G02*
X68100000Y-52900001I0J249999D01*
G01*
X68100000Y-52249999D01*
G75*
G02*
X68349999Y-52000000I249999J0D01*
G01*
G37*
G36*
G01*
X68349999Y-54050000D02*
X69250001Y-54050000D01*
G75*
G02*
X69500000Y-54299999I0J-249999D01*
G01*
X69500000Y-54950001D01*
G75*
G02*
X69250001Y-55200000I-249999J0D01*
G01*
X68349999Y-55200000D01*
G75*
G02*
X68100000Y-54950001I0J249999D01*
G01*
X68100000Y-54299999D01*
G75*
G02*
X68349999Y-54050000I249999J0D01*
G01*
G37*
G36*
G01*
X69250001Y-56950000D02*
X68349999Y-56950000D01*
G75*
G02*
X68100000Y-56700001I0J249999D01*
G01*
X68100000Y-56049999D01*
G75*
G02*
X68349999Y-55800000I249999J0D01*
G01*
X69250001Y-55800000D01*
G75*
G02*
X69500000Y-56049999I0J-249999D01*
G01*
X69500000Y-56700001D01*
G75*
G02*
X69250001Y-56950000I-249999J0D01*
G01*
G37*
G36*
G01*
X69250001Y-59000000D02*
X68349999Y-59000000D01*
G75*
G02*
X68100000Y-58750001I0J249999D01*
G01*
X68100000Y-58099999D01*
G75*
G02*
X68349999Y-57850000I249999J0D01*
G01*
X69250001Y-57850000D01*
G75*
G02*
X69500000Y-58099999I0J-249999D01*
G01*
X69500000Y-58750001D01*
G75*
G02*
X69250001Y-59000000I-249999J0D01*
G01*
G37*
G36*
G01*
X81250001Y-57050000D02*
X80349999Y-57050000D01*
G75*
G02*
X80100000Y-56800001I0J249999D01*
G01*
X80100000Y-56149999D01*
G75*
G02*
X80349999Y-55900000I249999J0D01*
G01*
X81250001Y-55900000D01*
G75*
G02*
X81500000Y-56149999I0J-249999D01*
G01*
X81500000Y-56800001D01*
G75*
G02*
X81250001Y-57050000I-249999J0D01*
G01*
G37*
G36*
G01*
X81250001Y-59100000D02*
X80349999Y-59100000D01*
G75*
G02*
X80100000Y-58850001I0J249999D01*
G01*
X80100000Y-58199999D01*
G75*
G02*
X80349999Y-57950000I249999J0D01*
G01*
X81250001Y-57950000D01*
G75*
G02*
X81500000Y-58199999I0J-249999D01*
G01*
X81500000Y-58850001D01*
G75*
G02*
X81250001Y-59100000I-249999J0D01*
G01*
G37*
X40600000Y-39700000D03*
X41550000Y-41700000D03*
X39650000Y-41700000D03*
D13*
X40180000Y-57750000D03*
X39530000Y-57750000D03*
X38870000Y-57750000D03*
X38220000Y-57750000D03*
X38220000Y-55550000D03*
X38870000Y-55550000D03*
X39530000Y-55550000D03*
X40180000Y-55550000D03*
G36*
G01*
X37625000Y-51324999D02*
X37625000Y-54175001D01*
G75*
G02*
X37375001Y-54425000I-249999J0D01*
G01*
X36349999Y-54425000D01*
G75*
G02*
X36100000Y-54175001I0J249999D01*
G01*
X36100000Y-51324999D01*
G75*
G02*
X36349999Y-51075000I249999J0D01*
G01*
X37375001Y-51075000D01*
G75*
G02*
X37625000Y-51324999I0J-249999D01*
G01*
G37*
G36*
G01*
X43600000Y-51324999D02*
X43600000Y-54175001D01*
G75*
G02*
X43350001Y-54425000I-249999J0D01*
G01*
X42324999Y-54425000D01*
G75*
G02*
X42075000Y-54175001I0J249999D01*
G01*
X42075000Y-51324999D01*
G75*
G02*
X42324999Y-51075000I249999J0D01*
G01*
X43350001Y-51075000D01*
G75*
G02*
X43600000Y-51324999I0J-249999D01*
G01*
G37*
G36*
G01*
X66650001Y-57150000D02*
X65749999Y-57150000D01*
G75*
G02*
X65500000Y-56900001I0J249999D01*
G01*
X65500000Y-56249999D01*
G75*
G02*
X65749999Y-56000000I249999J0D01*
G01*
X66650001Y-56000000D01*
G75*
G02*
X66900000Y-56249999I0J-249999D01*
G01*
X66900000Y-56900001D01*
G75*
G02*
X66650001Y-57150000I-249999J0D01*
G01*
G37*
G36*
G01*
X66650001Y-59200000D02*
X65749999Y-59200000D01*
G75*
G02*
X65500000Y-58950001I0J249999D01*
G01*
X65500000Y-58299999D01*
G75*
G02*
X65749999Y-58050000I249999J0D01*
G01*
X66650001Y-58050000D01*
G75*
G02*
X66900000Y-58299999I0J-249999D01*
G01*
X66900000Y-58950001D01*
G75*
G02*
X66650001Y-59200000I-249999J0D01*
G01*
G37*
G36*
G01*
X44300000Y-56300001D02*
X44300000Y-55399999D01*
G75*
G02*
X44549999Y-55150000I249999J0D01*
G01*
X45200001Y-55150000D01*
G75*
G02*
X45450000Y-55399999I0J-249999D01*
G01*
X45450000Y-56300001D01*
G75*
G02*
X45200001Y-56550000I-249999J0D01*
G01*
X44549999Y-56550000D01*
G75*
G02*
X44300000Y-56300001I0J249999D01*
G01*
G37*
G36*
G01*
X42250000Y-56300001D02*
X42250000Y-55399999D01*
G75*
G02*
X42499999Y-55150000I249999J0D01*
G01*
X43150001Y-55150000D01*
G75*
G02*
X43400000Y-55399999I0J-249999D01*
G01*
X43400000Y-56300001D01*
G75*
G02*
X43150001Y-56550000I-249999J0D01*
G01*
X42499999Y-56550000D01*
G75*
G02*
X42250000Y-56300001I0J249999D01*
G01*
G37*
G36*
G01*
X44300000Y-58800001D02*
X44300000Y-57899999D01*
G75*
G02*
X44549999Y-57650000I249999J0D01*
G01*
X45200001Y-57650000D01*
G75*
G02*
X45450000Y-57899999I0J-249999D01*
G01*
X45450000Y-58800001D01*
G75*
G02*
X45200001Y-59050000I-249999J0D01*
G01*
X44549999Y-59050000D01*
G75*
G02*
X44300000Y-58800001I0J249999D01*
G01*
G37*
G36*
G01*
X42250000Y-58800001D02*
X42250000Y-57899999D01*
G75*
G02*
X42499999Y-57650000I249999J0D01*
G01*
X43150001Y-57650000D01*
G75*
G02*
X43400000Y-57899999I0J-249999D01*
G01*
X43400000Y-58800001D01*
G75*
G02*
X43150001Y-59050000I-249999J0D01*
G01*
X42499999Y-59050000D01*
G75*
G02*
X42250000Y-58800001I0J249999D01*
G01*
G37*
G36*
G01*
X63950001Y-57150000D02*
X63049999Y-57150000D01*
G75*
G02*
X62800000Y-56900001I0J249999D01*
G01*
X62800000Y-56249999D01*
G75*
G02*
X63049999Y-56000000I249999J0D01*
G01*
X63950001Y-56000000D01*
G75*
G02*
X64200000Y-56249999I0J-249999D01*
G01*
X64200000Y-56900001D01*
G75*
G02*
X63950001Y-57150000I-249999J0D01*
G01*
G37*
G36*
G01*
X63950001Y-59200000D02*
X63049999Y-59200000D01*
G75*
G02*
X62800000Y-58950001I0J249999D01*
G01*
X62800000Y-58299999D01*
G75*
G02*
X63049999Y-58050000I249999J0D01*
G01*
X63950001Y-58050000D01*
G75*
G02*
X64200000Y-58299999I0J-249999D01*
G01*
X64200000Y-58950001D01*
G75*
G02*
X63950001Y-59200000I-249999J0D01*
G01*
G37*
G36*
G01*
X65150000Y-52550001D02*
X65150000Y-51649999D01*
G75*
G02*
X65399999Y-51400000I249999J0D01*
G01*
X66050001Y-51400000D01*
G75*
G02*
X66300000Y-51649999I0J-249999D01*
G01*
X66300000Y-52550001D01*
G75*
G02*
X66050001Y-52800000I-249999J0D01*
G01*
X65399999Y-52800000D01*
G75*
G02*
X65150000Y-52550001I0J249999D01*
G01*
G37*
G36*
G01*
X63100000Y-52550001D02*
X63100000Y-51649999D01*
G75*
G02*
X63349999Y-51400000I249999J0D01*
G01*
X64000001Y-51400000D01*
G75*
G02*
X64250000Y-51649999I0J-249999D01*
G01*
X64250000Y-52550001D01*
G75*
G02*
X64000001Y-52800000I-249999J0D01*
G01*
X63349999Y-52800000D01*
G75*
G02*
X63100000Y-52550001I0J249999D01*
G01*
G37*
G36*
G01*
X81250001Y-53250000D02*
X80349999Y-53250000D01*
G75*
G02*
X80100000Y-53000001I0J249999D01*
G01*
X80100000Y-52349999D01*
G75*
G02*
X80349999Y-52100000I249999J0D01*
G01*
X81250001Y-52100000D01*
G75*
G02*
X81500000Y-52349999I0J-249999D01*
G01*
X81500000Y-53000001D01*
G75*
G02*
X81250001Y-53250000I-249999J0D01*
G01*
G37*
G36*
G01*
X81250001Y-55300000D02*
X80349999Y-55300000D01*
G75*
G02*
X80100000Y-55050001I0J249999D01*
G01*
X80100000Y-54399999D01*
G75*
G02*
X80349999Y-54150000I249999J0D01*
G01*
X81250001Y-54150000D01*
G75*
G02*
X81500000Y-54399999I0J-249999D01*
G01*
X81500000Y-55050001D01*
G75*
G02*
X81250001Y-55300000I-249999J0D01*
G01*
G37*
G36*
G01*
X44250001Y-40400000D02*
X43349999Y-40400000D01*
G75*
G02*
X43100000Y-40150001I0J249999D01*
G01*
X43100000Y-39499999D01*
G75*
G02*
X43349999Y-39250000I249999J0D01*
G01*
X44250001Y-39250000D01*
G75*
G02*
X44500000Y-39499999I0J-249999D01*
G01*
X44500000Y-40150001D01*
G75*
G02*
X44250001Y-40400000I-249999J0D01*
G01*
G37*
G36*
G01*
X44250001Y-42450000D02*
X43349999Y-42450000D01*
G75*
G02*
X43100000Y-42200001I0J249999D01*
G01*
X43100000Y-41549999D01*
G75*
G02*
X43349999Y-41300000I249999J0D01*
G01*
X44250001Y-41300000D01*
G75*
G02*
X44500000Y-41549999I0J-249999D01*
G01*
X44500000Y-42200001D01*
G75*
G02*
X44250001Y-42450000I-249999J0D01*
G01*
G37*
D14*
X51500000Y-42250000D03*
X51500000Y-48350000D03*
D15*
X66500000Y-42600000D03*
X73900000Y-42600000D03*
G36*
G01*
X36900001Y-40600000D02*
X35999999Y-40600000D01*
G75*
G02*
X35750000Y-40350001I0J249999D01*
G01*
X35750000Y-39699999D01*
G75*
G02*
X35999999Y-39450000I249999J0D01*
G01*
X36900001Y-39450000D01*
G75*
G02*
X37150000Y-39699999I0J-249999D01*
G01*
X37150000Y-40350001D01*
G75*
G02*
X36900001Y-40600000I-249999J0D01*
G01*
G37*
G36*
G01*
X36900001Y-42650000D02*
X35999999Y-42650000D01*
G75*
G02*
X35750000Y-42400001I0J249999D01*
G01*
X35750000Y-41749999D01*
G75*
G02*
X35999999Y-41500000I249999J0D01*
G01*
X36900001Y-41500000D01*
G75*
G02*
X37150000Y-41749999I0J-249999D01*
G01*
X37150000Y-42400001D01*
G75*
G02*
X36900001Y-42650000I-249999J0D01*
G01*
G37*
G36*
G01*
X35299999Y-57400000D02*
X36200001Y-57400000D01*
G75*
G02*
X36450000Y-57649999I0J-249999D01*
G01*
X36450000Y-58300001D01*
G75*
G02*
X36200001Y-58550000I-249999J0D01*
G01*
X35299999Y-58550000D01*
G75*
G02*
X35050000Y-58300001I0J249999D01*
G01*
X35050000Y-57649999D01*
G75*
G02*
X35299999Y-57400000I249999J0D01*
G01*
G37*
G36*
G01*
X35299999Y-55350000D02*
X36200001Y-55350000D01*
G75*
G02*
X36450000Y-55599999I0J-249999D01*
G01*
X36450000Y-56250001D01*
G75*
G02*
X36200001Y-56500000I-249999J0D01*
G01*
X35299999Y-56500000D01*
G75*
G02*
X35050000Y-56250001I0J249999D01*
G01*
X35050000Y-55599999D01*
G75*
G02*
X35299999Y-55350000I249999J0D01*
G01*
G37*
M02*
